Russolo-72ptMedium.ufo
<glyph name="exclam" format="2">
  <advance width="494"/>
  <unicode hex="0021"/>
  <note>
exclam
</note>
  <outline>
    <contour>
      <point x="235" y="324" type="curve"/>
      <point x="259" y="324" type="line"/>
      <point x="263" y="944"/>
      <point x="340" y="1120"/>
      <point x="340" y="1230" type="curve" smooth="yes"/>
      <point x="340" y="1295"/>
      <point x="257" y="1311"/>
      <point x="259" y="1470" type="curve"/>
      <point x="235" y="1470" type="line"/>
      <point x="237" y="1311"/>
      <point x="153" y="1295"/>
      <point x="153" y="1230" type="curve" smooth="yes"/>
      <point x="153" y="1120"/>
      <point x="231" y="944"/>
    </contour>
    <contour>
      <point x="247" y="-21" type="curve" smooth="yes"/>
      <point x="299" y="-21"/>
      <point x="341" y="21"/>
      <point x="341" y="75" type="curve" smooth="yes"/>
      <point x="341" y="128"/>
      <point x="299" y="168"/>
      <point x="247" y="168" type="curve" smooth="yes"/>
      <point x="195" y="168"/>
      <point x="152" y="128"/>
      <point x="152" y="75" type="curve" smooth="yes"/>
      <point x="152" y="21"/>
      <point x="194" y="-21"/>
    </contour>
  </outline>
</glyph>
<glyph name="quotedbl" format="2">
  <advance width="631"/>
  <unicode hex="0022"/>
  <note>
quotedbl
</note>
  <outline>
    <contour>
      <point x="384" y="847" type="line"/>
      <point x="476" y="847" type="line"/>
      <point x="495" y="1362" type="line"/>
      <point x="368" y="1362" type="line"/>
    </contour>
    <contour>
      <point x="154" y="847" type="line"/>
      <point x="246" y="847" type="line"/>
      <point x="265" y="1362" type="line"/>
      <point x="138" y="1362" type="line"/>
    </contour>
  </outline>
</glyph>
<glyph name="numbersign" format="2">
  <advance width="1270"/>
  <unicode hex="0023"/>
  <note>
numbersign
</note>
  <outline>
    <contour>
      <point x="694" y="-1" type="line"/>
      <point x="813" y="-1" type="line"/>
      <point x="1106" y="1438" type="line"/>
      <point x="986" y="1438" type="line"/>
    </contour>
    <contour>
      <point x="68" y="486" type="line"/>
      <point x="1136" y="486" type="line"/>
      <point x="1136" y="506" type="line"/>
      <point x="68" y="506" type="line"/>
    </contour>
    <contour>
      <point x="177" y="-1" type="line"/>
      <point x="296" y="-1" type="line"/>
      <point x="589" y="1438" type="line"/>
      <point x="470" y="1438" type="line"/>
    </contour>
    <contour>
      <point x="129" y="942" type="line"/>
      <point x="1198" y="942" type="line"/>
      <point x="1198" y="962" type="line"/>
      <point x="129" y="962" type="line"/>
    </contour>
  </outline>
</glyph>
<glyph name="quotesingle" format="2">
  <advance width="401"/>
  <unicode hex="0027"/>
  <note>
quotesingle
</note>
  <outline>
    <contour>
      <point x="154" y="847" type="line"/>
      <point x="246" y="847" type="line"/>
      <point x="265" y="1362" type="line"/>
      <point x="138" y="1362" type="line"/>
    </contour>
  </outline>
</glyph>
<glyph name="parenleft" format="2">
  <advance width="524"/>
  <unicode hex="0028"/>
  <note>
parenleft
</note>
  <outline>
    <contour>
      <point x="420" y="-412" type="curve"/>
      <point x="475" y="-376" type="line"/>
      <point x="338" y="-121"/>
      <point x="225" y="227"/>
      <point x="225" y="568" type="curve" smooth="yes"/>
      <point x="225" y="907"/>
      <point x="337" y="1263"/>
      <point x="477" y="1526" type="curve"/>
      <point x="418" y="1553" type="line"/>
      <point x="178" y="1211"/>
      <point x="77" y="925"/>
      <point x="77" y="573" type="curve" smooth="yes"/>
      <point x="77" y="221"/>
      <point x="177" y="-70"/>
    </contour>
  </outline>
</glyph>
<glyph name="parenright" format="2">
  <advance width="524"/>
  <unicode hex="0029"/>
  <note>
parenright
</note>
  <outline>
    <contour>
      <point x="104" y="-412" type="line"/>
      <point x="347" y="-70"/>
      <point x="447" y="221"/>
      <point x="447" y="573" type="curve" smooth="yes"/>
      <point x="447" y="925"/>
      <point x="347" y="1211"/>
      <point x="106" y="1553" type="curve"/>
      <point x="47" y="1526" type="line"/>
      <point x="187" y="1263"/>
      <point x="299" y="907"/>
      <point x="299" y="568" type="curve" smooth="yes"/>
      <point x="299" y="227"/>
      <point x="187" y="-121"/>
      <point x="49" y="-376" type="curve"/>
    </contour>
  </outline>
</glyph>
<glyph name="asterisk" format="2">
  <advance width="765"/>
  <unicode hex="002A"/>
  <note>
asterisk
</note>
  <guideline x="-137" y="379" angle="0"/>
  <outline>
    <contour>
      <point x="390" y="1135" type="line"/>
      <point x="502" y="1223"/>
      <point x="578" y="1196"/>
      <point x="617" y="1218" type="curve" smooth="yes"/>
      <point x="641" y="1232"/>
      <point x="613" y="1264"/>
      <point x="659" y="1284" type="curve"/>
      <point x="640" y="1317" type="line"/>
      <point x="599" y="1288"/>
      <point x="583" y="1327"/>
      <point x="561" y="1314" type="curve" smooth="yes"/>
      <point x="524" y="1293"/>
      <point x="508" y="1212"/>
      <point x="376" y="1159" type="curve"/>
    </contour>
    <contour>
      <point x="125" y="976" type="line"/>
      <point x="166" y="1005"/>
      <point x="179" y="965"/>
      <point x="204" y="979" type="curve" smooth="yes"/>
      <point x="243" y="1001"/>
      <point x="257" y="1081"/>
      <point x="390" y="1135" type="curve"/>
      <point x="376" y="1159" type="line"/>
      <point x="263" y="1071"/>
      <point x="191" y="1101"/>
      <point x="148" y="1076" type="curve" smooth="yes"/>
      <point x="117" y="1058"/>
      <point x="152" y="1030"/>
      <point x="106" y="1009" type="curve"/>
    </contour>
    <contour>
      <point x="363" y="839" type="curve"/>
      <point x="402" y="839" type="line"/>
      <point x="397" y="888"/>
      <point x="438" y="879"/>
      <point x="438" y="908" type="curve" smooth="yes"/>
      <point x="438" y="953"/>
      <point x="376" y="1005"/>
      <point x="396" y="1147" type="curve"/>
      <point x="369" y="1147" type="line"/>
      <point x="389" y="1005"/>
      <point x="327" y="953"/>
      <point x="327" y="908" type="curve" smooth="yes"/>
      <point x="327" y="879"/>
      <point x="368" y="888"/>
    </contour>
    <contour>
      <point x="376" y="1135" type="curve"/>
      <point x="390" y="1159" type="line"/>
      <point x="257" y="1212"/>
      <point x="241" y="1293"/>
      <point x="204" y="1314" type="curve" smooth="yes"/>
      <point x="182" y="1327"/>
      <point x="166" y="1288"/>
      <point x="125" y="1317" type="curve"/>
      <point x="106" y="1284" type="line"/>
      <point x="152" y="1264"/>
      <point x="124" y="1232"/>
      <point x="148" y="1218" type="curve" smooth="yes"/>
      <point x="187" y="1196"/>
      <point x="263" y="1223"/>
    </contour>
    <contour>
      <point x="561" y="979" type="curve" smooth="yes"/>
      <point x="586" y="965"/>
      <point x="599" y="1005"/>
      <point x="640" y="976" type="curve"/>
      <point x="659" y="1009" type="line"/>
      <point x="613" y="1030"/>
      <point x="648" y="1058"/>
      <point x="617" y="1076" type="curve" smooth="yes"/>
      <point x="574" y="1101"/>
      <point x="502" y="1071"/>
      <point x="390" y="1159" type="curve"/>
      <point x="376" y="1135" type="line"/>
      <point x="508" y="1081"/>
      <point x="522" y="1001"/>
    </contour>
    <contour>
      <point x="369" y="1147" type="curve"/>
      <point x="396" y="1147" type="line"/>
      <point x="376" y="1288"/>
      <point x="438" y="1341"/>
      <point x="438" y="1385" type="curve" smooth="yes"/>
      <point x="438" y="1414"/>
      <point x="397" y="1405"/>
      <point x="402" y="1455" type="curve"/>
      <point x="363" y="1455" type="line"/>
      <point x="368" y="1405"/>
      <point x="327" y="1414"/>
      <point x="327" y="1385" type="curve" smooth="yes"/>
      <point x="327" y="1341"/>
      <point x="389" y="1288"/>
    </contour>
  </outline>
</glyph>
<glyph name="plus" format="2">
  <advance width="993"/>
  <unicode hex="002B"/>
  <note>
plus
</note>
  <outline>
    <contour>
      <point x="91" y="613" type="line"/>
      <point x="902" y="613" type="line"/>
      <point x="902" y="724" type="line"/>
      <point x="91" y="724" type="line"/>
    </contour>
    <contour>
      <point x="441" y="263" type="line"/>
      <point x="552" y="263" type="line"/>
      <point x="552" y="1074" type="line"/>
      <point x="441" y="1074" type="line"/>
    </contour>
  </outline>
</glyph>
<glyph name="hyphen" format="2">
  <advance width="629"/>
  <unicode hex="002D"/>
  <note>
hyphen
</note>
  <outline>
    <contour>
      <point x="65" y="457" type="line"/>
      <point x="522" y="457" type="line"/>
      <point x="564" y="572" type="line"/>
      <point x="106" y="572" type="line"/>
    </contour>
  </outline>
</glyph>
<glyph name="zero" format="2">
  <advance width="1273"/>
  <unicode hex="0030"/>
  <note>
zero
</note>
  <anchor x="629" y="714" name="center"/>
  <outline>
    <contour>
      <point x="641" y="-39" type="curve" smooth="yes"/>
      <point x="979" y="-33"/>
      <point x="1190" y="249"/>
      <point x="1190" y="712" type="curve" smooth="yes"/>
      <point x="1190" y="1139"/>
      <point x="973" y="1465"/>
      <point x="639" y="1465" type="curve" smooth="yes"/>
      <point x="306" y="1465"/>
      <point x="83" y="1172"/>
      <point x="83" y="715" type="curve" smooth="yes"/>
      <point x="83" y="292"/>
      <point x="292" y="-45"/>
    </contour>
    <contour>
      <point x="641" y="-10" type="curve" smooth="yes"/>
      <point x="438" y="-12"/>
      <point x="267" y="279"/>
      <point x="267" y="723" type="curve" smooth="yes"/>
      <point x="267" y="1147"/>
      <point x="428" y="1434"/>
      <point x="631" y="1436" type="curve" smooth="yes"/>
      <point x="837" y="1438"/>
      <point x="1006" y="1142"/>
      <point x="1006" y="703" type="curve" smooth="yes"/>
      <point x="1006" y="273"/>
      <point x="841" y="-8"/>
    </contour>
  </outline>
</glyph>
<glyph name="one" format="2">
  <advance width="585"/>
  <unicode hex="0031"/>
  <note>
one
</note>
  <outline>
    <contour>
      <point x="246" y="0" type="line"/>
      <point x="421" y="0" type="line"/>
      <point x="421" y="1446" type="line"/>
      <point x="372" y="1446" type="line"/>
      <point x="20" y="972" type="line"/>
      <point x="60" y="944" type="line"/>
      <point x="300" y="1275" type="line"/>
      <point x="246" y="1268" type="line"/>
    </contour>
  </outline>
</glyph>
<glyph name="three" format="2">
  <advance width="1081"/>
  <unicode hex="0033"/>
  <note>
three
</note>
  <outline>
    <contour>
      <point x="510" y="-38" type="curve" smooth="yes"/>
      <point x="800" y="-38"/>
      <point x="1001" y="137"/>
      <point x="1001" y="373" type="curve" smooth="yes"/>
      <point x="1001" y="600"/>
      <point x="826" y="720"/>
      <point x="627" y="755" type="curve"/>
      <point x="624" y="743" type="line"/>
      <point x="801" y="771"/>
      <point x="967" y="897"/>
      <point x="967" y="1105" type="curve" smooth="yes"/>
      <point x="967" y="1306"/>
      <point x="806" y="1465"/>
      <point x="544" y="1465" type="curve" smooth="yes"/>
      <point x="291" y="1465"/>
      <point x="94" y="1319"/>
      <point x="86" y="1071" type="curve"/>
      <point x="235" y="1083" type="line"/>
      <point x="237" y="1281"/>
      <point x="345" y="1443"/>
      <point x="540" y="1443" type="curve" smooth="yes"/>
      <point x="743" y="1443"/>
      <point x="808" y="1274"/>
      <point x="808" y="1112" type="curve" smooth="yes"/>
      <point x="808" y="881"/>
      <point x="686" y="761"/>
      <point x="506" y="761" type="curve" smooth="yes"/>
      <point x="309" y="761" type="line"/>
      <point x="309" y="741" type="line"/>
      <point x="510" y="741" type="line" smooth="yes"/>
      <point x="683" y="741"/>
      <point x="811" y="630"/>
      <point x="811" y="374" type="curve" smooth="yes"/>
      <point x="811" y="187"/>
      <point x="724" y="-18"/>
      <point x="516" y="-18" type="curve" smooth="yes"/>
      <point x="322" y="-18"/>
      <point x="221" y="157"/>
      <point x="221" y="336" type="curve" smooth="yes"/>
      <point x="221" y="357" type="line"/>
      <point x="60" y="369" type="line"/>
      <point x="60" y="336" type="line" smooth="yes"/>
      <point x="60" y="102"/>
      <point x="248" y="-38"/>
    </contour>
  </outline>
</glyph>
<glyph name="four" format="2">
  <advance width="1013"/>
  <unicode hex="0034"/>
  <note>
four
</note>
  <outline>
    <contour>
      <point x="641" y="0" type="line"/>
      <point x="813" y="0" type="line"/>
      <point x="813" y="448" type="line"/>
      <point x="699" y="353" type="line"/>
      <point x="992" y="353" type="line"/>
      <point x="992" y="378" type="line"/>
      <point x="699" y="378" type="line"/>
      <point x="813" y="334" type="line"/>
      <point x="813" y="834" type="line"/>
      <point x="641" y="834" type="line"/>
      <point x="641" y="334" type="line"/>
      <point x="736" y="378" type="line"/>
      <point x="60" y="378" type="line"/>
      <point x="58" y="363" type="line"/>
      <point x="300" y="656"/>
      <point x="588" y="1074"/>
      <point x="711" y="1443" type="curve"/>
      <point x="574" y="1449" type="line"/>
      <point x="466" y="1048"/>
      <point x="238" y="669"/>
      <point x="22" y="353" type="curve"/>
      <point x="736" y="353" type="line"/>
      <point x="641" y="448" type="line"/>
    </contour>
  </outline>
</glyph>
<glyph name="five" format="2">
  <advance width="984"/>
  <unicode hex="0035"/>
  <note>
five
</note>
  <outline>
    <contour>
      <point x="420" y="-30" type="curve" smooth="yes"/>
      <point x="720" y="-30"/>
      <point x="918" y="161"/>
      <point x="918" y="434" type="curve" smooth="yes"/>
      <point x="918" y="758"/>
      <point x="646" y="874"/>
      <point x="449" y="874" type="curve" smooth="yes"/>
      <point x="354" y="874"/>
      <point x="247" y="846"/>
      <point x="142" y="770" type="curve"/>
      <point x="155" y="769" type="line"/>
      <point x="277" y="1362" type="line"/>
      <point x="235" y="1279" type="line"/>
      <point x="831" y="1279" type="line"/>
      <point x="831" y="1430" type="line"/>
      <point x="238" y="1430" type="line"/>
      <point x="104" y="765" type="line"/>
      <point x="139" y="757" type="line"/>
      <point x="248" y="831"/>
      <point x="356" y="851"/>
      <point x="417" y="851" type="curve" smooth="yes"/>
      <point x="609" y="851"/>
      <point x="732" y="716"/>
      <point x="732" y="430" type="curve" smooth="yes"/>
      <point x="732" y="257"/>
      <point x="709" y="-9"/>
      <point x="419" y="-9" type="curve" smooth="yes"/>
      <point x="254" y="-9"/>
      <point x="123" y="81"/>
      <point x="57" y="177" type="curve"/>
      <point x="45" y="169" type="line"/>
      <point x="127" y="44"/>
      <point x="245" y="-30"/>
    </contour>
  </outline>
</glyph>
<glyph name="six" format="2">
  <advance width="1065"/>
  <unicode hex="0036"/>
  <note>
six
</note>
  <outline>
    <contour>
      <point x="533" y="-44" type="curve" smooth="yes"/>
      <point x="816" y="-46"/>
      <point x="1012" y="127"/>
      <point x="1012" y="406" type="curve" smooth="yes"/>
      <point x="1012" y="664"/>
      <point x="829" y="862"/>
      <point x="562" y="862" type="curve" smooth="yes"/>
      <point x="348" y="862"/>
      <point x="244" y="730"/>
      <point x="201" y="556" type="curve"/>
      <point x="223" y="556" type="line"/>
      <point x="237" y="747"/>
      <point x="278" y="883"/>
      <point x="337" y="1001" type="curve" smooth="yes"/>
      <point x="443" y="1213"/>
      <point x="605" y="1363"/>
      <point x="820" y="1427" type="curve"/>
      <point x="820" y="1454" type="line"/>
      <point x="559" y="1384"/>
      <point x="367" y="1254"/>
      <point x="234" y="1049" type="curve" smooth="yes"/>
      <point x="133" y="894"/>
      <point x="74" y="712"/>
      <point x="74" y="500" type="curve" smooth="yes"/>
      <point x="74" y="138"/>
      <point x="245" y="-42"/>
    </contour>
    <contour>
      <point x="549" y="-22" type="curve" smooth="yes"/>
      <point x="315" y="-20"/>
      <point x="235" y="187"/>
      <point x="235" y="439" type="curve" smooth="yes"/>
      <point x="235" y="673"/>
      <point x="373" y="840"/>
      <point x="568" y="840" type="curve" smooth="yes"/>
      <point x="788" y="840"/>
      <point x="844" y="609"/>
      <point x="844" y="411" type="curve" smooth="yes"/>
      <point x="844" y="143"/>
      <point x="753" y="-24"/>
    </contour>
  </outline>
</glyph>
<glyph name="seven" format="2">
  <advance width="944"/>
  <unicode hex="0037"/>
  <note>
seven
</note>
  <outline>
    <contour>
      <point x="255" y="0" type="curve"/>
      <point x="411" y="0" type="line"/>
      <point x="435" y="557"/>
      <point x="684" y="1071"/>
      <point x="921" y="1423" type="curve"/>
      <point x="33" y="1423" type="line"/>
      <point x="33" y="1267" type="line"/>
      <point x="794" y="1267" type="line"/>
      <point x="842" y="1351" type="line"/>
      <point x="616" y="1039"/>
      <point x="346" y="554"/>
    </contour>
  </outline>
</glyph>
<glyph name="greater" format="2">
  <advance width="993"/>
  <unicode hex="003E"/>
  <note>
greater
</note>
  <outline>
    <contour>
      <point x="91" y="288" type="line"/>
      <point x="892" y="649" type="line"/>
      <point x="892" y="719" type="line"/>
      <point x="91" y="1078" type="line"/>
      <point x="91" y="982" type="line"/>
      <point x="759" y="684" type="line"/>
      <point x="91" y="384" type="line"/>
    </contour>
  </outline>
</glyph>
<glyph name="question" format="2">
  <advance width="946"/>
  <unicode hex="003F"/>
  <note>
question
</note>
  <outline>
    <contour>
      <point x="397" y="369" type="curve"/>
      <point x="496" y="369" type="line"/>
      <point x="469" y="425"/>
      <point x="439" y="541"/>
      <point x="439" y="606" type="curve" smooth="yes"/>
      <point x="439" y="870"/>
      <point x="878" y="882"/>
      <point x="878" y="1185" type="curve" smooth="yes"/>
      <point x="878" y="1390"/>
      <point x="679" y="1469"/>
      <point x="445" y="1469" type="curve" smooth="yes"/>
      <point x="165" y="1469"/>
      <point x="64" y="1356"/>
      <point x="64" y="1182" type="curve" smooth="yes"/>
      <point x="64" y="1167"/>
      <point x="64" y="1151"/>
      <point x="65" y="1134" type="curve"/>
      <point x="226" y="1134" type="line"/>
      <point x="220" y="1158"/>
      <point x="219" y="1188"/>
      <point x="219" y="1205" type="curve" smooth="yes"/>
      <point x="219" y="1332"/>
      <point x="295" y="1447"/>
      <point x="442" y="1447" type="curve" smooth="yes"/>
      <point x="573" y="1447"/>
      <point x="684" y="1352"/>
      <point x="684" y="1178" type="curve" smooth="yes"/>
      <point x="684" y="885"/>
      <point x="367" y="941"/>
      <point x="367" y="598" type="curve" smooth="yes"/>
      <point x="367" y="555"/>
      <point x="372" y="439"/>
    </contour>
    <contour>
      <point x="455" y="-21" type="curve" smooth="yes"/>
      <point x="507" y="-21"/>
      <point x="549" y="21"/>
      <point x="549" y="75" type="curve" smooth="yes"/>
      <point x="549" y="128"/>
      <point x="507" y="168"/>
      <point x="455" y="168" type="curve" smooth="yes"/>
      <point x="403" y="168"/>
      <point x="360" y="128"/>
      <point x="360" y="75" type="curve" smooth="yes"/>
      <point x="360" y="21"/>
      <point x="402" y="-21"/>
    </contour>
  </outline>
</glyph>
<glyph name="at" format="2">
  <advance width="1693"/>
  <unicode hex="0040"/>
  <note>
at
</note>
  <outline>
    <contour>
      <point x="888" y="-38" type="curve" smooth="yes"/>
      <point x="1181" y="-38"/>
      <point x="1436" y="123"/>
      <point x="1537" y="305" type="curve"/>
      <point x="1440" y="305" type="line"/>
      <point x="1339" y="134"/>
      <point x="1129" y="-7"/>
      <point x="888" y="-7" type="curve" smooth="yes"/>
      <point x="515" y="-7"/>
      <point x="206" y="328"/>
      <point x="206" y="716" type="curve" smooth="yes"/>
      <point x="206" y="1102"/>
      <point x="530" y="1437"/>
      <point x="888" y="1437" type="curve" smooth="yes"/>
      <point x="1218" y="1437"/>
      <point x="1480" y="1186"/>
      <point x="1480" y="867" type="curve" smooth="yes"/>
      <point x="1480" y="786"/>
      <point x="1465" y="697"/>
      <point x="1437" y="617" type="curve" smooth="yes"/>
      <point x="1389" y="482"/>
      <point x="1303" y="373"/>
      <point x="1186" y="373" type="curve" smooth="yes"/>
      <point x="1132" y="373"/>
      <point x="1079" y="425"/>
      <point x="1081" y="490" type="curve"/>
      <point x="1225" y="1066" type="line"/>
      <point x="1094" y="1066" type="line"/>
      <point x="1068" y="958" type="line"/>
      <point x="1037" y="1059"/>
      <point x="989" y="1086"/>
      <point x="901" y="1086" type="curve" smooth="yes"/>
      <point x="654" y="1086"/>
      <point x="452" y="820"/>
      <point x="452" y="588" type="curve" smooth="yes"/>
      <point x="452" y="420"/>
      <point x="561" y="325"/>
      <point x="729" y="325" type="curve" smooth="yes"/>
      <point x="831" y="325"/>
      <point x="906" y="361"/>
      <point x="978" y="491" type="curve"/>
      <point x="993" y="381"/>
      <point x="1073" y="338"/>
      <point x="1165" y="338" type="curve" smooth="yes"/>
      <point x="1244" y="338"/>
      <point x="1313" y="361"/>
      <point x="1370" y="401" type="curve" smooth="yes"/>
      <point x="1423" y="438"/>
      <point x="1466" y="489"/>
      <point x="1499" y="548" type="curve" smooth="yes"/>
      <point x="1549" y="638"/>
      <point x="1576" y="749"/>
      <point x="1576" y="863" type="curve" smooth="yes"/>
      <point x="1576" y="1230"/>
      <point x="1277" y="1468"/>
      <point x="888" y="1468" type="curve" smooth="yes"/>
      <point x="456" y="1468"/>
      <point x="110" y="1130"/>
      <point x="110" y="716" type="curve" smooth="yes"/>
      <point x="110" y="300"/>
      <point x="462" y="-38"/>
    </contour>
    <contour>
      <point x="752" y="366" type="curve" smooth="yes"/>
      <point x="656" y="366"/>
      <point x="583" y="444"/>
      <point x="583" y="582" type="curve" smooth="yes"/>
      <point x="583" y="849"/>
      <point x="760" y="1047"/>
      <point x="913" y="1047" type="curve" smooth="yes"/>
      <point x="1001" y="1047"/>
      <point x="1017" y="956"/>
      <point x="1017" y="860" type="curve" smooth="yes"/>
      <point x="1017" y="658"/>
      <point x="913" y="366"/>
    </contour>
  </outline>
</glyph>
<glyph name="A" format="2">
  <advance width="1355"/>
  <unicode hex="0041"/>
  <note>
A
</note>
  <anchor x="649" y="-40" name="bottom"/>
  <anchor x="1129" y="0" name="ogonek"/>
  <anchor x="661" y="1395" name="top"/>
  <outline>
    <contour>
      <point x="38" y="0" type="line"/>
      <point x="105" y="0" type="line"/>
      <point x="636" y="1224" type="line"/>
      <point x="609" y="1204" type="line"/>
      <point x="1114" y="0" type="line"/>
      <point x="1317" y="0" type="line"/>
      <point x="689" y="1489" type="line"/>
    </contour>
    <contour>
      <point x="251" y="398" type="line"/>
      <point x="993" y="398" type="line"/>
      <point x="978" y="416" type="line"/>
      <point x="267" y="416" type="line"/>
    </contour>
  </outline>
</glyph>
<glyph name="B" format="2">
  <advance width="1259"/>
  <unicode hex="0042"/>
  <note>
B
</note>
  <anchor x="664" y="0" name="bottom"/>
  <anchor x="664" y="1435" name="top"/>
  <outline>
    <contour>
      <point x="172" y="0" type="line"/>
      <point x="637" y="0" type="line" smooth="yes"/>
      <point x="1004" y="0"/>
      <point x="1173" y="108"/>
      <point x="1173" y="391" type="curve" smooth="yes"/>
      <point x="1173" y="660"/>
      <point x="1021" y="768"/>
      <point x="748" y="785" type="curve"/>
      <point x="750" y="780" type="line"/>
      <point x="992" y="794"/>
      <point x="1121" y="906"/>
      <point x="1121" y="1089" type="curve" smooth="yes"/>
      <point x="1121" y="1309"/>
      <point x="940" y="1438"/>
      <point x="637" y="1438" type="curve" smooth="yes"/>
      <point x="172" y="1438" type="line"/>
    </contour>
    <contour>
      <point x="338" y="12" type="line"/>
      <point x="338" y="771" type="line"/>
      <point x="297" y="768" type="line"/>
      <point x="617" y="768" type="line" smooth="yes"/>
      <point x="848" y="768"/>
      <point x="1002" y="697"/>
      <point x="1002" y="396" type="curve" smooth="yes"/>
      <point x="1002" y="114"/>
      <point x="864" y="18"/>
      <point x="582" y="18" type="curve" smooth="yes"/>
      <point x="220" y="18" type="line"/>
    </contour>
    <contour>
      <point x="338" y="782" type="line"/>
      <point x="338" y="1426" type="line"/>
      <point x="215" y="1420" type="line"/>
      <point x="567" y="1420" type="line" smooth="yes"/>
      <point x="864" y="1420"/>
      <point x="948" y="1268"/>
      <point x="948" y="1084" type="curve" smooth="yes"/>
      <point x="948" y="850"/>
      <point x="811" y="786"/>
      <point x="622" y="786" type="curve" smooth="yes"/>
      <point x="301" y="786" type="line"/>
    </contour>
  </outline>
</glyph>
<glyph name="C" format="2">
  <advance width="1468"/>
  <unicode hex="0043"/>
  <note>
C
</note>
  <anchor x="776" y="-10" name="bottom"/>
  <anchor x="778" y="1435" name="top"/>
  <outline>
    <contour>
      <point x="818" y="-24" type="curve" smooth="yes"/>
      <point x="1080" y="-24"/>
      <point x="1284" y="104"/>
      <point x="1421" y="321" type="curve"/>
      <point x="1238" y="326" type="line"/>
      <point x="1118" y="112"/>
      <point x="975" y="17"/>
      <point x="818" y="17" type="curve" smooth="yes"/>
      <point x="523" y="17"/>
      <point x="294" y="312"/>
      <point x="294" y="717" type="curve" smooth="yes"/>
      <point x="294" y="1129"/>
      <point x="527" y="1418"/>
      <point x="815" y="1418" type="curve" smooth="yes"/>
      <point x="971" y="1418"/>
      <point x="1123" y="1322"/>
      <point x="1232" y="1111" type="curve"/>
      <point x="1411" y="1116" type="line"/>
      <point x="1300" y="1322"/>
      <point x="1071" y="1458"/>
      <point x="815" y="1458" type="curve" smooth="yes"/>
      <point x="421" y="1458"/>
      <point x="77" y="1155"/>
      <point x="77" y="717" type="curve" smooth="yes"/>
      <point x="77" y="278"/>
      <point x="414" y="-24"/>
    </contour>
  </outline>
</glyph>
<glyph name="E" format="2">
  <advance width="1147"/>
  <unicode hex="0045"/>
  <note>
E
</note>
  <anchor x="563" y="0" name="bottom"/>
  <anchor x="1031" y="0" name="ogonek"/>
  <anchor x="663" y="1439" name="top"/>
  <anchor x="-2" y="1430" name="topleft"/>
  <outline>
    <contour>
      <point x="172" y="0" type="line"/>
      <point x="1079" y="0" type="line"/>
      <point x="1079" y="18" type="line"/>
      <point x="243" y="18" type="line"/>
      <point x="345" y="11" type="line"/>
      <point x="345" y="744" type="line"/>
      <point x="250" y="719" type="line"/>
      <point x="1079" y="719" type="line"/>
      <point x="1079" y="737" type="line"/>
      <point x="243" y="737" type="line"/>
      <point x="345" y="720" type="line"/>
      <point x="345" y="1427" type="line"/>
      <point x="236" y="1420" type="line"/>
      <point x="1079" y="1420" type="line"/>
      <point x="1079" y="1438" type="line"/>
      <point x="172" y="1438" type="line"/>
    </contour>
  </outline>
</glyph>
<glyph name="F" format="2">
  <advance width="1126"/>
  <unicode hex="0046"/>
  <note>
F
</note>
  <anchor x="548" y="0" name="bottom"/>
  <anchor x="548" y="1435" name="top"/>
  <outline>
    <contour>
      <point x="172" y="0" type="line"/>
      <point x="345" y="0" type="line"/>
      <point x="345" y="694" type="line"/>
      <point x="250" y="669" type="line"/>
      <point x="1079" y="669" type="line"/>
      <point x="1079" y="687" type="line"/>
      <point x="243" y="687" type="line"/>
      <point x="345" y="670" type="line"/>
      <point x="345" y="1427" type="line"/>
      <point x="221" y="1420" type="line"/>
      <point x="1079" y="1420" type="line"/>
      <point x="1079" y="1438" type="line"/>
      <point x="172" y="1438" type="line"/>
    </contour>
  </outline>
</glyph>
<glyph name="H" format="2">
  <advance width="1599"/>
  <unicode hex="0048"/>
  <note>
H
</note>
  <anchor x="797" y="0" name="bottom"/>
  <anchor x="797" y="715" name="center"/>
  <anchor x="797" y="1435" name="top"/>
  <anchor x="58" y="1435" name="topleft"/>
  <outline>
    <contour>
      <point x="172" y="0" type="line"/>
      <point x="355" y="0" type="line"/>
      <point x="355" y="742" type="line"/>
      <point x="253" y="713" type="line"/>
      <point x="1346" y="713" type="line"/>
      <point x="1244" y="742" type="line"/>
      <point x="1244" y="0" type="line"/>
      <point x="1427" y="0" type="line"/>
      <point x="1427" y="1438" type="line"/>
      <point x="1244" y="1438" type="line"/>
      <point x="1244" y="702" type="line"/>
      <point x="1346" y="731" type="line"/>
      <point x="253" y="731" type="line"/>
      <point x="355" y="702" type="line"/>
      <point x="355" y="1438" type="line"/>
      <point x="172" y="1438" type="line"/>
    </contour>
  </outline>
</glyph>
<glyph name="I" format="2">
  <advance width="514"/>
  <unicode hex="0049"/>
  <note>
I
</note>
  <anchor x="257" y="0" name="bottom"/>
  <anchor x="262" y="0" name="ogonek"/>
  <anchor x="257" y="1435" name="top"/>
  <anchor x="21" y="1435" name="topleft"/>
  <outline>
    <contour>
      <point x="172" y="0" type="line"/>
      <point x="342" y="0" type="line"/>
      <point x="342" y="1438" type="line"/>
      <point x="172" y="1438" type="line"/>
    </contour>
  </outline>
</glyph>
<glyph name="J" format="2">
  <advance width="797"/>
  <unicode hex="004A"/>
  <note>
J
</note>
  <anchor x="391" y="0" name="bottom"/>
  <anchor x="451" y="1435" name="top"/>
  <outline>
    <contour>
      <point x="30" y="-44" type="line"/>
      <point x="87" y="-110"/>
      <point x="164" y="-160"/>
      <point x="303" y="-160" type="curve" smooth="yes"/>
      <point x="502" y="-160"/>
      <point x="633" y="4"/>
      <point x="633" y="313" type="curve" smooth="yes"/>
      <point x="633" y="1438" type="line"/>
      <point x="450" y="1438" type="line"/>
      <point x="450" y="250" type="line" smooth="yes"/>
      <point x="450" y="-61"/>
      <point x="372" y="-138"/>
      <point x="279" y="-138" type="curve" smooth="yes"/>
      <point x="191" y="-138"/>
      <point x="123" y="-71"/>
      <point x="60" y="48" type="curve"/>
    </contour>
  </outline>
</glyph>
<glyph name="K" format="2">
  <advance width="1374"/>
  <unicode hex="004B"/>
  <note>
K
</note>
  <anchor x="684" y="0" name="bottom"/>
  <anchor x="684" y="1435" name="top"/>
  <outline>
    <contour>
      <point x="172" y="0" type="line"/>
      <point x="355" y="0" type="line"/>
      <point x="355" y="1438" type="line"/>
      <point x="172" y="1438" type="line"/>
    </contour>
    <contour>
      <point x="305" y="387" type="line"/>
      <point x="1212" y="1438" type="line"/>
      <point x="1150" y="1438" type="line"/>
      <point x="296" y="451" type="line"/>
    </contour>
    <contour>
      <point x="1131" y="0" type="line"/>
      <point x="1346" y="0" type="line"/>
      <point x="641" y="815" type="line"/>
      <point x="541" y="685" type="line"/>
    </contour>
  </outline>
</glyph>
<glyph name="M" format="2">
  <advance width="1770"/>
  <unicode hex="004D"/>
  <note>
M
</note>
  <anchor x="885" y="0" name="bottom"/>
  <anchor x="885" y="1435" name="top"/>
  <outline>
    <contour>
      <point x="172" y="0" type="line"/>
      <point x="208" y="0" type="line"/>
      <point x="208" y="1402" type="line"/>
      <point x="197" y="1380" type="line"/>
      <point x="840" y="14" type="line"/>
      <point x="1463" y="1401" type="line"/>
      <point x="1384" y="1403" type="line"/>
      <point x="1384" y="0" type="line"/>
      <point x="1598" y="0" type="line"/>
      <point x="1598" y="1438" type="line"/>
      <point x="1391" y="1438" type="line"/>
      <point x="861" y="235" type="line"/>
      <point x="928" y="278" type="line"/>
      <point x="397" y="1438" type="line"/>
      <point x="172" y="1438" type="line"/>
    </contour>
  </outline>
</glyph>
<glyph name="N" format="2">
  <advance width="1512"/>
  <unicode hex="004E"/>
  <note>
N
</note>
  <anchor x="756" y="0" name="bottom"/>
  <anchor x="756" y="1435" name="top"/>
  <outline>
    <contour>
      <point x="172" y="0" type="line"/>
      <point x="208" y="0" type="line"/>
      <point x="208" y="1358" type="line"/>
      <point x="182" y="1220" type="line"/>
      <point x="1320" y="-20" type="line"/>
      <point x="1340" y="-20" type="line"/>
      <point x="1340" y="1438" type="line"/>
      <point x="1304" y="1438" type="line"/>
      <point x="1304" y="100" type="line"/>
      <point x="1328" y="212" type="line"/>
      <point x="188" y="1453" type="line"/>
      <point x="172" y="1453" type="line"/>
    </contour>
  </outline>
</glyph>
<glyph name="O" format="2">
  <advance width="1611"/>
  <unicode hex="004F"/>
  <note>
O
</note>
  <anchor x="806" y="0" name="bottom"/>
  <anchor x="806" y="715" name="center"/>
  <anchor x="976" y="0" name="ogonek"/>
  <anchor x="806" y="1430" name="top"/>
  <anchor x="28" y="1430" name="topleft"/>
  <anchor x="1423" y="1430" name="topright"/>
  <outline>
    <contour>
      <point x="813" y="-34" type="curve" smooth="yes"/>
      <point x="1232" y="-26"/>
      <point x="1537" y="310"/>
      <point x="1533" y="727" type="curve" smooth="yes"/>
      <point x="1529" y="1147"/>
      <point x="1213" y="1475"/>
      <point x="800" y="1467" type="curve" smooth="yes"/>
      <point x="385" y="1460"/>
      <point x="74" y="1119"/>
      <point x="78" y="700" type="curve" smooth="yes"/>
      <point x="82" y="284"/>
      <point x="393" y="-41"/>
    </contour>
    <contour>
      <point x="812" y="-12" type="curve" smooth="yes"/>
      <point x="527" y="-16"/>
      <point x="278" y="300"/>
      <point x="274" y="707" type="curve" smooth="yes"/>
      <point x="271" y="1116"/>
      <point x="518" y="1441"/>
      <point x="800" y="1445" type="curve" smooth="yes"/>
      <point x="1081" y="1449"/>
      <point x="1334" y="1132"/>
      <point x="1337" y="723" type="curve" smooth="yes"/>
      <point x="1341" y="317"/>
      <point x="1098" y="-8"/>
    </contour>
  </outline>
</glyph>
<glyph name="Q" format="2">
  <advance width="1611"/>
  <unicode hex="0051"/>
  <note>
Q
</note>
  <anchor x="802" y="0" name="bottom"/>
  <anchor x="802" y="1430" name="top"/>
  <anchor x="806" y="715.5025" name="center"/>
  <anchor x="976" y="-2.0" name="ogonek"/>
  <anchor x="28" y="1433.005" name="topleft"/>
  <anchor x="1423" y="1433.005" name="topright"/>
  <outline>
    <contour>
      <point x="1096" y="-401" type="curve" smooth="yes"/>
      <point x="1172" y="-401"/>
      <point x="1210" y="-387"/>
      <point x="1254" y="-351" type="curve"/>
      <point x="1206" y="-371"/>
      <point x="1167" y="-376"/>
      <point x="1129" y="-376" type="curve" smooth="yes"/>
      <point x="943" y="-376"/>
      <point x="883" y="-306"/>
      <point x="883" y="-179" type="curve" smooth="yes"/>
      <point x="883" y="-22" type="line"/>
      <point x="710" y="-22" type="line"/>
      <point x="710" y="-160" type="line" smooth="yes"/>
      <point x="710" y="-250"/>
      <point x="778" y="-332"/>
      <point x="848" y="-362" type="curve" smooth="yes"/>
      <point x="917" y="-392"/>
      <point x="993" y="-401"/>
    </contour>
    <component base="O" yScale="1.0035" yOffset="-2"/>
  </outline>
</glyph>
<glyph name="S" format="2">
  <advance width="1193"/>
  <unicode hex="0053"/>
  <note>
S
</note>
  <anchor x="596" y="0" name="bottom"/>
  <anchor x="596" y="1435" name="top"/>
  <outline>
    <contour>
      <point x="570" y="-35" type="curve" smooth="yes"/>
      <point x="915" y="-35"/>
      <point x="1121" y="111"/>
      <point x="1121" y="409" type="curve" smooth="yes"/>
      <point x="1121" y="669"/>
      <point x="952" y="771"/>
      <point x="618" y="867" type="curve" smooth="yes"/>
      <point x="452" y="923"/>
      <point x="285" y="1000"/>
      <point x="285" y="1155" type="curve" smooth="yes"/>
      <point x="285" y="1324"/>
      <point x="399" y="1447"/>
      <point x="598" y="1447" type="curve" smooth="yes"/>
      <point x="769" y="1447"/>
      <point x="946" y="1345"/>
      <point x="977" y="1188" type="curve"/>
      <point x="1068" y="1197" type="line"/>
      <point x="1036" y="1352"/>
      <point x="859" y="1472"/>
      <point x="606" y="1472" type="curve" smooth="yes"/>
      <point x="303" y="1472"/>
      <point x="116" y="1303"/>
      <point x="117" y="1095" type="curve" smooth="yes"/>
      <point x="118" y="894"/>
      <point x="267" y="780"/>
      <point x="550" y="691" type="curve" smooth="yes"/>
      <point x="804" y="610"/>
      <point x="953" y="533"/>
      <point x="953" y="341" type="curve" smooth="yes"/>
      <point x="953" y="123"/>
      <point x="838" y="-9"/>
      <point x="582" y="-9" type="curve" smooth="yes"/>
      <point x="335" y="-9"/>
      <point x="189" y="110"/>
      <point x="155" y="337" type="curve"/>
      <point x="63" y="324" type="line"/>
      <point x="94" y="83"/>
      <point x="262" y="-35"/>
    </contour>
  </outline>
</glyph>
<glyph name="T" format="2">
  <advance width="1224"/>
  <unicode hex="0054"/>
  <note>
T
</note>
  <anchor x="612" y="0" name="bottom"/>
  <anchor x="612" y="715" name="center"/>
  <anchor x="612" y="1435" name="top"/>
  <outline>
    <contour>
      <point x="521" y="0" type="line"/>
      <point x="704" y="0" type="line"/>
      <point x="704" y="1433" type="line"/>
      <point x="553" y="1420" type="line"/>
      <point x="1197" y="1420" type="line"/>
      <point x="1197" y="1438" type="line"/>
      <point x="27" y="1438" type="line"/>
      <point x="27" y="1420" type="line"/>
      <point x="672" y="1420" type="line"/>
      <point x="521" y="1433" type="line"/>
    </contour>
  </outline>
</glyph>
<glyph name="V" format="2">
  <advance width="1377"/>
  <unicode hex="0056"/>
  <note>
V
</note>
  <anchor x="689" y="0" name="bottom"/>
  <anchor x="689" y="1435" name="top"/>
  <outline>
    <contour>
      <point x="706" y="-49" type="line"/>
      <point x="1339" y="1437" type="line"/>
      <point x="1293" y="1437" type="line"/>
      <point x="737" y="136" type="line"/>
      <point x="789" y="194" type="line"/>
      <point x="228" y="1438" type="line"/>
      <point x="37" y="1437" type="line"/>
    </contour>
  </outline>
</glyph>
<glyph name="X" format="2">
  <advance width="1245"/>
  <unicode hex="0058"/>
  <note>
X
</note>
  <anchor x="619" y="0" name="bottom"/>
  <anchor x="619" y="1435" name="top"/>
  <outline>
    <contour>
      <point x="997" y="1" type="line"/>
      <point x="1205" y="0" type="line"/>
      <point x="248" y="1437" type="line"/>
      <point x="52" y="1437" type="line"/>
    </contour>
    <contour>
      <point x="56" y="0" type="line"/>
      <point x="118" y="0" type="line"/>
      <point x="621" y="710" type="line"/>
      <point x="586" y="759" type="line"/>
    </contour>
    <contour>
      <point x="640" y="710" type="line"/>
      <point x="1145" y="1437" type="line"/>
      <point x="1078" y="1438" type="line"/>
      <point x="605" y="759" type="line"/>
    </contour>
  </outline>
</glyph>
<glyph name="Y" format="2">
  <advance width="1192"/>
  <unicode hex="0059"/>
  <note>
Y
</note>
  <anchor x="605" y="0" name="bottom"/>
  <anchor x="595" y="1435" name="top"/>
  <anchor x="12" y="1435" name="topleft"/>
  <outline>
    <contour>
      <point x="511" y="0" type="line"/>
      <point x="694" y="0" type="line"/>
      <point x="694" y="619" type="line"/>
      <point x="1159" y="1438" type="line"/>
      <point x="1094" y="1438" type="line"/>
      <point x="626" y="613" type="line"/>
      <point x="692" y="663" type="line"/>
      <point x="246" y="1438" type="line"/>
      <point x="32" y="1438" type="line"/>
      <point x="511" y="601" type="line"/>
    </contour>
  </outline>
</glyph>
<glyph name="bracketright" format="2">
  <advance width="591"/>
  <unicode hex="005D"/>
  <note>
bracketright
</note>
  <outline>
    <contour>
      <point x="42" y="-410" type="line"/>
      <point x="423" y="-410" type="line"/>
      <point x="423" y="1470" type="line"/>
      <point x="42" y="1470" type="line"/>
      <point x="42" y="1395" type="line"/>
      <point x="303" y="1395" type="line"/>
      <point x="303" y="-335" type="line"/>
      <point x="42" y="-335" type="line"/>
    </contour>
  </outline>
</glyph>
<glyph name="asciicircum" format="2">
  <advance width="990"/>
  <unicode hex="005E"/>
  <note>
asciicircum
</note>
  <outline>
    <contour>
      <point x="93" y="845" type="line"/>
      <point x="217" y="845" type="line"/>
      <point x="509" y="1367" type="line"/>
      <point x="479" y="1367" type="line"/>
      <point x="772" y="845" type="line"/>
      <point x="897" y="845" type="line"/>
      <point x="556" y="1453" type="line"/>
      <point x="433" y="1453" type="line"/>
    </contour>
  </outline>
</glyph>
<glyph name="a" format="2">
  <advance width="1203"/>
  <unicode hex="0061"/>
  <note>
a
</note>
  <anchor x="564" y="0" name="bottom"/>
  <anchor x="1012" y="0" name="ogonek"/>
  <anchor x="564" y="914" name="top"/>
  <outline>
    <contour>
      <point x="530" y="-30" type="curve" smooth="yes"/>
      <point x="727" y="-30"/>
      <point x="879" y="64"/>
      <point x="911" y="330" type="curve"/>
      <point x="898" y="258" type="line"/>
      <point x="898" y="0" type="line"/>
      <point x="1076" y="0" type="line"/>
      <point x="1076" y="921" type="line"/>
      <point x="898" y="921" type="line"/>
      <point x="898" y="704" type="line"/>
      <point x="920" y="573" type="line"/>
      <point x="889" y="820"/>
      <point x="756" y="955"/>
      <point x="539" y="955" type="curve" smooth="yes"/>
      <point x="242" y="955"/>
      <point x="54" y="763"/>
      <point x="51" y="458" type="curve" smooth="yes"/>
      <point x="48" y="156"/>
      <point x="249" y="-30"/>
    </contour>
    <contour>
      <point x="556" y="-7" type="curve" smooth="yes"/>
      <point x="353" y="-7"/>
      <point x="228" y="199"/>
      <point x="230" y="463" type="curve" smooth="yes"/>
      <point x="232" y="745"/>
      <point x="361" y="933"/>
      <point x="554" y="933" type="curve" smooth="yes"/>
      <point x="766" y="933"/>
      <point x="886" y="752"/>
      <point x="884" y="458" type="curve" smooth="yes"/>
      <point x="882" y="162"/>
      <point x="757" y="-7"/>
    </contour>
  </outline>
</glyph>
<glyph name="b" format="2">
  <advance width="1173"/>
  <unicode hex="0062"/>
  <note>
b
</note>
  <anchor x="601" y="0" name="bottom"/>
  <anchor x="601" y="1519" name="top"/>
  <outline>
    <contour>
      <point x="666" y="-30" type="curve" smooth="yes"/>
      <point x="943" y="-30"/>
      <point x="1123" y="167"/>
      <point x="1123" y="457" type="curve" smooth="yes"/>
      <point x="1123" y="756"/>
      <point x="931" y="949"/>
      <point x="659" y="949" type="curve" smooth="yes"/>
      <point x="460" y="949"/>
      <point x="353" y="847"/>
      <point x="294" y="677" type="curve"/>
      <point x="342" y="644" type="line"/>
      <point x="342" y="1514" type="line"/>
      <point x="140" y="1514" type="line"/>
      <point x="140" y="0" type="line"/>
      <point x="340" y="0" type="line"/>
      <point x="340" y="264" type="line"/>
      <point x="287" y="236" type="line"/>
      <point x="348" y="68"/>
      <point x="470" y="-30"/>
    </contour>
    <contour>
      <point x="640" y="13" type="curve" smooth="yes"/>
      <point x="468" y="13"/>
      <point x="339" y="205"/>
      <point x="339" y="455" type="curve" smooth="yes"/>
      <point x="339" y="713"/>
      <point x="475" y="907"/>
      <point x="643" y="907" type="curve" smooth="yes"/>
      <point x="807" y="907"/>
      <point x="916" y="728"/>
      <point x="916" y="459" type="curve" smooth="yes"/>
      <point x="916" y="186"/>
      <point x="804" y="13"/>
    </contour>
  </outline>
</glyph>
<glyph name="c" format="2">
  <advance width="943"/>
  <unicode hex="0063"/>
  <note>
c
</note>
  <anchor x="475" y="-10" name="bottom"/>
  <anchor x="535" y="937" name="top"/>
  <outline>
    <contour>
      <point x="553" y="-30" type="curve" smooth="yes"/>
      <point x="671" y="-29"/>
      <point x="777" y="3"/>
      <point x="893" y="104" type="curve"/>
      <point x="893" y="203" type="line"/>
      <point x="812" y="66"/>
      <point x="681" y="-7"/>
      <point x="558" y="-8" type="curve" smooth="yes"/>
      <point x="363" y="-9"/>
      <point x="243" y="165"/>
      <point x="243" y="460" type="curve" smooth="yes"/>
      <point x="243" y="746"/>
      <point x="360" y="930"/>
      <point x="548" y="931" type="curve" smooth="yes"/>
      <point x="673" y="932"/>
      <point x="810" y="852"/>
      <point x="893" y="726" type="curve"/>
      <point x="893" y="830" type="line"/>
      <point x="777" y="925"/>
      <point x="668" y="955"/>
      <point x="553" y="954" type="curve" smooth="yes"/>
      <point x="248" y="951"/>
      <point x="51" y="753"/>
      <point x="51" y="453" type="curve" smooth="yes"/>
      <point x="51" y="155"/>
      <point x="244" y="-33"/>
    </contour>
  </outline>
</glyph>
<glyph name="e" format="2">
  <advance width="1091"/>
  <unicode hex="0065"/>
  <note>
e
</note>
  <anchor x="553" y="-10" name="bottom"/>
  <anchor x="716" y="5" name="ogonek"/>
  <anchor x="553" y="917" name="top"/>
  <outline>
    <contour>
      <point x="550" y="-30" type="curve" smooth="yes"/>
      <point x="790" y="-28"/>
      <point x="958" y="80"/>
      <point x="1023" y="262" type="curve"/>
      <point x="939" y="262" type="line"/>
      <point x="860" y="84"/>
      <point x="714" y="-7"/>
      <point x="555" y="-8" type="curve" smooth="yes"/>
      <point x="364" y="-9"/>
      <point x="239" y="161"/>
      <point x="239" y="456" type="curve" smooth="yes"/>
      <point x="239" y="753"/>
      <point x="366" y="929"/>
      <point x="555" y="931" type="curve" smooth="yes"/>
      <point x="734" y="932"/>
      <point x="861" y="774"/>
      <point x="874" y="494" type="curve"/>
      <point x="1050" y="494" type="line"/>
      <point x="1055" y="789"/>
      <point x="832" y="957"/>
      <point x="550" y="954" type="curve" smooth="yes"/>
      <point x="241" y="951"/>
      <point x="52" y="739"/>
      <point x="52" y="448" type="curve" smooth="yes"/>
      <point x="52" y="150"/>
      <point x="227" y="-32"/>
    </contour>
    <contour>
      <point x="227" y="494" type="line"/>
      <point x="953" y="494" type="line"/>
      <point x="953" y="514" type="line"/>
      <point x="216" y="514" type="line"/>
    </contour>
  </outline>
</glyph>
<glyph name="f" format="2">
  <advance width="537"/>
  <unicode hex="0066"/>
  <note>
f
</note>
  <anchor x="277" y="0" name="bottom"/>
  <anchor x="277" y="1519" name="top"/>
  <outline>
    <contour>
      <point x="171" y="0" type="line"/>
      <point x="350" y="0" type="line"/>
      <point x="350" y="1049" type="line" smooth="yes"/>
      <point x="350" y="1313"/>
      <point x="313" y="1524"/>
      <point x="413" y="1533" type="curve" smooth="yes"/>
      <point x="474" y="1539"/>
      <point x="531" y="1462"/>
      <point x="531" y="1379" type="curve" smooth="yes"/>
      <point x="531" y="1359"/>
      <point x="528" y="1324"/>
      <point x="521" y="1294" type="curve"/>
      <point x="622" y="1314" type="line"/>
      <point x="628" y="1349"/>
      <point x="630" y="1382"/>
      <point x="630" y="1399" type="curve" smooth="yes"/>
      <point x="630" y="1506"/>
      <point x="540" y="1555"/>
      <point x="411" y="1555" type="curve" smooth="yes"/>
      <point x="219" y="1555"/>
      <point x="171" y="1416"/>
      <point x="171" y="1099" type="curve" smooth="yes"/>
    </contour>
    <contour>
      <point x="15" y="900" type="line"/>
      <point x="539" y="900" type="line"/>
      <point x="539" y="920" type="line"/>
      <point x="15" y="920" type="line"/>
    </contour>
  </outline>
</glyph>
<glyph name="g" format="2">
  <advance width="1177"/>
  <unicode hex="0067"/>
  <note>
g
</note>
  <anchor x="584" y="-526" name="bottom"/>
  <anchor x="534" y="922" name="top"/>
  <outline>
    <contour>
      <point x="527" y="-574" type="curve" smooth="yes"/>
      <point x="956" y="-574"/>
      <point x="1037" y="-304"/>
      <point x="1038" y="103" type="curve" smooth="yes"/>
      <point x="1040" y="921" type="line"/>
      <point x="863" y="921" type="line"/>
      <point x="863" y="652" type="line"/>
      <point x="916" y="661" type="line"/>
      <point x="858" y="838"/>
      <point x="715" y="947"/>
      <point x="516" y="947" type="curve" smooth="yes"/>
      <point x="244" y="947"/>
      <point x="51" y="745"/>
      <point x="51" y="450" type="curve" smooth="yes"/>
      <point x="51" y="155"/>
      <point x="245" y="-43"/>
      <point x="519" y="-43" type="curve" smooth="yes"/>
      <point x="718" y="-43"/>
      <point x="859" y="62"/>
      <point x="917" y="235" type="curve"/>
      <point x="865" y="267" type="line"/>
      <point x="865" y="70" type="line" smooth="yes"/>
      <point x="865" y="-326"/>
      <point x="786" y="-553"/>
      <point x="507" y="-553" type="curve" smooth="yes"/>
      <point x="291" y="-553"/>
      <point x="223" y="-412"/>
      <point x="204" y="-262" type="curve"/>
      <point x="60" y="-262" type="line"/>
      <point x="115" y="-495"/>
      <point x="296" y="-574"/>
    </contour>
    <contour>
      <point x="535" y="-20" type="curve" smooth="yes"/>
      <point x="369" y="-20"/>
      <point x="238" y="188"/>
      <point x="238" y="457" type="curve" smooth="yes"/>
      <point x="238" y="730"/>
      <point x="373" y="924"/>
      <point x="532" y="924" type="curve" smooth="yes"/>
      <point x="702" y="924"/>
      <point x="827" y="701"/>
      <point x="827" y="448" type="curve" smooth="yes"/>
      <point x="827" y="193"/>
      <point x="699" y="-20"/>
    </contour>
  </outline>
</glyph>
<glyph name="h" format="2">
  <advance width="1141"/>
  <unicode hex="0068"/>
  <note>
h
</note>
  <anchor x="598" y="0" name="bottom"/>
  <anchor x="224" y="1256" name="center"/>
  <anchor x="598" y="1514" name="top"/>
  <outline>
    <contour>
      <point x="140" y="0" type="line"/>
      <point x="317" y="0" type="line"/>
      <point x="317" y="632" type="line" smooth="yes"/>
      <point x="317" y="812"/>
      <point x="498" y="923"/>
      <point x="646" y="923" type="curve" smooth="yes"/>
      <point x="807" y="923"/>
      <point x="865" y="780"/>
      <point x="865" y="543" type="curve" smooth="yes"/>
      <point x="865" y="0" type="line"/>
      <point x="1042" y="0" type="line"/>
      <point x="1042" y="572" type="line" smooth="yes"/>
      <point x="1042" y="809"/>
      <point x="889" y="947"/>
      <point x="666" y="947" type="curve" smooth="yes"/>
      <point x="467" y="947"/>
      <point x="306" y="836"/>
      <point x="302" y="608" type="curve"/>
      <point x="316" y="576" type="line"/>
      <point x="317" y="1514" type="line"/>
      <point x="140" y="1514" type="line"/>
    </contour>
  </outline>
</glyph>
<glyph name="k" format="2">
  <advance width="980"/>
  <unicode hex="006B"/>
  <note>
k
</note>
  <guideline x="547" y="686" angle="49.4608"/>
  <anchor x="513" y="0" name="bottom"/>
  <anchor x="513" y="1514" name="top"/>
  <outline>
    <contour>
      <point x="140" y="0" type="line"/>
      <point x="320" y="0" type="line"/>
      <point x="320" y="1514" type="line"/>
      <point x="140" y="1514" type="line"/>
    </contour>
    <contour>
      <point x="816" y="0" type="line"/>
      <point x="979" y="0" type="line"/>
      <point x="489" y="586" type="line"/>
      <point x="395" y="499" type="line"/>
    </contour>
    <contour>
      <point x="252" y="324" type="line"/>
      <point x="867" y="921" type="line"/>
      <point x="826" y="921" type="line"/>
      <point x="286" y="405" type="line"/>
    </contour>
  </outline>
</glyph>
<glyph name="l" format="2">
  <advance width="482"/>
  <unicode hex="006C"/>
  <note>
l
</note>
  <anchor x="221" y="0" name="bottom"/>
  <anchor x="241" y="780" name="center"/>
  <anchor x="539" y="783" name="dot"/>
  <anchor x="316" y="1522" name="top"/>
  <anchor x="461" y="1489" name="topright"/>
  <outline>
    <contour>
      <point x="140" y="0" type="line"/>
      <point x="342" y="0" type="line"/>
      <point x="342" y="1514" type="line"/>
      <point x="140" y="1514" type="line"/>
    </contour>
  </outline>
</glyph>
<glyph name="m" format="2">
  <advance width="1808"/>
  <unicode hex="006D"/>
  <note>
m
</note>
  <anchor x="907" y="0" name="bottom"/>
  <anchor x="907" y="917" name="top"/>
  <outline>
    <contour>
      <point x="127" y="0" type="line"/>
      <point x="305" y="0" type="line"/>
      <point x="305" y="627" type="line" smooth="yes"/>
      <point x="305" y="801"/>
      <point x="474" y="923"/>
      <point x="623" y="923" type="curve" smooth="yes"/>
      <point x="777" y="923"/>
      <point x="830" y="780"/>
      <point x="830" y="543" type="curve" smooth="yes"/>
      <point x="830" y="0" type="line"/>
      <point x="1008" y="0" type="line"/>
      <point x="1007" y="627" type="line" smooth="yes"/>
      <point x="1007" y="796"/>
      <point x="1171" y="923"/>
      <point x="1320" y="923" type="curve" smooth="yes"/>
      <point x="1475" y="923"/>
      <point x="1531" y="780"/>
      <point x="1531" y="543" type="curve" smooth="yes"/>
      <point x="1531" y="0" type="line"/>
      <point x="1709" y="0" type="line"/>
      <point x="1709" y="572" type="line" smooth="yes"/>
      <point x="1709" y="809"/>
      <point x="1550" y="947"/>
      <point x="1340" y="947" type="curve" smooth="yes"/>
      <point x="1155" y="947"/>
      <point x="991" y="817"/>
      <point x="987" y="608" type="curve"/>
      <point x="1002" y="619" type="line"/>
      <point x="990" y="824"/>
      <point x="840" y="947"/>
      <point x="642" y="947" type="curve" smooth="yes"/>
      <point x="468" y="947"/>
      <point x="313" y="838"/>
      <point x="291" y="647" type="curve"/>
      <point x="304" y="624" type="line"/>
      <point x="305" y="921" type="line"/>
      <point x="127" y="921" type="line"/>
    </contour>
  </outline>
</glyph>
<glyph name="o" format="2">
  <advance width="1111"/>
  <unicode hex="006F"/>
  <note>
o
</note>
  <anchor x="556" y="0" name="bottom"/>
  <anchor x="556" y="457" name="center"/>
  <anchor x="696" y="0" name="ogonek"/>
  <anchor x="556" y="914" name="top"/>
  <anchor x="1077" y="914" name="topright"/>
  <outline>
    <contour>
      <point x="553" y="-30" type="curve" smooth="yes"/>
      <point x="859" y="-27"/>
      <point x="1061" y="168"/>
      <point x="1061" y="463" type="curve" smooth="yes"/>
      <point x="1061" y="766"/>
      <point x="867" y="957"/>
      <point x="553" y="954" type="curve" smooth="yes"/>
      <point x="251" y="951"/>
      <point x="51" y="750"/>
      <point x="51" y="453" type="curve" smooth="yes"/>
      <point x="51" y="153"/>
      <point x="243" y="-33"/>
    </contour>
    <contour>
      <point x="558" y="-8" type="curve" smooth="yes"/>
      <point x="366" y="-9"/>
      <point x="243" y="172"/>
      <point x="243" y="460" type="curve" smooth="yes"/>
      <point x="243" y="757"/>
      <point x="361" y="930"/>
      <point x="548" y="931" type="curve" smooth="yes"/>
      <point x="744" y="933"/>
      <point x="870" y="741"/>
      <point x="870" y="459" type="curve" smooth="yes"/>
      <point x="870" y="153"/>
      <point x="739" y="-7"/>
    </contour>
  </outline>
</glyph>
<glyph name="q" format="2">
  <advance width="1161"/>
  <unicode hex="0071"/>
  <note>
q
</note>
  <anchor x="559" y="0" name="bottom"/>
  <anchor x="559" y="917" name="top"/>
  <outline>
    <contour>
      <point x="832" y="-563" type="line"/>
      <point x="1034" y="-563" type="line"/>
      <point x="1034" y="921" type="line"/>
      <point x="834" y="921" type="line"/>
      <point x="834" y="653" type="line"/>
      <point x="887" y="691" type="line"/>
      <point x="826" y="859"/>
      <point x="702" y="955"/>
      <point x="508" y="955" type="curve" smooth="yes"/>
      <point x="230" y="955"/>
      <point x="51" y="755"/>
      <point x="51" y="465" type="curve" smooth="yes"/>
      <point x="51" y="166"/>
      <point x="241" y="-33"/>
      <point x="515" y="-33" type="curve" smooth="yes"/>
      <point x="713" y="-33"/>
      <point x="821" y="70"/>
      <point x="880" y="240" type="curve"/>
      <point x="832" y="273" type="line"/>
    </contour>
    <contour>
      <point x="531" y="10" type="curve" smooth="yes"/>
      <point x="366" y="10"/>
      <point x="258" y="195"/>
      <point x="258" y="463" type="curve" smooth="yes"/>
      <point x="258" y="737"/>
      <point x="371" y="912"/>
      <point x="534" y="912" type="curve" smooth="yes"/>
      <point x="707" y="912"/>
      <point x="835" y="712"/>
      <point x="835" y="462" type="curve" smooth="yes"/>
      <point x="835" y="204"/>
      <point x="698" y="10"/>
    </contour>
  </outline>
</glyph>
<glyph name="r" format="2">
  <advance width="837"/>
  <unicode hex="0072"/>
  <note>
r
</note>
  <anchor x="176" y="0" name="bottom"/>
  <anchor x="531" y="917" name="top"/>
  <outline>
    <contour>
      <point x="127" y="0" type="line"/>
      <point x="304" y="0" type="line"/>
      <point x="304" y="592" type="line" smooth="yes"/>
      <point x="304" y="752"/>
      <point x="408" y="922"/>
      <point x="545" y="922" type="curve" smooth="yes"/>
      <point x="663" y="922"/>
      <point x="706" y="851"/>
      <point x="706" y="777" type="curve" smooth="yes"/>
      <point x="706" y="728"/>
      <point x="693" y="697"/>
      <point x="678" y="675" type="curve"/>
      <point x="788" y="646" type="line"/>
      <point x="810" y="692"/>
      <point x="821" y="728"/>
      <point x="821" y="762" type="curve" smooth="yes"/>
      <point x="821" y="878"/>
      <point x="715" y="947"/>
      <point x="582" y="947" type="curve" smooth="yes"/>
      <point x="433" y="947"/>
      <point x="324" y="848"/>
      <point x="288" y="621" type="curve"/>
      <point x="304" y="637" type="line"/>
      <point x="304" y="921" type="line"/>
      <point x="127" y="921" type="line"/>
    </contour>
  </outline>
</glyph>
<glyph name="s" format="2">
  <advance width="837"/>
  <unicode hex="0073"/>
  <note>
s
</note>
  <anchor x="387" y="-10" name="bottom"/>
  <anchor x="417" y="921" name="top"/>
  <outline>
    <contour>
      <point x="407" y="-30" type="curve" smooth="yes"/>
      <point x="619" y="-30"/>
      <point x="799" y="53"/>
      <point x="797" y="260" type="curve" smooth="yes"/>
      <point x="795" y="471"/>
      <point x="562" y="541"/>
      <point x="436" y="573" type="curve" smooth="yes"/>
      <point x="285" y="612"/>
      <point x="220" y="654"/>
      <point x="220" y="741" type="curve" smooth="yes"/>
      <point x="220" y="867"/>
      <point x="320" y="930"/>
      <point x="432" y="930" type="curve" smooth="yes"/>
      <point x="554" y="930"/>
      <point x="657" y="853"/>
      <point x="707" y="777" type="curve"/>
      <point x="750" y="831" type="line"/>
      <point x="680" y="914"/>
      <point x="560" y="954"/>
      <point x="433" y="954" type="curve" smooth="yes"/>
      <point x="238" y="954"/>
      <point x="71" y="864"/>
      <point x="72" y="697" type="curve" smooth="yes"/>
      <point x="73" y="544"/>
      <point x="190" y="471"/>
      <point x="366" y="423" type="curve" smooth="yes"/>
      <point x="539" y="375"/>
      <point x="622" y="306"/>
      <point x="622" y="217" type="curve" smooth="yes"/>
      <point x="622" y="27"/>
      <point x="504" y="-5"/>
      <point x="400" y="-5" type="curve" smooth="yes"/>
      <point x="223" y="-5"/>
      <point x="131" y="80"/>
      <point x="85" y="192" type="curve"/>
      <point x="34" y="134" type="line"/>
      <point x="80" y="53"/>
      <point x="198" y="-30"/>
    </contour>
  </outline>
</glyph>
<glyph name="t" format="2">
  <advance width="564"/>
  <unicode hex="0074"/>
  <note>
t
</note>
  <guideline x="514" y="894" angle="270"/>
  <anchor x="329" y="-10" name="bottom"/>
  <anchor x="249" y="621" name="center"/>
  <anchor x="289" y="922" name="top"/>
  <anchor x="500" y="1337" name="topright"/>
  <outline>
    <contour>
      <point x="345" y="-26" type="curve" smooth="yes"/>
      <point x="427" y="-26"/>
      <point x="531" y="2"/>
      <point x="549" y="15" type="curve"/>
      <point x="549" y="50" type="line"/>
      <point x="510" y="28"/>
      <point x="424" y="3"/>
      <point x="381" y="3" type="curve" smooth="yes"/>
      <point x="290" y="3"/>
      <point x="331" y="126"/>
      <point x="331" y="470" type="curve" smooth="yes"/>
      <point x="331" y="900" type="line"/>
      <point x="496" y="900" type="line"/>
      <point x="496" y="920" type="line"/>
      <point x="331" y="920" type="line"/>
      <point x="331" y="1272" type="line"/>
      <point x="291" y="1272" type="line"/>
      <point x="291" y="951"/>
      <point x="175" y="919"/>
      <point x="25" y="920" type="curve"/>
      <point x="25" y="900" type="line"/>
      <point x="154" y="900" type="line"/>
      <point x="154" y="306" type="line" smooth="yes"/>
      <point x="154" y="67"/>
      <point x="198" y="-26"/>
    </contour>
  </outline>
</glyph>
<glyph name="u" format="2">
  <advance width="1117"/>
  <unicode hex="0075"/>
  <note>
u
</note>
  <anchor x="496" y="0" name="bottom"/>
  <anchor x="928" y="0" name="ogonek"/>
  <anchor x="556" y="920" name="top"/>
  <anchor x="1146" y="920" name="topright"/>
  <outline>
    <contour>
      <point x="446" y="-27" type="curve" smooth="yes"/>
      <point x="669" y="-27"/>
      <point x="824" y="93"/>
      <point x="830" y="377" type="curve"/>
      <point x="817" y="371" type="line"/>
      <point x="815" y="0" type="line"/>
      <point x="992" y="0" type="line"/>
      <point x="992" y="921" type="line"/>
      <point x="815" y="921" type="line"/>
      <point x="815" y="409" type="line" smooth="yes"/>
      <point x="815" y="141"/>
      <point x="663" y="-3"/>
      <point x="471" y="-3" type="curve" smooth="yes"/>
      <point x="311" y="-3"/>
      <point x="278" y="134"/>
      <point x="278" y="378" type="curve" smooth="yes"/>
      <point x="278" y="921" type="line"/>
      <point x="101" y="921" type="line"/>
      <point x="101" y="339" type="line" smooth="yes"/>
      <point x="101" y="101"/>
      <point x="221" y="-27"/>
    </contour>
  </outline>
</glyph>
<glyph name="v" format="2">
  <advance width="922"/>
  <unicode hex="0076"/>
  <note>
v
</note>
  <anchor x="461" y="0" name="bottom"/>
  <anchor x="461" y="922" name="top"/>
  <outline>
    <contour>
      <point x="459" y="-26" type="line"/>
      <point x="463" y="-26" type="line"/>
      <point x="912" y="921" type="line"/>
      <point x="873" y="921" type="line"/>
      <point x="491" y="116" type="line"/>
      <point x="538" y="162" type="line"/>
      <point x="177" y="921" type="line"/>
      <point x="9" y="921" type="line"/>
    </contour>
  </outline>
</glyph>
<glyph name="w" format="2">
  <advance width="1464"/>
  <unicode hex="0077"/>
  <note>
w
</note>
  <anchor x="732" y="0" name="bottom"/>
  <anchor x="732" y="922" name="top"/>
  <outline>
    <contour>
      <point x="973" y="-9" type="line"/>
      <point x="1041" y="-9" type="line"/>
      <point x="1453" y="921" type="line"/>
      <point x="1415" y="921" type="line"/>
      <point x="1046" y="92" type="line"/>
      <point x="1084" y="125" type="line"/>
      <point x="728" y="921" type="line"/>
      <point x="560" y="921" type="line"/>
    </contour>
    <contour>
      <point x="424" y="-9" type="line"/>
      <point x="492" y="-9" type="line"/>
      <point x="774" y="627" type="line"/>
      <point x="781" y="730" type="line"/>
      <point x="503" y="104" type="line"/>
      <point x="531" y="132" type="line"/>
      <point x="179" y="921" type="line"/>
      <point x="11" y="921" type="line"/>
    </contour>
    <contour>
      <point x="814" y="681" type="line"/>
      <point x="919" y="921" type="line"/>
      <point x="881" y="921" type="line"/>
      <point x="797" y="729" type="line"/>
    </contour>
  </outline>
</glyph>
<glyph name="x" format="2">
  <advance width="841"/>
  <unicode hex="0078"/>
  <note>
x
</note>
  <guideline x="269" y="259" angle="52"/>
  <anchor x="421" y="0" name="bottom"/>
  <anchor x="421" y="922" name="top"/>
  <outline>
    <contour>
      <point x="633" y="0" type="line"/>
      <point x="816" y="0" type="line"/>
      <point x="225" y="921" type="line"/>
      <point x="42" y="921" type="line"/>
    </contour>
    <contour>
      <point x="28" y="0" type="line"/>
      <point x="74" y="0" type="line"/>
      <point x="389" y="419" type="line"/>
      <point x="396" y="492" type="line"/>
    </contour>
    <contour>
      <point x="433" y="445" type="line"/>
      <point x="788" y="921" type="line"/>
      <point x="741" y="921" type="line"/>
      <point x="442" y="520" type="line"/>
    </contour>
  </outline>
</glyph>
<glyph name="y" format="2">
  <advance width="922"/>
  <unicode hex="0079"/>
  <note>
y
</note>
  <guideline x="199" y="-97" angle="250.777"/>
  <guideline x="222" y="-100" angle="250.777"/>
  <anchor x="601" y="0" name="bottom"/>
  <anchor x="461" y="922" name="top"/>
  <outline>
    <contour>
      <point x="204" y="-552" type="curve" smooth="yes"/>
      <point x="313" y="-552"/>
      <point x="337" y="-465"/>
      <point x="378" y="-345" type="curve" smooth="yes"/>
      <point x="431" y="-193"/>
      <point x="487" y="18"/>
      <point x="563" y="179" type="curve" smooth="yes"/>
      <point x="912" y="921" type="line"/>
      <point x="873" y="921" type="line"/>
      <point x="488" y="108" type="line"/>
      <point x="536" y="166" type="line"/>
      <point x="177" y="921" type="line"/>
      <point x="9" y="921" type="line"/>
      <point x="465" y="-39" type="line"/>
      <point x="476" y="56" type="line"/>
      <point x="347" y="-321" type="line"/>
      <point x="323" y="-392"/>
      <point x="290" y="-516"/>
      <point x="215" y="-528" type="curve"/>
      <point x="161" y="-528"/>
      <point x="120" y="-477"/>
      <point x="125" y="-366" type="curve"/>
      <point x="42" y="-374" type="line"/>
      <point x="47" y="-506"/>
      <point x="129" y="-552"/>
    </contour>
  </outline>
</glyph>
<glyph name="z" format="2">
  <advance width="834"/>
  <unicode hex="007A"/>
  <note>
z
</note>
  <anchor x="417" y="0" name="bottom"/>
  <anchor x="417" y="461" name="center"/>
  <anchor x="417" y="921" name="top"/>
  <outline>
    <contour>
      <point x="20" y="0" type="line"/>
      <point x="787" y="0" type="line"/>
      <point x="786" y="20" type="line"/>
      <point x="107" y="20" type="line"/>
      <point x="181" y="11" type="line"/>
      <point x="810" y="921" type="line"/>
      <point x="57" y="921" type="line"/>
      <point x="58" y="901" type="line"/>
      <point x="724" y="901" type="line"/>
      <point x="651" y="912" type="line"/>
    </contour>
  </outline>
</glyph>
<glyph name="braceleft" format="2">
  <advance width="583"/>
  <unicode hex="007B"/>
  <note>
braceleft
</note>
  <outline>
    <contour>
      <point x="542" y="-408" type="curve"/>
      <point x="542" y="-331" type="line"/>
      <point x="369" y="-349"/>
      <point x="281" y="-233"/>
      <point x="281" y="8" type="curve" smooth="yes"/>
      <point x="281" y="330" type="line" smooth="yes"/>
      <point x="281" y="392"/>
      <point x="234" y="437"/>
      <point x="176" y="478" type="curve"/>
      <point x="235" y="523"/>
      <point x="281" y="565"/>
      <point x="281" y="626" type="curve" smooth="yes"/>
      <point x="281" y="1052" type="line" smooth="yes"/>
      <point x="281" y="1293"/>
      <point x="369" y="1409"/>
      <point x="542" y="1391" type="curve"/>
      <point x="542" y="1468" type="line"/>
      <point x="305" y="1482"/>
      <point x="161" y="1342"/>
      <point x="161" y="1122" type="curve" smooth="yes"/>
      <point x="161" y="626" type="line" smooth="yes"/>
      <point x="161" y="560"/>
      <point x="117" y="514"/>
      <point x="66" y="478" type="curve"/>
      <point x="117" y="442"/>
      <point x="161" y="397"/>
      <point x="161" y="330" type="curve" smooth="yes"/>
      <point x="161" y="-62" type="line" smooth="yes"/>
      <point x="161" y="-282"/>
      <point x="303" y="-421"/>
    </contour>
  </outline>
</glyph>
<glyph name="braceright" format="2">
  <advance width="583"/>
  <unicode hex="007D"/>
  <note>
braceright
</note>
  <outline>
    <contour>
      <point x="41" y="-408" type="line"/>
      <point x="280" y="-421"/>
      <point x="422" y="-282"/>
      <point x="422" y="-62" type="curve" smooth="yes"/>
      <point x="422" y="330" type="line" smooth="yes"/>
      <point x="422" y="397"/>
      <point x="466" y="442"/>
      <point x="518" y="478" type="curve"/>
      <point x="466" y="514"/>
      <point x="422" y="560"/>
      <point x="422" y="626" type="curve" smooth="yes"/>
      <point x="422" y="1122" type="line" smooth="yes"/>
      <point x="422" y="1342"/>
      <point x="279" y="1482"/>
      <point x="41" y="1468" type="curve"/>
      <point x="41" y="1391" type="line"/>
      <point x="215" y="1409"/>
      <point x="302" y="1293"/>
      <point x="302" y="1052" type="curve" smooth="yes"/>
      <point x="302" y="626" type="line" smooth="yes"/>
      <point x="302" y="565"/>
      <point x="348" y="523"/>
      <point x="407" y="478" type="curve"/>
      <point x="350" y="437"/>
      <point x="302" y="392"/>
      <point x="302" y="330" type="curve" smooth="yes"/>
      <point x="302" y="8" type="line" smooth="yes"/>
      <point x="302" y="-233"/>
      <point x="215" y="-349"/>
      <point x="41" y="-331" type="curve"/>
    </contour>
  </outline>
</glyph>
<glyph name="Euro" format="2">
  <advance width="1476"/>
  <unicode hex="0080"/>
  <note>
Euro
</note>
  <outline>
    <contour>
      <point x="884" y="-30" type="curve" smooth="yes"/>
      <point x="1141" y="-30"/>
      <point x="1297" y="116"/>
      <point x="1368" y="300" type="curve"/>
      <point x="1218" y="300" type="line"/>
      <point x="1127" y="112"/>
      <point x="996" y="19"/>
      <point x="891" y="19" type="curve" smooth="yes"/>
      <point x="636" y="19"/>
      <point x="435" y="331"/>
      <point x="435" y="711" type="curve" smooth="yes"/>
      <point x="435" y="1102"/>
      <point x="636" y="1402"/>
      <point x="890" y="1402" type="curve" smooth="yes"/>
      <point x="991" y="1402"/>
      <point x="1130" y="1305"/>
      <point x="1219" y="1116" type="curve"/>
      <point x="1367" y="1116" type="line"/>
      <point x="1301" y="1305"/>
      <point x="1134" y="1450"/>
      <point x="884" y="1450" type="curve" smooth="yes"/>
      <point x="509" y="1450"/>
      <point x="248" y="1149"/>
      <point x="248" y="710" type="curve"/>
      <point x="258" y="248"/>
      <point x="512" y="-30"/>
    </contour>
    <contour>
      <point x="93" y="527" type="line"/>
      <point x="982" y="527" type="line"/>
      <point x="993" y="573" type="line"/>
      <point x="103" y="573" type="line"/>
    </contour>
    <contour>
      <point x="141" y="828" type="line"/>
      <point x="1030" y="828" type="line"/>
      <point x="1041" y="874" type="line"/>
      <point x="151" y="874" type="line"/>
    </contour>
  </outline>
</glyph>
<glyph name="currency" format="2">
  <advance width="1284"/>
  <unicode hex="00A4"/>
  <note>
currency
</note>
  <outline>
    <contour>
      <point x="207" y="175" type="line"/>
      <point x="397" y="369" type="line"/>
      <point x="466" y="316"/>
      <point x="552" y="285"/>
      <point x="645" y="285" type="curve" smooth="yes"/>
      <point x="737" y="285"/>
      <point x="822" y="315"/>
      <point x="890" y="366" type="curve"/>
      <point x="1079" y="175" type="line"/>
      <point x="1153" y="251" type="line"/>
      <point x="966" y="442" type="line"/>
      <point x="1022" y="511"/>
      <point x="1055" y="599"/>
      <point x="1055" y="695" type="curve" smooth="yes"/>
      <point x="1055" y="792"/>
      <point x="1021" y="881"/>
      <point x="965" y="950" type="curve"/>
      <point x="1153" y="1142" type="line"/>
      <point x="1077" y="1219" type="line"/>
      <point x="888" y="1026" type="line"/>
      <point x="820" y="1076"/>
      <point x="736" y="1106"/>
      <point x="645" y="1106" type="curve" smooth="yes"/>
      <point x="551" y="1106"/>
      <point x="465" y="1075"/>
      <point x="397" y="1022" type="curve"/>
      <point x="205" y="1219" type="line"/>
      <point x="128" y="1142" type="line"/>
      <point x="320" y="946" type="line"/>
      <point x="266" y="877"/>
      <point x="234" y="790"/>
      <point x="234" y="695" type="curve" smooth="yes"/>
      <point x="234" y="600"/>
      <point x="267" y="513"/>
      <point x="321" y="444" type="curve"/>
      <point x="131" y="251" type="line"/>
    </contour>
    <contour>
      <point x="645" y="381" type="curve" smooth="yes"/>
      <point x="471" y="381"/>
      <point x="330" y="521"/>
      <point x="330" y="695" type="curve" smooth="yes"/>
      <point x="330" y="869"/>
      <point x="471" y="1010"/>
      <point x="645" y="1010" type="curve" smooth="yes"/>
      <point x="819" y="1010"/>
      <point x="959" y="869"/>
      <point x="959" y="695" type="curve" smooth="yes"/>
      <point x="959" y="521"/>
      <point x="819" y="381"/>
    </contour>
  </outline>
</glyph>
<glyph name="section" format="2">
  <advance width="1141"/>
  <unicode hex="00A7"/>
  <note>
section
</note>
  <outline>
    <contour>
      <point x="548" y="-449" type="curve" smooth="yes"/>
      <point x="771" y="-449"/>
      <point x="973" y="-346"/>
      <point x="971" y="-145" type="curve" smooth="yes"/>
      <point x="970" y="37"/>
      <point x="803" y="130"/>
      <point x="602" y="187" type="curve"/>
      <point x="599" y="175" type="line"/>
      <point x="854" y="159"/>
      <point x="1036" y="294"/>
      <point x="1034" y="515" type="curve" smooth="yes"/>
      <point x="1033" y="690"/>
      <point x="855" y="792"/>
      <point x="606" y="884" type="curve" smooth="yes"/>
      <point x="446" y="943"/>
      <point x="354" y="1029"/>
      <point x="353" y="1176" type="curve" smooth="yes"/>
      <point x="352" y="1295"/>
      <point x="433" y="1460"/>
      <point x="588" y="1460" type="curve" smooth="yes"/>
      <point x="721" y="1460"/>
      <point x="809" y="1344"/>
      <point x="808" y="1160" type="curve"/>
      <point x="974" y="1160" type="line"/>
      <point x="974" y="1187" type="line" smooth="yes"/>
      <point x="974" y="1366"/>
      <point x="832" y="1483"/>
      <point x="595" y="1483" type="curve" smooth="yes"/>
      <point x="362" y="1483"/>
      <point x="166" y="1375"/>
      <point x="168" y="1180" type="curve" smooth="yes"/>
      <point x="169" y="1004"/>
      <point x="336" y="920"/>
      <point x="551" y="846" type="curve"/>
      <point x="541" y="859" type="line"/>
      <point x="301" y="890"/>
      <point x="110" y="758"/>
      <point x="112" y="520" type="curve" smooth="yes"/>
      <point x="113" y="351"/>
      <point x="245" y="257"/>
      <point x="534" y="157" type="curve" smooth="yes"/>
      <point x="679" y="107"/>
      <point x="787" y="24"/>
      <point x="788" y="-139" type="curve" smooth="yes"/>
      <point x="789" y="-289"/>
      <point x="701" y="-426"/>
      <point x="551" y="-426" type="curve" smooth="yes"/>
      <point x="422" y="-426"/>
      <point x="322" y="-326"/>
      <point x="322" y="-122" type="curve"/>
      <point x="155" y="-122" type="line"/>
      <point x="155" y="-149" type="line" smooth="yes"/>
      <point x="155" y="-323"/>
      <point x="301" y="-449"/>
    </contour>
    <contour>
      <point x="574" y="203" type="curve" smooth="yes"/>
      <point x="425" y="203"/>
      <point x="302" y="356"/>
      <point x="301" y="518" type="curve" smooth="yes"/>
      <point x="299" y="681"/>
      <point x="415" y="836"/>
      <point x="569" y="836" type="curve" smooth="yes"/>
      <point x="719" y="836"/>
      <point x="844" y="686"/>
      <point x="846" y="523" type="curve" smooth="yes"/>
      <point x="847" y="361"/>
      <point x="723" y="203"/>
    </contour>
  </outline>
</glyph>
<glyph name="copyright" format="2">
  <advance width="1721"/>
  <unicode hex="00A9"/>
  <note>
copyright
</note>
  <outline>
    <contour>
      <point x="859" y="-18" type="curve" smooth="yes"/>
      <point x="1061" y="-18"/>
      <point x="1259" y="68"/>
      <point x="1393" y="199" type="curve" smooth="yes"/>
      <point x="1539" y="341"/>
      <point x="1609" y="512"/>
      <point x="1609" y="708" type="curve" smooth="yes"/>
      <point x="1609" y="907"/>
      <point x="1536" y="1079"/>
      <point x="1394" y="1222" type="curve" smooth="yes"/>
      <point x="1262" y="1353"/>
      <point x="1066" y="1434"/>
      <point x="859" y="1434" type="curve" smooth="yes"/>
      <point x="664" y="1434"/>
      <point x="469" y="1361"/>
      <point x="334" y="1223" type="curve" smooth="yes"/>
      <point x="188" y="1074"/>
      <point x="110" y="903"/>
      <point x="110" y="708" type="curve" smooth="yes"/>
      <point x="110" y="513"/>
      <point x="185" y="342"/>
      <point x="332" y="197" type="curve" smooth="yes"/>
      <point x="470" y="59"/>
      <point x="662" y="-18"/>
    </contour>
    <contour>
      <point x="863" y="261" type="curve" smooth="yes"/>
      <point x="1071" y="261"/>
      <point x="1223" y="381"/>
      <point x="1242" y="543" type="curve"/>
      <point x="1102" y="543" type="line"/>
      <point x="1068" y="398"/>
      <point x="984" y="310"/>
      <point x="871" y="310" type="curve" smooth="yes"/>
      <point x="716" y="310"/>
      <point x="600" y="458"/>
      <point x="600" y="706" type="curve" smooth="yes"/>
      <point x="600" y="954"/>
      <point x="713" y="1111"/>
      <point x="871" y="1111" type="curve" smooth="yes"/>
      <point x="976" y="1111"/>
      <point x="1058" y="1030"/>
      <point x="1091" y="897" type="curve"/>
      <point x="1232" y="897" type="line"/>
      <point x="1213" y="1045"/>
      <point x="1069" y="1158"/>
      <point x="873" y="1158" type="curve" smooth="yes"/>
      <point x="619" y="1158"/>
      <point x="445" y="981"/>
      <point x="445" y="704" type="curve" smooth="yes"/>
      <point x="445" y="434"/>
      <point x="611" y="261"/>
    </contour>
    <contour>
      <point x="859" y="29" type="curve" smooth="yes"/>
      <point x="685" y="29"/>
      <point x="531" y="97"/>
      <point x="400" y="230" type="curve" smooth="yes"/>
      <point x="283" y="348"/>
      <point x="207" y="526"/>
      <point x="207" y="708" type="curve" smooth="yes"/>
      <point x="207" y="889"/>
      <point x="279" y="1068"/>
      <point x="402" y="1193" type="curve" smooth="yes"/>
      <point x="531" y="1324"/>
      <point x="678" y="1390"/>
      <point x="859" y="1390" type="curve" smooth="yes"/>
      <point x="1037" y="1390"/>
      <point x="1190" y="1324"/>
      <point x="1324" y="1191" type="curve" smooth="yes"/>
      <point x="1442" y="1073"/>
      <point x="1515" y="889"/>
      <point x="1515" y="708" type="curve" smooth="yes"/>
      <point x="1515" y="519"/>
      <point x="1440" y="343"/>
      <point x="1326" y="232" type="curve" smooth="yes"/>
      <point x="1194" y="103"/>
      <point x="1035" y="29"/>
    </contour>
  </outline>
</glyph>
<glyph name="ordfeminine" format="2">
  <advance width="895"/>
  <unicode hex="00AA"/>
  <note>
ordfeminine
</note>
  <outline>
    <contour>
      <point x="402" y="835" type="curve" smooth="yes"/>
      <point x="450" y="835"/>
      <point x="556" y="845"/>
      <point x="583" y="958" type="curve"/>
      <point x="583" y="848" type="line"/>
      <point x="733" y="848" type="line"/>
      <point x="733" y="1445" type="line"/>
      <point x="581" y="1445" type="line"/>
      <point x="581" y="1337" type="line"/>
      <point x="554" y="1451"/>
      <point x="446" y="1461"/>
      <point x="398" y="1461" type="curve" smooth="yes"/>
      <point x="225" y="1461"/>
      <point x="116" y="1332"/>
      <point x="116" y="1146" type="curve" smooth="yes"/>
      <point x="116" y="954"/>
      <point x="227" y="835"/>
    </contour>
    <contour>
      <point x="412" y="868" type="curve" smooth="yes"/>
      <point x="315" y="868"/>
      <point x="271" y="992"/>
      <point x="271" y="1152" type="curve" smooth="yes"/>
      <point x="271" y="1297"/>
      <point x="309" y="1429"/>
      <point x="410" y="1429" type="curve" smooth="yes"/>
      <point x="502" y="1429"/>
      <point x="581" y="1315"/>
      <point x="581" y="1145" type="curve" smooth="yes"/>
      <point x="581" y="987"/>
      <point x="508" y="868"/>
    </contour>
    <contour>
      <point x="123" y="697" type="line"/>
      <point x="749" y="697" type="line"/>
      <point x="749" y="762" type="line"/>
      <point x="123" y="762" type="line"/>
    </contour>
  </outline>
</glyph>
<glyph name="logicalnot" format="2">
  <advance width="993"/>
  <unicode hex="00AC"/>
  <note>
logicalnot
</note>
  <outline>
    <contour>
      <point x="1080" y="342" type="line"/>
      <point x="1221" y="342" type="line"/>
      <point x="1221" y="857" type="line"/>
      <point x="101" y="857" type="line"/>
      <point x="101" y="772" type="line"/>
      <point x="1080" y="772" type="line"/>
    </contour>
  </outline>
</glyph>
<glyph name="degree" format="2">
  <advance width="751"/>
  <unicode hex="00B0"/>
  <note>
degree
</note>
  <outline>
    <contour>
      <point x="373" y="957" type="curve" smooth="yes"/>
      <point x="511" y="957"/>
      <point x="628" y="1064"/>
      <point x="628" y="1195" type="curve" smooth="yes"/>
      <point x="628" y="1326"/>
      <point x="511" y="1432"/>
      <point x="375" y="1432" type="curve" smooth="yes"/>
      <point x="238" y="1432"/>
      <point x="123" y="1328"/>
      <point x="123" y="1195" type="curve" smooth="yes"/>
      <point x="123" y="1062"/>
      <point x="236" y="957"/>
    </contour>
    <contour>
      <point x="375" y="979" type="curve" smooth="yes"/>
      <point x="278" y="979"/>
      <point x="200" y="1074"/>
      <point x="200" y="1195" type="curve" smooth="yes"/>
      <point x="200" y="1314"/>
      <point x="279" y="1409"/>
      <point x="375" y="1409" type="curve" smooth="yes"/>
      <point x="472" y="1409"/>
      <point x="549" y="1314"/>
      <point x="549" y="1195" type="curve" smooth="yes"/>
      <point x="549" y="1074"/>
      <point x="472" y="979"/>
    </contour>
  </outline>
</glyph>
<glyph name="plusminus" format="2">
  <advance width="993"/>
  <unicode hex="00B1"/>
  <note>
plusminus
</note>
  <outline>
    <contour>
      <point x="436" y="375" type="line"/>
      <point x="547" y="375" type="line"/>
      <point x="547" y="613" type="line"/>
      <point x="847" y="613" type="line"/>
      <point x="847" y="724" type="line"/>
      <point x="547" y="724" type="line"/>
      <point x="547" y="961" type="line"/>
      <point x="436" y="961" type="line"/>
      <point x="436" y="724" type="line"/>
      <point x="136" y="724" type="line"/>
      <point x="136" y="613" type="line"/>
      <point x="436" y="613" type="line"/>
    </contour>
    <contour>
      <point x="135" y="145" type="line"/>
      <point x="846" y="145" type="line"/>
      <point x="846" y="256" type="line"/>
      <point x="135" y="256" type="line"/>
    </contour>
  </outline>
</glyph>
<glyph name="paragraph" format="2">
  <advance width="1172"/>
  <unicode hex="00B6"/>
  <note>
paragraph
</note>
  <outline>
    <contour>
      <point x="458" y="0" type="line"/>
      <point x="628" y="0" type="line"/>
      <point x="628" y="1434" type="line"/>
      <point x="778" y="1434" type="line"/>
      <point x="778" y="0" type="line"/>
      <point x="947" y="0" type="line"/>
      <point x="947" y="1434" type="line"/>
      <point x="1041" y="1434" type="line"/>
      <point x="1041" y="1452" type="line"/>
      <point x="508" y="1452" type="line" smooth="yes"/>
      <point x="260" y="1452"/>
      <point x="92" y="1294"/>
      <point x="92" y="1076" type="curve" smooth="yes"/>
      <point x="92" y="875"/>
      <point x="233" y="707"/>
      <point x="458" y="702" type="curve"/>
    </contour>
  </outline>
</glyph>
<glyph name="AE" format="2">
  <advance width="1751"/>
  <unicode hex="00C6"/>
  <note>
AE
</note>
  <anchor x="898" y="-10" name="bottom"/>
  <anchor x="898" y="1445" name="top"/>
  <outline>
    <contour>
      <point x="33" y="-5" type="line"/>
      <point x="146" y="-5" type="line"/>
      <point x="955" y="1438" type="line"/>
      <point x="843" y="1438" type="line"/>
    </contour>
    <contour>
      <point x="365" y="435" type="line"/>
      <point x="1010" y="435" type="line"/>
      <point x="997" y="462" type="line"/>
      <point x="379" y="462" type="line"/>
    </contour>
    <contour>
      <point x="944" y="-5" type="line"/>
      <point x="1681" y="-5" type="line"/>
      <point x="1681" y="22" type="line"/>
      <point x="999" y="22" type="line"/>
      <point x="1094" y="7" type="line"/>
      <point x="1094" y="749" type="line"/>
      <point x="1013" y="715" type="line"/>
      <point x="1681" y="715" type="line"/>
      <point x="1681" y="742" type="line"/>
      <point x="999" y="742" type="line"/>
      <point x="1094" y="715" type="line"/>
      <point x="1094" y="1431" type="line"/>
      <point x="943" y="1411" type="line"/>
      <point x="1681" y="1411" type="line"/>
      <point x="1681" y="1438" type="line"/>
      <point x="944" y="1438" type="line"/>
    </contour>
  </outline>
</glyph>
<glyph name="Thorn" format="2">
  <advance width="1137"/>
  <unicode hex="00DE"/>
  <note>
Thorn
</note>
  <anchor x="583" y="0" name="bottom"/>
  <anchor x="583" y="1435" name="top"/>
  <outline>
    <contour>
      <point x="374" y="316" type="line"/>
      <point x="580" y="316" type="line" smooth="yes"/>
      <point x="747" y="316"/>
      <point x="856" y="347"/>
      <point x="931" y="413" type="curve" smooth="yes"/>
      <point x="1034" y="501"/>
      <point x="1081" y="607"/>
      <point x="1081" y="732" type="curve" smooth="yes"/>
      <point x="1081" y="861"/>
      <point x="1031" y="965"/>
      <point x="934" y="1048" type="curve" smooth="yes"/>
      <point x="859" y="1116"/>
      <point x="738" y="1152"/>
      <point x="572" y="1152" type="curve" smooth="yes"/>
      <point x="374" y="1152" type="line"/>
      <point x="374" y="1114" type="line"/>
      <point x="548" y="1114" type="line" smooth="yes"/>
      <point x="745" y="1114"/>
      <point x="873" y="970"/>
      <point x="873" y="727" type="curve" smooth="yes"/>
      <point x="873" y="485"/>
      <point x="742" y="354"/>
      <point x="548" y="354" type="curve" smooth="yes"/>
      <point x="374" y="354" type="line"/>
    </contour>
    <contour>
      <point x="172" y="0" type="line"/>
      <point x="383" y="0" type="line"/>
      <point x="383" y="1438" type="line"/>
      <point x="172" y="1438" type="line"/>
    </contour>
  </outline>
</glyph>
<glyph name="germandbls" format="2">
  <advance width="1171"/>
  <unicode hex="00DF"/>
  <note>
germandbls
</note>
  <anchor x="594" y="0" name="bottom"/>
  <anchor x="594" y="922" name="top"/>
  <outline>
    <contour>
      <point x="762" y="-26" type="curve" smooth="yes"/>
      <point x="992" y="-26"/>
      <point x="1145" y="67"/>
      <point x="1145" y="264" type="curve" smooth="yes"/>
      <point x="1145" y="430"/>
      <point x="1030" y="520"/>
      <point x="840" y="562" type="curve" smooth="yes"/>
      <point x="709" y="591"/>
      <point x="605" y="629"/>
      <point x="605" y="740" type="curve" smooth="yes"/>
      <point x="605" y="824"/>
      <point x="632" y="896"/>
      <point x="720" y="957" type="curve" smooth="yes"/>
      <point x="814" y="1022"/>
      <point x="968" y="1045"/>
      <point x="968" y="1238" type="curve" smooth="yes"/>
      <point x="968" y="1441"/>
      <point x="800" y="1551"/>
      <point x="555" y="1551" type="curve" smooth="yes"/>
      <point x="309" y="1551"/>
      <point x="170" y="1429"/>
      <point x="170" y="1154" type="curve" smooth="yes"/>
      <point x="170" y="0" type="line"/>
      <point x="346" y="0" type="line"/>
      <point x="346" y="1154" type="line" smooth="yes"/>
      <point x="346" y="1454"/>
      <point x="436" y="1528"/>
      <point x="565" y="1528" type="curve" smooth="yes"/>
      <point x="679" y="1528"/>
      <point x="810" y="1453"/>
      <point x="810" y="1225" type="curve" smooth="yes"/>
      <point x="810" y="1117"/>
      <point x="770" y="1022"/>
      <point x="699" y="975" type="curve" smooth="yes"/>
      <point x="604" y="911"/>
      <point x="461" y="885"/>
      <point x="461" y="720" type="curve" smooth="yes"/>
      <point x="461" y="579"/>
      <point x="532" y="493"/>
      <point x="764" y="427" type="curve" smooth="yes"/>
      <point x="855" y="401"/>
      <point x="981" y="369"/>
      <point x="981" y="231" type="curve" smooth="yes"/>
      <point x="981" y="99"/>
      <point x="902" y="-3"/>
      <point x="761" y="-3" type="curve" smooth="yes"/>
      <point x="632" y="-3"/>
      <point x="536" y="53"/>
      <point x="492" y="165" type="curve"/>
      <point x="455" y="105" type="line"/>
      <point x="505" y="33"/>
      <point x="600" y="-26"/>
    </contour>
    <contour>
      <point x="12" y="902" type="line"/>
      <point x="292" y="902" type="line"/>
      <point x="292" y="922" type="line"/>
      <point x="12" y="922" type="line"/>
    </contour>
  </outline>
</glyph>
<glyph name="ae" format="2">
  <advance width="2005"/>
  <unicode hex="00E6"/>
  <note>
ae
</note>
  <guideline x="318" y="363" angle="0"/>
  <guideline x="334" y="80" angle="0"/>
  <guideline x="849" y="179" angle="90"/>
  <guideline x="871" y="644" angle="0"/>
  <anchor x="1004" y="0" name="bottom"/>
  <anchor x="1004" y="922" name="top"/>
  <outline>
    <contour>
      <point x="530" y="-30" type="curve" smooth="yes"/>
      <point x="727" y="-30"/>
      <point x="879" y="64"/>
      <point x="911" y="331" type="curve"/>
      <point x="898" y="259" type="line"/>
      <point x="898" y="0" type="line"/>
      <point x="1076" y="0" type="line"/>
      <point x="1076" y="921" type="line"/>
      <point x="898" y="921" type="line"/>
      <point x="898" y="706" type="line"/>
      <point x="920" y="575" type="line"/>
      <point x="889" y="823"/>
      <point x="756" y="955"/>
      <point x="539" y="955" type="curve" smooth="yes"/>
      <point x="242" y="955"/>
      <point x="54" y="765"/>
      <point x="51" y="460" type="curve" smooth="yes"/>
      <point x="48" y="156"/>
      <point x="249" y="-30"/>
    </contour>
    <contour>
      <point x="556" y="-7" type="curve" smooth="yes"/>
      <point x="353" y="-7"/>
      <point x="228" y="199"/>
      <point x="230" y="465" type="curve" smooth="yes"/>
      <point x="232" y="747"/>
      <point x="361" y="932"/>
      <point x="554" y="932" type="curve" smooth="yes"/>
      <point x="766" y="932"/>
      <point x="886" y="755"/>
      <point x="884" y="459" type="curve" smooth="yes"/>
      <point x="882" y="163"/>
      <point x="757" y="-7"/>
    </contour>
    <contour>
      <point x="1488" y="-30" type="curve" smooth="yes"/>
      <point x="1713" y="-28"/>
      <point x="1876" y="80"/>
      <point x="1938" y="262" type="curve"/>
      <point x="1858" y="262" type="line"/>
      <point x="1783" y="84"/>
      <point x="1645" y="-7"/>
      <point x="1493" y="-8" type="curve" smooth="yes"/>
      <point x="1311" y="-9"/>
      <point x="1192" y="161"/>
      <point x="1192" y="456" type="curve" smooth="yes"/>
      <point x="1192" y="754"/>
      <point x="1313" y="929"/>
      <point x="1493" y="931" type="curve" smooth="yes"/>
      <point x="1663" y="932"/>
      <point x="1784" y="773"/>
      <point x="1797" y="494" type="curve"/>
      <point x="1964" y="494" type="line"/>
      <point x="1969" y="789"/>
      <point x="1757" y="957"/>
      <point x="1488" y="954" type="curve" smooth="yes"/>
      <point x="1193" y="951"/>
      <point x="1014" y="739"/>
      <point x="1014" y="448" type="curve" smooth="yes"/>
      <point x="1014" y="139"/>
      <point x="1193" y="-33"/>
    </contour>
    <contour>
      <point x="1135" y="494" type="line"/>
      <point x="1827" y="494" type="line"/>
      <point x="1827" y="514" type="line"/>
      <point x="1125" y="514" type="line"/>
    </contour>
  </outline>
</glyph>
<glyph name="eth" format="2">
  <advance width="1114"/>
  <unicode hex="00F0"/>
  <note>
eth
</note>
  <outline>
    <contour>
      <point x="546" y="-39" type="curve" smooth="yes"/>
      <point x="710" y="-39"/>
      <point x="844" y="26"/>
      <point x="932" y="134" type="curve" smooth="yes"/>
      <point x="1002" y="222"/>
      <point x="1041" y="338"/>
      <point x="1041" y="473" type="curve" smooth="yes"/>
      <point x="1041" y="657"/>
      <point x="999" y="832"/>
      <point x="937" y="966" type="curve" smooth="yes"/>
      <point x="814" y="1225"/>
      <point x="512" y="1449"/>
      <point x="158" y="1511" type="curve"/>
      <point x="134" y="1475" type="line"/>
      <point x="490" y="1403"/>
      <point x="769" y="1114"/>
      <point x="828" y="703" type="curve"/>
      <point x="920" y="751" type="line"/>
      <point x="841" y="863"/>
      <point x="711" y="943"/>
      <point x="546" y="943" type="curve" smooth="yes"/>
      <point x="412" y="943"/>
      <point x="278" y="907"/>
      <point x="191" y="815" type="curve" smooth="yes"/>
      <point x="104" y="723"/>
      <point x="51" y="593"/>
      <point x="51" y="444" type="curve" smooth="yes"/>
      <point x="51" y="306"/>
      <point x="102" y="175"/>
      <point x="192" y="82" type="curve" smooth="yes"/>
      <point x="285" y="-14"/>
      <point x="425" y="-39"/>
    </contour>
    <contour>
      <point x="546" y="4" type="curve" smooth="yes"/>
      <point x="385" y="4"/>
      <point x="258" y="203"/>
      <point x="258" y="449" type="curve" smooth="yes"/>
      <point x="258" y="695"/>
      <point x="387" y="900"/>
      <point x="546" y="900" type="curve" smooth="yes"/>
      <point x="703" y="900"/>
      <point x="833" y="692"/>
      <point x="833" y="444" type="curve" smooth="yes"/>
      <point x="833" y="201"/>
      <point x="706" y="4"/>
    </contour>
    <contour>
      <point x="204" y="1090" type="line"/>
      <point x="309" y="1090" type="line"/>
      <point x="784" y="1547" type="line"/>
      <point x="679" y="1547" type="line"/>
    </contour>
  </outline>
</glyph>
<glyph name="divide" format="2">
  <advance width="993"/>
  <unicode hex="00F7"/>
  <note>
divide
</note>
  <outline>
    <contour>
      <point x="84" y="589" type="line"/>
      <point x="1122" y="589" type="line"/>
      <point x="1122" y="676" type="line"/>
      <point x="84" y="676" type="line"/>
    </contour>
    <contour>
      <point x="603" y="189" type="curve" smooth="yes"/>
      <point x="668" y="189"/>
      <point x="719" y="240"/>
      <point x="719" y="305" type="curve" smooth="yes"/>
      <point x="719" y="370"/>
      <point x="667" y="420"/>
      <point x="603" y="420" type="curve" smooth="yes"/>
      <point x="539" y="420"/>
      <point x="488" y="370"/>
      <point x="488" y="305" type="curve" smooth="yes"/>
      <point x="488" y="240"/>
      <point x="539" y="189"/>
    </contour>
    <contour>
      <point x="603" y="846" type="curve" smooth="yes"/>
      <point x="668" y="846"/>
      <point x="719" y="897"/>
      <point x="719" y="962" type="curve" smooth="yes"/>
      <point x="719" y="1027"/>
      <point x="667" y="1077"/>
      <point x="603" y="1077" type="curve" smooth="yes"/>
      <point x="539" y="1077"/>
      <point x="488" y="1027"/>
      <point x="488" y="962" type="curve" smooth="yes"/>
      <point x="488" y="897"/>
      <point x="539" y="846"/>
    </contour>
  </outline>
</glyph>
<glyph name="thorn" format="2">
  <advance width="1186"/>
  <unicode hex="00FE"/>
  <note>
thorn
</note>
  <anchor x="604" y="0" name="bottom"/>
  <anchor x="604" y="914" name="top"/>
  <outline>
    <contour>
      <point x="153" y="-563" type="line"/>
      <point x="355" y="-563" type="line"/>
      <point x="355" y="273" type="line"/>
      <point x="307" y="240" type="line"/>
      <point x="366" y="70"/>
      <point x="476" y="-33"/>
      <point x="672" y="-33" type="curve" smooth="yes"/>
      <point x="947" y="-33"/>
      <point x="1136" y="166"/>
      <point x="1136" y="465" type="curve" smooth="yes"/>
      <point x="1136" y="755"/>
      <point x="957" y="957"/>
      <point x="679" y="957" type="curve" smooth="yes"/>
      <point x="485" y="957"/>
      <point x="361" y="859"/>
      <point x="300" y="691" type="curve"/>
      <point x="353" y="653" type="line"/>
      <point x="353" y="1519" type="line"/>
      <point x="153" y="1519" type="line"/>
    </contour>
    <contour>
      <point x="656" y="10" type="curve" smooth="yes"/>
      <point x="489" y="10"/>
      <point x="352" y="204"/>
      <point x="352" y="462" type="curve" smooth="yes"/>
      <point x="352" y="712"/>
      <point x="480" y="914"/>
      <point x="653" y="914" type="curve" smooth="yes"/>
      <point x="816" y="914"/>
      <point x="929" y="736"/>
      <point x="929" y="463" type="curve" smooth="yes"/>
      <point x="929" y="194"/>
      <point x="821" y="10"/>
    </contour>
  </outline>
</glyph>
<glyph name="lslash" format="2">
  <advance width="632"/>
  <unicode hex="0142"/>
  <outline>
    <contour>
      <point x="217" y="0" type="line"/>
      <point x="419" y="0" type="line"/>
      <point x="419" y="1522" type="line"/>
      <point x="217" y="1522" type="line"/>
    </contour>
    <contour>
      <point x="21" y="551" type="line"/>
      <point x="635" y="871" type="line"/>
      <point x="611" y="917" type="line"/>
      <point x="-3" y="597" type="line"/>
    </contour>
  </outline>
</glyph>
<glyph name="Eng" format="2">
  <advance width="1510"/>
  <unicode hex="014A"/>
  <outline>
    <contour>
      <point x="1104" y="-407" type="curve" smooth="yes"/>
      <point x="1257" y="-407"/>
      <point x="1341" y="-303"/>
      <point x="1341" y="-131" type="curve" smooth="yes"/>
      <point x="1341" y="1438" type="line"/>
      <point x="1305" y="1438" type="line"/>
      <point x="1305" y="155" type="line"/>
      <point x="1327" y="221" type="line"/>
      <point x="189" y="1453" type="line"/>
      <point x="173" y="1453" type="line"/>
      <point x="173" y="0" type="line"/>
      <point x="209" y="0" type="line"/>
      <point x="209" y="1283" type="line"/>
      <point x="197" y="1207" type="line"/>
      <point x="1236" y="78" type="line" smooth="yes"/>
      <point x="1291" y="23"/>
      <point x="1305" y="-15"/>
      <point x="1305" y="-152" type="curve" smooth="yes"/>
      <point x="1305" y="-328"/>
      <point x="1196" y="-372"/>
      <point x="1105" y="-372" type="curve" smooth="yes"/>
      <point x="1023" y="-372"/>
      <point x="913" y="-334"/>
      <point x="861" y="-233" type="curve"/>
      <point x="861" y="-304" type="line"/>
      <point x="905" y="-364"/>
      <point x="1004" y="-407"/>
    </contour>
  </outline>
</glyph>
<glyph name="eng" format="2">
  <advance width="1128"/>
  <unicode hex="014B"/>
  <outline>
    <contour>
      <point x="793" y="-484" type="curve" smooth="yes"/>
      <point x="1003" y="-484"/>
      <point x="1029" y="-355"/>
      <point x="1029" y="32" type="curve" smooth="yes"/>
      <point x="1029" y="572" type="line" smooth="yes"/>
      <point x="1029" y="809"/>
      <point x="868" y="947"/>
      <point x="653" y="947" type="curve" smooth="yes"/>
      <point x="471" y="947"/>
      <point x="313" y="833"/>
      <point x="290" y="642" type="curve"/>
      <point x="303" y="619" type="line"/>
      <point x="304" y="921" type="line"/>
      <point x="127" y="921" type="line"/>
      <point x="127" y="0" type="line"/>
      <point x="304" y="0" type="line"/>
      <point x="304" y="627" type="line" smooth="yes"/>
      <point x="304" y="801"/>
      <point x="478" y="923"/>
      <point x="633" y="923" type="curve" smooth="yes"/>
      <point x="793" y="923"/>
      <point x="851" y="780"/>
      <point x="851" y="543" type="curve" smooth="yes"/>
      <point x="851" y="82" type="line" smooth="yes"/>
      <point x="851" y="-236"/>
      <point x="899" y="-450"/>
      <point x="792" y="-463" type="curve" smooth="yes"/>
      <point x="731" y="-470"/>
      <point x="658" y="-403"/>
      <point x="658" y="-317" type="curve" smooth="yes"/>
      <point x="658" y="-298"/>
      <point x="662" y="-253"/>
      <point x="667" y="-223" type="curve"/>
      <point x="569" y="-243" type="line"/>
      <point x="558" y="-279"/>
      <point x="556" y="-310"/>
      <point x="556" y="-324" type="curve" smooth="yes"/>
      <point x="556" y="-426"/>
      <point x="651" y="-484"/>
    </contour>
  </outline>
</glyph>
<glyph name="Schwa" format="2">
  <advance width="1583"/>
  <unicode hex="018F"/>
  <anchor x="788" y="0" name="bottom"/>
  <anchor x="788" y="1435" name="top"/>
  <outline>
    <contour>
      <point x="785" y="-34" type="curve" smooth="yes"/>
      <point x="1204" y="-26"/>
      <point x="1509" y="310"/>
      <point x="1506" y="727" type="curve" smooth="yes"/>
      <point x="1502" y="1147"/>
      <point x="1185" y="1475"/>
      <point x="772" y="1467" type="curve" smooth="yes"/>
      <point x="530" y="1463"/>
      <point x="323" y="1345"/>
      <point x="194" y="1164" type="curve"/>
      <point x="360" y="1164" type="line"/>
      <point x="458" y="1334"/>
      <point x="610" y="1443"/>
      <point x="772" y="1445" type="curve" smooth="yes"/>
      <point x="1053" y="1449"/>
      <point x="1306" y="1132"/>
      <point x="1310" y="723" type="curve" smooth="yes"/>
      <point x="1313" y="317"/>
      <point x="1070" y="-8"/>
      <point x="785" y="-12" type="curve" smooth="yes"/>
      <point x="500" y="-16"/>
      <point x="250" y="300"/>
      <point x="247" y="707" type="curve"/>
      <point x="51" y="706" type="line"/>
      <point x="54" y="285"/>
      <point x="366" y="-41"/>
    </contour>
    <contour>
      <point x="182" y="688" type="line"/>
      <point x="1373" y="688" type="line"/>
      <point x="1373" y="706" type="line"/>
      <point x="182" y="706" type="line"/>
    </contour>
  </outline>
</glyph>
<glyph name="jdotless" format="2">
  <advance width="462"/>
  <unicode hex="0237"/>
  <anchor x="229" y="-526" name="bottom"/>
  <anchor x="229" y="922" name="top"/>
  <outline>
    <contour>
      <point x="57" y="-566" type="curve" smooth="yes"/>
      <point x="260" y="-566"/>
      <point x="317" y="-452"/>
      <point x="317" y="-39" type="curve" smooth="yes"/>
      <point x="317" y="920" type="line"/>
      <point x="140" y="920" type="line"/>
      <point x="140" y="12" type="line" smooth="yes"/>
      <point x="140" y="-338"/>
      <point x="163" y="-534"/>
      <point x="56" y="-545" type="curve" smooth="yes"/>
      <point x="-8" y="-552"/>
      <point x="-78" y="-486"/>
      <point x="-78" y="-415" type="curve" smooth="yes"/>
      <point x="-78" y="-396"/>
      <point x="-73" y="-348"/>
      <point x="-64" y="-323" type="curve"/>
      <point x="-163" y="-340" type="line"/>
      <point x="-173" y="-376"/>
      <point x="-175" y="-408"/>
      <point x="-175" y="-422" type="curve" smooth="yes"/>
      <point x="-175" y="-509"/>
      <point x="-100" y="-566"/>
    </contour>
  </outline>
</glyph>
<glyph name="primemod" format="2">
  <advance width="178"/>
  <unicode hex="02B9"/>
  <outline>
    <contour>
      <point x="178" y="1341" type="curve"/>
      <point x="49" y="1341" type="line"/>
      <point x="12" y="1256"/>
      <point x="-2" y="1088"/>
      <point x="0" y="1017" type="curve"/>
      <point x="72" y="1017" type="line"/>
      <point x="116" y="1128"/>
      <point x="155" y="1255"/>
    </contour>
  </outline>
</glyph>
<glyph name="gravecomb" format="2">
  <unicode hex="0300"/>
  <note>
grave
</note>
  <anchor x="212" y="922" name="_top"/>
  <anchor x="212" y="1336" name="top"/>
  <outline>
    <contour>
      <point x="293" y="1071" type="curve"/>
      <point x="374" y="1071" type="line"/>
      <point x="327" y="1162"/>
      <point x="262" y="1270"/>
      <point x="217" y="1336" type="curve"/>
      <point x="66" y="1336" type="line"/>
      <point x="116" y="1266"/>
      <point x="188" y="1180"/>
    </contour>
  </outline>
</glyph>
<glyph name="acutecomb" format="2">
  <unicode hex="0301"/>
  <note>
acute
</note>
  <anchor x="211" y="914" name="_top"/>
  <anchor x="211" y="1336" name="top"/>
  <outline>
    <contour>
      <point x="57" y="1071" type="curve"/>
      <point x="138" y="1071" type="line"/>
      <point x="243" y="1180"/>
      <point x="315" y="1266"/>
      <point x="365" y="1336" type="curve"/>
      <point x="214" y="1336" type="line"/>
      <point x="169" y="1270"/>
      <point x="104" y="1162"/>
    </contour>
  </outline>
</glyph>
<glyph name="circumflexcomb" format="2">
  <unicode hex="0302"/>
  <note>
circumflex
</note>
  <anchor x="313" y="922" name="_top"/>
  <anchor x="313" y="1408" name="top"/>
  <outline>
    <contour>
      <point x="16" y="1061" type="line"/>
      <point x="98" y="1061" type="line"/>
      <point x="310" y="1298" type="line"/>
      <point x="528" y="1061" type="line"/>
      <point x="611" y="1061" type="line"/>
      <point x="372" y="1408" type="line"/>
      <point x="252" y="1408" type="line"/>
    </contour>
  </outline>
</glyph>
<glyph name="macroncomb" format="2">
  <unicode hex="0304"/>
  <note>
macron
</note>
  <anchor x="382" y="917" name="_top"/>
  <anchor x="382" y="1221" name="top"/>
  <outline>
    <contour>
      <point x="75" y="1141" type="line"/>
      <point x="690" y="1141" type="line"/>
      <point x="690" y="1221" type="line"/>
      <point x="75" y="1221" type="line"/>
    </contour>
  </outline>
</glyph>
<glyph name="dotaccentcomb" format="2">
  <unicode hex="0307"/>
  <anchor x="173" y="917" name="_top"/>
  <anchor x="173" y="1302" name="top"/>
  <outline>
    <contour>
      <point x="173" y="1097" type="curve" smooth="yes"/>
      <point x="230" y="1097"/>
      <point x="276" y="1142"/>
      <point x="276" y="1200" type="curve" smooth="yes"/>
      <point x="276" y="1258"/>
      <point x="229" y="1302"/>
      <point x="173" y="1302" type="curve" smooth="yes"/>
      <point x="116" y="1302"/>
      <point x="70" y="1258"/>
      <point x="70" y="1200" type="curve" smooth="yes"/>
      <point x="70" y="1142"/>
      <point x="116" y="1097"/>
    </contour>
  </outline>
</glyph>
<glyph name="hookabovecomb" format="2">
  <unicode hex="0309"/>
  <anchor x="165" y="922" name="_top"/>
  <anchor x="165" y="1429" name="top"/>
  <outline>
    <contour>
      <point x="95" y="1116" type="line"/>
      <point x="231" y="1130"/>
      <point x="332" y="1188"/>
      <point x="332" y="1290" type="curve" smooth="yes"/>
      <point x="332" y="1374"/>
      <point x="250" y="1429"/>
      <point x="146" y="1429" type="curve" smooth="yes"/>
      <point x="67" y="1429"/>
      <point x="18" y="1396"/>
      <point x="-3" y="1368" type="curve"/>
      <point x="17" y="1350" type="line"/>
      <point x="58" y="1388"/>
      <point x="103" y="1400"/>
      <point x="141" y="1400" type="curve" smooth="yes"/>
      <point x="223" y="1400"/>
      <point x="239" y="1338"/>
      <point x="239" y="1291" type="curve" smooth="yes"/>
      <point x="239" y="1180"/>
      <point x="166" y="1158"/>
      <point x="95" y="1151" type="curve"/>
    </contour>
    <contour>
      <point x="95" y="1031" type="line"/>
      <point x="170" y="1031" type="line"/>
      <point x="170" y="1149" type="line"/>
      <point x="95" y="1134" type="line"/>
    </contour>
  </outline>
</glyph>
<glyph name="ringcomb" format="2">
  <unicode hex="030A"/>
  <note>
ring
</note>
  <anchor x="259" y="913" name="_top"/>
  <anchor x="259" y="1428" name="top"/>
  <outline>
    <contour>
      <point x="259" y="1078" type="curve" smooth="yes"/>
      <point x="356" y="1078"/>
      <point x="435" y="1152"/>
      <point x="435" y="1243" type="curve" smooth="yes"/>
      <point x="435" y="1333"/>
      <point x="355" y="1409"/>
      <point x="259" y="1409" type="curve" smooth="yes"/>
      <point x="162" y="1409"/>
      <point x="83" y="1334"/>
      <point x="83" y="1243" type="curve" smooth="yes"/>
      <point x="83" y="1152"/>
      <point x="161" y="1078"/>
    </contour>
    <contour>
      <point x="259" y="1111" type="curve" smooth="yes"/>
      <point x="200" y="1111"/>
      <point x="152" y="1171"/>
      <point x="152" y="1243" type="curve" smooth="yes"/>
      <point x="152" y="1315"/>
      <point x="200" y="1375"/>
      <point x="259" y="1375" type="curve" smooth="yes"/>
      <point x="317" y="1375"/>
      <point x="366" y="1315"/>
      <point x="366" y="1243" type="curve" smooth="yes"/>
      <point x="366" y="1171"/>
      <point x="317" y="1111"/>
    </contour>
  </outline>
</glyph>
<glyph name="horncomb" format="2">
  <unicode hex="031B"/>
  <anchor x="223" y="1242" name="_topright"/>
  <anchor x="282" y="1282" name="topright"/>
  <outline>
    <contour>
      <point x="262" y="1297" type="curve"/>
      <point x="187" y="1297" type="line"/>
      <point x="187" y="1236"/>
      <point x="142" y="1164"/>
      <point x="58" y="1162" type="curve"/>
      <point x="58" y="1121" type="line"/>
      <point x="159" y="1120"/>
      <point x="262" y="1202"/>
    </contour>
  </outline>
</glyph>
<glyph name="cedillacomb" format="2">
  <unicode hex="0327"/>
  <anchor x="210" y="5" name="_bottom"/>
  <anchor x="225" y="-371" name="bottom"/>
  <outline>
    <contour>
      <point x="217" y="-388" type="curve" smooth="yes"/>
      <point x="350" y="-388"/>
      <point x="425" y="-336"/>
      <point x="425" y="-252" type="curve" smooth="yes"/>
      <point x="425" y="-156"/>
      <point x="345" y="-104"/>
      <point x="252" y="-121" type="curve" smooth="yes"/>
      <point x="237" y="-124"/>
      <point x="194" y="-144"/>
      <point x="153" y="-164" type="curve"/>
      <point x="88" y="-210" type="line"/>
      <point x="163" y="-191"/>
      <point x="183" y="-187"/>
      <point x="221" y="-187" type="curve" smooth="yes"/>
      <point x="278" y="-187"/>
      <point x="307" y="-212"/>
      <point x="307" y="-253" type="curve" smooth="yes"/>
      <point x="307" y="-304"/>
      <point x="273" y="-334"/>
      <point x="204" y="-334" type="curve" smooth="yes"/>
      <point x="158" y="-334"/>
      <point x="116" y="-326"/>
      <point x="44" y="-302" type="curve"/>
      <point x="44" y="-346" type="line"/>
      <point x="105" y="-373"/>
      <point x="162" y="-388"/>
    </contour>
    <contour>
      <point x="88" y="-210" type="line"/>
      <point x="217" y="-156" type="line"/>
      <point x="304" y="0" type="line"/>
      <point x="207" y="0" type="line"/>
    </contour>
  </outline>
</glyph>
<glyph name="strokeshortcomb" format="2">
  <unicode hex="0335"/>
  <anchor x="394" y="756" name="_center"/>
  <outline>
    <contour>
      <point x="54" y="736" type="line"/>
      <point x="733" y="736" type="line"/>
      <point x="733" y="775" type="line"/>
      <point x="54" y="775" type="line"/>
    </contour>
  </outline>
</glyph>
<glyph name="Dje-cy" format="2">
  <advance width="1528"/>
  <unicode hex="0402"/>
  <outline>
    <contour>
      <point x="939" y="-33" type="line"/>
      <point x="1274" y="-33"/>
      <point x="1413" y="157"/>
      <point x="1413" y="435" type="curve" smooth="yes"/>
      <point x="1413" y="720"/>
      <point x="1275" y="872"/>
      <point x="1015" y="872" type="curve" smooth="yes"/>
      <point x="831" y="872"/>
      <point x="659" y="796"/>
      <point x="615" y="610" type="curve"/>
      <point x="617" y="1438" type="line"/>
      <point x="417" y="1438" type="line"/>
      <point x="417" y="0" type="line"/>
      <point x="615" y="0" type="line"/>
      <point x="615" y="473" type="line" smooth="yes"/>
      <point x="615" y="753"/>
      <point x="810" y="841"/>
      <point x="961" y="841" type="curve" smooth="yes"/>
      <point x="1154" y="841"/>
      <point x="1240" y="703"/>
      <point x="1240" y="420" type="curve" smooth="yes"/>
      <point x="1240" y="169"/>
      <point x="1166" y="-15"/>
      <point x="948" y="-15" type="curve"/>
    </contour>
    <contour>
      <point x="68" y="1420" type="line"/>
      <point x="968" y="1420" type="line"/>
      <point x="968" y="1438" type="line"/>
      <point x="68" y="1438" type="line"/>
    </contour>
  </outline>
</glyph>
<glyph name="Lje-cy" format="2">
  <advance width="2057"/>
  <unicode hex="0409"/>
  <outline>
    <contour>
      <point x="1103" y="17" type="line"/>
      <point x="1060" y="0" type="line"/>
      <point x="1469" y="0" type="line" smooth="yes"/>
      <point x="1628" y="0"/>
      <point x="1755" y="37"/>
      <point x="1841" y="110" type="curve" smooth="yes"/>
      <point x="1920" y="178"/>
      <point x="1965" y="277"/>
      <point x="1967" y="405" type="curve" smooth="yes"/>
      <point x="1968" y="543"/>
      <point x="1922" y="650"/>
      <point x="1841" y="721" type="curve" smooth="yes"/>
      <point x="1753" y="798"/>
      <point x="1628" y="832"/>
      <point x="1484" y="833" type="curve" smooth="yes"/>
      <point x="1133" y="833" type="line"/>
      <point x="1132" y="814" type="line"/>
      <point x="1451" y="815" type="line" smooth="yes"/>
      <point x="1647" y="815"/>
      <point x="1801" y="657"/>
      <point x="1799" y="416" type="curve" smooth="yes"/>
      <point x="1796" y="177"/>
      <point x="1642" y="19"/>
      <point x="1445" y="18" type="curve" smooth="yes"/>
    </contour>
    <contour>
      <point x="487" y="1438" type="line"/>
      <point x="476" y="1005"/>
      <point x="466" y="840"/>
      <point x="426" y="621" type="curve" smooth="yes"/>
      <point x="378" y="356"/>
      <point x="288" y="118"/>
      <point x="98" y="118" type="curve" smooth="yes"/>
      <point x="29" y="118" type="line"/>
      <point x="29" y="0" type="line"/>
      <point x="117" y="0" type="line" smooth="yes"/>
      <point x="309" y="0"/>
      <point x="394" y="285"/>
      <point x="451" y="618" type="curve" smooth="yes"/>
      <point x="517" y="1003"/>
      <point x="501" y="1274"/>
      <point x="510" y="1426" type="curve"/>
      <point x="497" y="1420" type="line"/>
      <point x="1143" y="1420" type="line"/>
      <point x="1061" y="1432" type="line"/>
      <point x="1061" y="0" type="line"/>
      <point x="1244" y="0" type="line"/>
      <point x="1244" y="1438" type="line"/>
    </contour>
  </outline>
</glyph>
<glyph name="Nje-cy" format="2">
  <advance width="2181"/>
  <unicode hex="040A"/>
  <outline>
    <contour>
      <point x="172" y="0" type="line"/>
      <point x="355" y="0" type="line"/>
      <point x="355" y="750" type="line"/>
      <point x="253" y="721" type="line"/>
      <point x="1286" y="721" type="line"/>
      <point x="1184" y="750" type="line"/>
      <point x="1184" y="0" type="line"/>
      <point x="1367" y="0" type="line"/>
      <point x="1367" y="1438" type="line"/>
      <point x="1184" y="1438" type="line"/>
      <point x="1184" y="710" type="line"/>
      <point x="1286" y="739" type="line"/>
      <point x="253" y="739" type="line"/>
      <point x="355" y="710" type="line"/>
      <point x="355" y="1438" type="line"/>
      <point x="172" y="1438" type="line"/>
    </contour>
    <contour>
      <point x="1227" y="17" type="line"/>
      <point x="1184" y="0" type="line"/>
      <point x="1593" y="0" type="line" smooth="yes"/>
      <point x="1752" y="0"/>
      <point x="1879" y="37"/>
      <point x="1965" y="110" type="curve" smooth="yes"/>
      <point x="2044" y="178"/>
      <point x="2089" y="277"/>
      <point x="2091" y="405" type="curve" smooth="yes"/>
      <point x="2092" y="543"/>
      <point x="2046" y="650"/>
      <point x="1965" y="721" type="curve" smooth="yes"/>
      <point x="1877" y="798"/>
      <point x="1752" y="832"/>
      <point x="1608" y="833" type="curve" smooth="yes"/>
      <point x="1257" y="833" type="line"/>
      <point x="1256" y="814" type="line"/>
      <point x="1575" y="815" type="line" smooth="yes"/>
      <point x="1771" y="815"/>
      <point x="1925" y="657"/>
      <point x="1923" y="416" type="curve" smooth="yes"/>
      <point x="1920" y="177"/>
      <point x="1766" y="19"/>
      <point x="1569" y="18" type="curve" smooth="yes"/>
    </contour>
  </outline>
</glyph>
<glyph name="Tshe-cy" format="2">
  <advance width="1528"/>
  <unicode hex="040B"/>
  <outline>
    <contour>
      <point x="617" y="1438" type="line"/>
      <point x="417" y="1438" type="line"/>
      <point x="417" y="0" type="line"/>
      <point x="615" y="0" type="line"/>
      <point x="615" y="473" type="line" smooth="yes"/>
      <point x="615" y="753"/>
      <point x="811" y="841"/>
      <point x="961" y="841" type="curve" smooth="yes"/>
      <point x="1156" y="841"/>
      <point x="1230" y="707"/>
      <point x="1230" y="435" type="curve" smooth="yes"/>
      <point x="1230" y="0" type="line"/>
      <point x="1413" y="0" type="line"/>
      <point x="1413" y="485" type="line" smooth="yes"/>
      <point x="1413" y="745"/>
      <point x="1266" y="872"/>
      <point x="1015" y="872" type="curve" smooth="yes"/>
      <point x="788" y="872"/>
      <point x="602" y="767"/>
      <point x="604" y="500" type="curve"/>
      <point x="615" y="391" type="line"/>
    </contour>
    <contour>
      <point x="68" y="1420" type="line"/>
      <point x="968" y="1420" type="line"/>
      <point x="968" y="1438" type="line"/>
      <point x="68" y="1438" type="line"/>
    </contour>
  </outline>
</glyph>
<glyph name="Be-cy" format="2">
  <advance width="1267"/>
  <unicode hex="0411"/>
  <outline>
    <contour>
      <point x="175" y="0" type="line"/>
      <point x="650" y="0" type="line" smooth="yes"/>
      <point x="1002" y="0"/>
      <point x="1178" y="112"/>
      <point x="1178" y="390" type="curve" smooth="yes"/>
      <point x="1178" y="669"/>
      <point x="1002" y="781"/>
      <point x="650" y="781" type="curve" smooth="yes"/>
      <point x="246" y="781" type="line"/>
      <point x="341" y="686" type="line"/>
      <point x="341" y="1438" type="line"/>
      <point x="175" y="1438" type="line"/>
    </contour>
    <contour>
      <point x="341" y="8" type="line"/>
      <point x="341" y="858" type="line"/>
      <point x="246" y="763" type="line"/>
      <point x="598" y="764" type="line" smooth="yes"/>
      <point x="855" y="764"/>
      <point x="990" y="681"/>
      <point x="990" y="390" type="curve" smooth="yes"/>
      <point x="990" y="88"/>
      <point x="844" y="17"/>
      <point x="588" y="17" type="curve" smooth="yes"/>
      <point x="246" y="17" type="line"/>
    </contour>
    <contour>
      <point x="970" y="1420" type="line"/>
      <point x="970" y="1438" type="line"/>
      <point x="175" y="1438" type="line"/>
      <point x="175" y="1420" type="line"/>
    </contour>
  </outline>
</glyph>
<glyph name="De-cy" format="2">
  <advance width="1540"/>
  <unicode hex="0414"/>
  <outline>
    <contour>
      <point x="93" y="0" type="line"/>
      <point x="1456" y="0" type="line"/>
      <point x="1456" y="18" type="line"/>
      <point x="1130" y="18" type="line"/>
      <point x="1299" y="12" type="line"/>
      <point x="1299" y="1430" type="line"/>
      <point x="514" y="1430" type="line"/>
      <point x="514" y="1412" type="line"/>
      <point x="1249" y="1412" type="line"/>
      <point x="1116" y="1418" type="line"/>
      <point x="1116" y="12" type="line"/>
      <point x="1249" y="18" type="line"/>
      <point x="93" y="18" type="line"/>
    </contour>
    <contour>
      <point x="333" y="14" type="line"/>
      <point x="592" y="523"/>
      <point x="609" y="936"/>
      <point x="613" y="1413" type="curve"/>
      <point x="514" y="1414" type="line"/>
      <point x="510" y="938"/>
      <point x="492" y="524"/>
      <point x="220" y="16" type="curve"/>
    </contour>
    <component base="_cyrillicdescender01.case" xOffset="1226"/>
    <component base="_cyrillicdescender01.case" xScale="-1" xOffset="314"/>
  </outline>
</glyph>
<glyph name="Zhe-cy" format="2">
  <advance width="1798"/>
  <unicode hex="0416"/>
  <anchor x="1778" y="0" name="bottomright"/>
  <anchor x="899" y="1438" name="top"/>
  <outline>
    <contour>
      <point x="1574" y="0" type="line"/>
      <point x="1726" y="0" type="line"/>
      <point x="1150" y="795" type="line"/>
      <point x="1052" y="738" type="line"/>
    </contour>
    <contour>
      <point x="808" y="0" type="line"/>
      <point x="990" y="0" type="line"/>
      <point x="990" y="1438" type="line"/>
      <point x="808" y="1438" type="line"/>
    </contour>
    <contour>
      <point x="881" y="734" type="line"/>
      <point x="1175" y="734" type="line"/>
      <point x="1175" y="752" type="line"/>
      <point x="881" y="752" type="line"/>
    </contour>
    <contour>
      <point x="1067" y="743" type="line"/>
      <point x="1155" y="721" type="line"/>
      <point x="1664" y="1438" type="line"/>
      <point x="1558" y="1438" type="line"/>
    </contour>
    <contour>
      <point x="224" y="0" type="line"/>
      <point x="746" y="738" type="line"/>
      <point x="648" y="795" type="line"/>
      <point x="72" y="0" type="line"/>
    </contour>
    <contour>
      <point x="917" y="734" type="line"/>
      <point x="917" y="752" type="line"/>
      <point x="628" y="752" type="line"/>
      <point x="628" y="734" type="line"/>
    </contour>
    <contour>
      <point x="731" y="744" type="line"/>
      <point x="240" y="1438" type="line"/>
      <point x="134" y="1438" type="line"/>
      <point x="643" y="721" type="line"/>
    </contour>
  </outline>
</glyph>
<glyph name="Ze-cy" format="2">
  <advance width="1200"/>
  <unicode hex="0417"/>
  <anchor x="600" y="0" name="bottom"/>
  <anchor x="600" y="1438" name="top"/>
  <outline>
    <contour>
      <point x="550" y="-30" type="curve" smooth="yes"/>
      <point x="881" y="-30"/>
      <point x="1122" y="59"/>
      <point x="1122" y="379" type="curve" smooth="yes"/>
      <point x="1122" y="604"/>
      <point x="998" y="751"/>
      <point x="696" y="763" type="curve"/>
      <point x="673" y="747" type="line"/>
      <point x="937" y="740"/>
      <point x="1040" y="900"/>
      <point x="1040" y="1107" type="curve" smooth="yes"/>
      <point x="1040" y="1367"/>
      <point x="876" y="1465"/>
      <point x="587" y="1465" type="curve" smooth="yes"/>
      <point x="361" y="1465"/>
      <point x="238" y="1377"/>
      <point x="159" y="1239" type="curve"/>
      <point x="254" y="1178" type="line"/>
      <point x="293" y="1329"/>
      <point x="390" y="1443"/>
      <point x="583" y="1443" type="curve" smooth="yes"/>
      <point x="770" y="1443"/>
      <point x="868" y="1356"/>
      <point x="868" y="1114" type="curve" smooth="yes"/>
      <point x="868" y="882"/>
      <point x="772" y="765"/>
      <point x="546" y="765" type="curve" smooth="yes"/>
      <point x="469" y="765" type="line"/>
      <point x="469" y="745" type="line"/>
      <point x="550" y="745" type="line" smooth="yes"/>
      <point x="810" y="745"/>
      <point x="916" y="637"/>
      <point x="916" y="380" type="curve" smooth="yes"/>
      <point x="916" y="109"/>
      <point x="797" y="-10"/>
      <point x="556" y="-10" type="curve" smooth="yes"/>
      <point x="345" y="-10"/>
      <point x="214" y="138"/>
      <point x="191" y="307" type="curve"/>
      <point x="58" y="277" type="line"/>
      <point x="108" y="110"/>
      <point x="216" y="-30"/>
    </contour>
  </outline>
</glyph>
<glyph name="Ii-cy" format="2">
  <advance width="1512"/>
  <unicode hex="0418"/>
  <anchor x="756" y="0" name="bottom"/>
  <anchor x="1492" y="0" name="bottomright"/>
  <anchor x="756" y="1438" name="top"/>
  <outline>
    <contour>
      <point x="1340" y="0" type="line"/>
      <point x="1340" y="1453" type="line"/>
      <point x="1324" y="1453" type="line"/>
      <point x="184" y="212" type="line"/>
      <point x="208" y="100" type="line"/>
      <point x="208" y="1438" type="line"/>
      <point x="172" y="1438" type="line"/>
      <point x="172" y="-20" type="line"/>
      <point x="192" y="-20" type="line"/>
      <point x="1330" y="1220" type="line"/>
      <point x="1304" y="1358" type="line"/>
      <point x="1304" y="0" type="line"/>
    </contour>
  </outline>
</glyph>
<glyph name="Ka-cy" format="2">
  <advance width="1182"/>
  <unicode hex="041A"/>
  <anchor x="1272" y="0" name="bottomright"/>
  <anchor x="592" y="1438" name="top"/>
  <outline>
    <contour>
      <point x="172" y="0" type="line"/>
      <point x="355" y="0" type="line"/>
      <point x="355" y="1430" type="line"/>
      <point x="172" y="1430" type="line"/>
    </contour>
    <contour>
      <point x="362" y="684" type="line"/>
      <point x="1101" y="1430" type="line"/>
      <point x="1021" y="1430" type="line"/>
      <point x="322" y="724" type="line"/>
    </contour>
    <contour>
      <point x="931" y="0" type="line"/>
      <point x="1145" y="0" type="line"/>
      <point x="433" y="764" type="line"/>
      <point x="253" y="729" type="line"/>
    </contour>
  </outline>
</glyph>
<glyph name="El-cy" format="2">
  <advance width="1416"/>
  <unicode hex="041B"/>
  <outline>
    <contour>
      <point x="487" y="1438" type="line"/>
      <point x="476" y="1005"/>
      <point x="466" y="840"/>
      <point x="426" y="621" type="curve" smooth="yes"/>
      <point x="378" y="356"/>
      <point x="288" y="118"/>
      <point x="98" y="118" type="curve" smooth="yes"/>
      <point x="29" y="118" type="line"/>
      <point x="29" y="0" type="line"/>
      <point x="117" y="0" type="line" smooth="yes"/>
      <point x="309" y="0"/>
      <point x="394" y="285"/>
      <point x="451" y="618" type="curve" smooth="yes"/>
      <point x="510" y="1004"/>
      <point x="502" y="1274"/>
      <point x="510" y="1426" type="curve"/>
      <point x="497" y="1420" type="line"/>
      <point x="1143" y="1420" type="line"/>
      <point x="1061" y="1432" type="line"/>
      <point x="1061" y="0" type="line"/>
      <point x="1244" y="0" type="line"/>
      <point x="1244" y="1438" type="line"/>
    </contour>
  </outline>
</glyph>
<glyph name="Pe-cy" format="2">
  <advance width="1560"/>
  <unicode hex="041F"/>
  <anchor x="1540" y="0" name="bottomright"/>
  <outline>
    <contour>
      <point x="173" y="0" type="line"/>
      <point x="356" y="0" type="line"/>
      <point x="356" y="1420" type="line"/>
      <point x="1205" y="1420" type="line"/>
      <point x="1205" y="0" type="line"/>
      <point x="1388" y="0" type="line"/>
      <point x="1388" y="1438" type="line"/>
      <point x="173" y="1438" type="line"/>
    </contour>
  </outline>
</glyph>
<glyph name="U-cy" format="2">
  <advance width="962"/>
  <unicode hex="0423"/>
  <guideline x="1012" y="1279" angle="246.875"/>
  <guideline x="1020" y="1187" angle="66.9398"/>
  <anchor x="481" y="1438" name="top"/>
  <outline>
    <contour>
      <point x="176" y="0" type="line"/>
      <point x="205" y="0" type="line" smooth="yes"/>
      <point x="341" y="0"/>
      <point x="404" y="51"/>
      <point x="485" y="261" type="curve" smooth="yes"/>
      <point x="921" y="1434" type="line"/>
      <point x="865" y="1434" type="line"/>
      <point x="434" y="262" type="line" smooth="yes"/>
      <point x="388" y="140"/>
      <point x="335" y="43"/>
      <point x="238" y="43" type="curve" smooth="yes"/>
      <point x="176" y="43" type="line"/>
    </contour>
    <contour>
      <point x="508" y="415" type="line"/>
      <point x="598" y="630" type="line"/>
      <point x="233" y="1434" type="line"/>
      <point x="39" y="1434" type="line"/>
    </contour>
  </outline>
</glyph>
<glyph name="Ef-cy" format="2">
  <advance width="1404"/>
  <unicode hex="0424"/>
  <outline>
    <contour>
      <point x="657" y="195" type="curve"/>
      <point x="657" y="210" type="line"/>
      <point x="413" y="210"/>
      <point x="255" y="404"/>
      <point x="255" y="713" type="curve" smooth="yes"/>
      <point x="255" y="1027"/>
      <point x="413" y="1224"/>
      <point x="657" y="1224" type="curve"/>
      <point x="657" y="1239" type="line"/>
      <point x="297" y="1239"/>
      <point x="66" y="1035"/>
      <point x="66" y="709" type="curve" smooth="yes"/>
      <point x="66" y="393"/>
      <point x="297" y="195"/>
    </contour>
    <contour>
      <point x="611" y="0" type="line"/>
      <point x="794" y="0" type="line"/>
      <point x="794" y="1438" type="line"/>
      <point x="611" y="1438" type="line"/>
    </contour>
    <contour>
      <point x="747" y="195" type="line"/>
      <point x="1107" y="195"/>
      <point x="1339" y="393"/>
      <point x="1339" y="709" type="curve" smooth="yes"/>
      <point x="1339" y="1035"/>
      <point x="1107" y="1239"/>
      <point x="747" y="1239" type="curve"/>
      <point x="747" y="1224" type="line"/>
      <point x="991" y="1224"/>
      <point x="1149" y="1025"/>
      <point x="1149" y="708" type="curve" smooth="yes"/>
      <point x="1149" y="403"/>
      <point x="991" y="210"/>
      <point x="747" y="210" type="curve"/>
    </contour>
  </outline>
</glyph>
<glyph name="Che-cy" format="2">
  <advance width="1261"/>
  <unicode hex="0427"/>
  <anchor x="1239" y="0" name="bottomright"/>
  <anchor x="605" y="1438" name="top"/>
  <outline>
    <contour>
      <point x="889" y="0" type="line"/>
      <point x="1088" y="0" type="line"/>
      <point x="1088" y="1438" type="line"/>
      <point x="890" y="1438" type="line"/>
      <point x="890" y="965" type="line" smooth="yes"/>
      <point x="890" y="685"/>
      <point x="694" y="597"/>
      <point x="544" y="597" type="curve" smooth="yes"/>
      <point x="350" y="597"/>
      <point x="275" y="731"/>
      <point x="275" y="1003" type="curve" smooth="yes"/>
      <point x="275" y="1438" type="line"/>
      <point x="92" y="1438" type="line"/>
      <point x="92" y="953" type="line" smooth="yes"/>
      <point x="92" y="693"/>
      <point x="240" y="566"/>
      <point x="491" y="566" type="curve" smooth="yes"/>
      <point x="718" y="566"/>
      <point x="903" y="671"/>
      <point x="901" y="938" type="curve"/>
      <point x="891" y="1047" type="line"/>
    </contour>
  </outline>
</glyph>
<glyph name="Sha-cy" format="2">
  <advance width="1765"/>
  <unicode hex="0428"/>
  <outline>
    <contour>
      <point x="175" y="0" type="line"/>
      <point x="1590" y="0" type="line"/>
      <point x="1590" y="1438" type="line"/>
      <point x="1407" y="1438" type="line"/>
      <point x="1407" y="18" type="line"/>
      <point x="358" y="18" type="line"/>
      <point x="358" y="1438" type="line"/>
      <point x="175" y="1438" type="line"/>
    </contour>
    <contour>
      <point x="797" y="0" type="line"/>
      <point x="980" y="0" type="line"/>
      <point x="980" y="1438" type="line"/>
      <point x="797" y="1438" type="line"/>
    </contour>
  </outline>
</glyph>
<glyph name="Softsign-cy" format="2">
  <advance width="1160"/>
  <unicode hex="042C"/>
  <outline>
    <contour>
      <point x="175" y="0" type="line"/>
      <point x="572" y="0" type="line" smooth="yes"/>
      <point x="731" y="0"/>
      <point x="859" y="37"/>
      <point x="945" y="110" type="curve" smooth="yes"/>
      <point x="1024" y="178"/>
      <point x="1069" y="277"/>
      <point x="1070" y="405" type="curve" smooth="yes"/>
      <point x="1072" y="543"/>
      <point x="1025" y="650"/>
      <point x="944" y="721" type="curve" smooth="yes"/>
      <point x="856" y="798"/>
      <point x="731" y="832"/>
      <point x="587" y="833" type="curve" smooth="yes"/>
      <point x="241" y="833" type="line"/>
      <point x="358" y="823" type="line"/>
      <point x="358" y="1438" type="line"/>
      <point x="175" y="1438" type="line"/>
    </contour>
    <contour>
      <point x="358" y="12" type="line"/>
      <point x="358" y="824" type="line"/>
      <point x="240" y="814" type="line"/>
      <point x="555" y="815" type="line" smooth="yes"/>
      <point x="751" y="815"/>
      <point x="905" y="657"/>
      <point x="902" y="416" type="curve" smooth="yes"/>
      <point x="900" y="177"/>
      <point x="746" y="19"/>
      <point x="549" y="18" type="curve" smooth="yes"/>
      <point x="218" y="17" type="line"/>
    </contour>
  </outline>
</glyph>
<glyph name="be-cy" format="2">
  <advance width="1133"/>
  <unicode hex="0431"/>
  <outline>
    <contour>
      <point x="576" y="-30" type="curve" smooth="yes"/>
      <point x="882" y="-28"/>
      <point x="1085" y="163"/>
      <point x="1085" y="451" type="curve" smooth="yes"/>
      <point x="1085" y="746"/>
      <point x="890" y="933"/>
      <point x="576" y="930" type="curve" smooth="yes"/>
      <point x="444" y="929"/>
      <point x="332" y="881"/>
      <point x="255" y="804" type="curve"/>
      <point x="285" y="750" type="line"/>
      <point x="325" y="986"/>
      <point x="379" y="1229"/>
      <point x="615" y="1289" type="curve" smooth="yes"/>
      <point x="730" y="1326"/>
      <point x="878" y="1295"/>
      <point x="955" y="1437" type="curve"/>
      <point x="899" y="1458" type="line"/>
      <point x="841" y="1339"/>
      <point x="715" y="1341"/>
      <point x="625" y="1314" type="curve" smooth="yes"/>
      <point x="273" y="1245"/>
      <point x="74" y="927"/>
      <point x="74" y="441" type="curve" smooth="yes"/>
      <point x="74" y="149"/>
      <point x="266" y="-33"/>
    </contour>
    <contour>
      <point x="581" y="-10" type="curve" smooth="yes"/>
      <point x="386" y="-11"/>
      <point x="265" y="171"/>
      <point x="265" y="448" type="curve" smooth="yes"/>
      <point x="265" y="738"/>
      <point x="384" y="906"/>
      <point x="571" y="907" type="curve" smooth="yes"/>
      <point x="767" y="909"/>
      <point x="893" y="722"/>
      <point x="893" y="447" type="curve" smooth="yes"/>
      <point x="893" y="161"/>
      <point x="772" y="-8"/>
    </contour>
  </outline>
</glyph>
<glyph name="ve-cy" format="2">
  <advance width="945"/>
  <unicode hex="0432"/>
  <outline>
    <contour>
      <point x="124" y="0" type="line"/>
      <point x="503" y="0" type="line" smooth="yes"/>
      <point x="744" y="0"/>
      <point x="885" y="53"/>
      <point x="885" y="251" type="curve" smooth="yes"/>
      <point x="885" y="441"/>
      <point x="769" y="488"/>
      <point x="599" y="516" type="curve"/>
      <point x="602" y="511" type="line"/>
      <point x="761" y="530"/>
      <point x="840" y="589"/>
      <point x="840" y="703" type="curve" smooth="yes"/>
      <point x="840" y="862"/>
      <point x="688" y="920"/>
      <point x="478" y="920" type="curve" smooth="yes"/>
      <point x="124" y="920" type="line"/>
    </contour>
    <contour>
      <point x="287" y="9" type="line"/>
      <point x="287" y="501" type="line"/>
      <point x="260" y="499" type="line"/>
      <point x="459" y="499" type="line" smooth="yes"/>
      <point x="611" y="499"/>
      <point x="726" y="441"/>
      <point x="726" y="251" type="curve" smooth="yes"/>
      <point x="726" y="43"/>
      <point x="594" y="15"/>
      <point x="441" y="15" type="curve" smooth="yes"/>
      <point x="156" y="15" type="line"/>
    </contour>
    <contour>
      <point x="287" y="512" type="line"/>
      <point x="287" y="911" type="line"/>
      <point x="154" y="905" type="line"/>
      <point x="402" y="905" type="line" smooth="yes"/>
      <point x="605" y="905"/>
      <point x="682" y="828"/>
      <point x="682" y="700" type="curve" smooth="yes"/>
      <point x="682" y="561"/>
      <point x="587" y="514"/>
      <point x="470" y="514" type="curve" smooth="yes"/>
      <point x="265" y="514" type="line"/>
    </contour>
  </outline>
</glyph>
<glyph name="ge-cy" format="2">
  <advance width="772"/>
  <unicode hex="0433"/>
  <anchor x="752" y="0" name="bottomright"/>
  <anchor x="210" y="495" name="center"/>
  <anchor x="387" y="920" name="top"/>
  <outline>
    <contour>
      <point x="127" y="920" type="line"/>
      <point x="127" y="0" type="line"/>
      <point x="294" y="0" type="line"/>
      <point x="294" y="906" type="line"/>
      <point x="170" y="899" type="line"/>
      <point x="774" y="898" type="line"/>
      <point x="774" y="920" type="line"/>
    </contour>
  </outline>
</glyph>
<glyph name="de-cy" format="2">
  <advance width="1098"/>
  <unicode hex="0434"/>
  <anchor x="1050" y="0" name="_bottomright"/>
  <outline>
    <contour>
      <point x="47" y="0" type="line"/>
      <point x="1021" y="0" type="line"/>
      <point x="1021" y="16" type="line"/>
      <point x="730" y="16" type="line"/>
      <point x="912" y="11" type="line"/>
      <point x="912" y="920" type="line"/>
      <point x="344" y="920" type="line"/>
      <point x="344" y="900" type="line"/>
      <point x="886" y="900" type="line"/>
      <point x="735" y="906" type="line"/>
      <point x="735" y="11" type="line"/>
      <point x="886" y="20" type="line"/>
      <point x="47" y="20" type="line"/>
    </contour>
    <contour>
      <point x="234" y="9" type="line"/>
      <point x="391" y="362"/>
      <point x="421" y="615"/>
      <point x="426" y="908" type="curve"/>
      <point x="344" y="908" type="line"/>
      <point x="338" y="615"/>
      <point x="314" y="363"/>
      <point x="140" y="9" type="curve"/>
    </contour>
    <component base="_cyrillicdescender02" xOffset="721"/>
    <component base="_cyrillicdescender02" xScale="-1" xOffset="381"/>
  </outline>
</glyph>
<glyph name="zhe-cy" format="2">
  <advance width="1305"/>
  <unicode hex="0436"/>
  <anchor x="1285" y="0" name="bottomright"/>
  <anchor x="653" y="921" name="top"/>
  <outline>
    <contour>
      <point x="1138" y="0" type="line"/>
      <point x="1287" y="0" type="line"/>
      <point x="897" y="493" type="line"/>
      <point x="770" y="471" type="line"/>
    </contour>
    <contour>
      <point x="564" y="0" type="line"/>
      <point x="741" y="0" type="line"/>
      <point x="741" y="920" type="line"/>
      <point x="564" y="920" type="line"/>
    </contour>
    <contour>
      <point x="648" y="469" type="line"/>
      <point x="883" y="468" type="line"/>
      <point x="889" y="478" type="line"/>
      <point x="655" y="478" type="line"/>
    </contour>
    <contour>
      <point x="793" y="469" type="line"/>
      <point x="875" y="446" type="line"/>
      <point x="1251" y="920" type="line"/>
      <point x="1154" y="920" type="line"/>
    </contour>
    <contour>
      <point x="167" y="0" type="line"/>
      <point x="536" y="471" type="line"/>
      <point x="407" y="493" type="line"/>
      <point x="18" y="0" type="line"/>
    </contour>
    <contour>
      <point x="646" y="469" type="line"/>
      <point x="639" y="478" type="line"/>
      <point x="419" y="478" type="line"/>
      <point x="425" y="468" type="line"/>
    </contour>
    <contour>
      <point x="510" y="472" type="line"/>
      <point x="150" y="920" type="line"/>
      <point x="54" y="920" type="line"/>
      <point x="430" y="446" type="line"/>
    </contour>
  </outline>
</glyph>
<glyph name="ze-cy" format="2">
  <advance width="842"/>
  <unicode hex="0437"/>
  <anchor x="422" y="0" name="bottom"/>
  <anchor x="422" y="920" name="top"/>
  <outline>
    <contour>
      <point x="417" y="-28" type="curve" smooth="yes"/>
      <point x="666" y="-20"/>
      <point x="785" y="60"/>
      <point x="785" y="233" type="curve" smooth="yes"/>
      <point x="785" y="388"/>
      <point x="703" y="477"/>
      <point x="453" y="487" type="curve"/>
      <point x="447" y="470" type="line"/>
      <point x="645" y="470"/>
      <point x="735" y="561"/>
      <point x="735" y="706" type="curve" smooth="yes"/>
      <point x="735" y="861"/>
      <point x="626" y="940"/>
      <point x="428" y="945" type="curve" smooth="yes"/>
      <point x="245" y="944"/>
      <point x="158" y="901"/>
      <point x="93" y="797" type="curve"/>
      <point x="177" y="750" type="line"/>
      <point x="200" y="831"/>
      <point x="235" y="923"/>
      <point x="396" y="923" type="curve" smooth="yes"/>
      <point x="524" y="923"/>
      <point x="590" y="863"/>
      <point x="590" y="704" type="curve" smooth="yes"/>
      <point x="590" y="560"/>
      <point x="507" y="486"/>
      <point x="365" y="486" type="curve" smooth="yes"/>
      <point x="310" y="486" type="line"/>
      <point x="310" y="475" type="line"/>
      <point x="371" y="475" type="line" smooth="yes"/>
      <point x="529" y="475"/>
      <point x="613" y="410"/>
      <point x="613" y="237" type="curve" smooth="yes"/>
      <point x="613" y="71"/>
      <point x="524" y="-7"/>
      <point x="371" y="-7" type="curve" smooth="yes"/>
      <point x="234" y="-7"/>
      <point x="151" y="84"/>
      <point x="132" y="202" type="curve"/>
      <point x="9" y="175" type="line"/>
      <point x="65" y="40"/>
      <point x="160" y="-28"/>
    </contour>
  </outline>
</glyph>
<glyph name="ii-cy" format="2">
  <advance width="1023"/>
  <unicode hex="0438"/>
  <anchor x="1003" y="0" name="bottomright"/>
  <anchor x="512" y="920" name="top"/>
  <outline>
    <contour>
      <point x="127" y="-7" type="line"/>
      <point x="162" y="-7" type="line"/>
      <point x="887" y="750" type="line"/>
      <point x="869" y="829" type="line"/>
      <point x="870" y="0" type="line"/>
      <point x="897" y="0" type="line"/>
      <point x="897" y="923" type="line"/>
      <point x="866" y="923" type="line"/>
      <point x="137" y="165" type="line"/>
      <point x="155" y="69" type="line"/>
      <point x="154" y="916" type="line"/>
      <point x="127" y="916" type="line"/>
    </contour>
  </outline>
</glyph>
<glyph name="ka-cy" format="2">
  <advance width="900"/>
  <unicode hex="043A"/>
  <anchor x="880" y="0" name="bottomright"/>
  <anchor x="450" y="921" name="top"/>
  <outline>
    <contour>
      <point x="127" y="0" type="line"/>
      <point x="309" y="0" type="line"/>
      <point x="309" y="920" type="line"/>
      <point x="127" y="920" type="line"/>
    </contour>
    <contour>
      <point x="357" y="466" type="line"/>
      <point x="849" y="920" type="line"/>
      <point x="778" y="920" type="line"/>
      <point x="277" y="456" type="line"/>
    </contour>
    <contour>
      <point x="686" y="0" type="line"/>
      <point x="889" y="0" type="line"/>
      <point x="392" y="504" type="line"/>
      <point x="247" y="445" type="line"/>
    </contour>
  </outline>
</glyph>
<glyph name="el-cy" format="2">
  <advance width="982"/>
  <unicode hex="043B"/>
  <outline>
    <contour>
      <point x="679" y="0" type="line"/>
      <point x="856" y="0" type="line"/>
      <point x="856" y="921" type="line"/>
      <point x="306" y="921" type="line"/>
      <point x="306" y="903" type="line"/>
      <point x="837" y="903" type="line"/>
      <point x="679" y="909" type="line"/>
    </contour>
    <contour>
      <point x="7" y="0" type="line"/>
      <point x="72" y="0" type="line" smooth="yes"/>
      <point x="187" y="0"/>
      <point x="250" y="151"/>
      <point x="289" y="439" type="curve" smooth="yes"/>
      <point x="313" y="607"/>
      <point x="320" y="773"/>
      <point x="324" y="906" type="curve"/>
      <point x="306" y="906" type="line"/>
      <point x="303" y="778"/>
      <point x="294" y="585"/>
      <point x="269" y="418" type="curve" smooth="yes"/>
      <point x="236" y="180"/>
      <point x="180" y="88"/>
      <point x="55" y="88" type="curve" smooth="yes"/>
      <point x="7" y="88" type="line"/>
    </contour>
  </outline>
</glyph>
<glyph name="em-cy" format="2">
  <advance width="1257"/>
  <unicode hex="043C"/>
  <outline>
    <contour>
      <point x="127" y="0" type="line"/>
      <point x="154" y="0" type="line"/>
      <point x="154" y="879" type="line"/>
      <point x="143" y="855" type="line"/>
      <point x="579" y="20" type="line"/>
      <point x="998" y="887" type="line"/>
      <point x="969" y="888" type="line"/>
      <point x="969" y="0" type="line"/>
      <point x="1130" y="0" type="line"/>
      <point x="1130" y="920" type="line"/>
      <point x="968" y="920" type="line"/>
      <point x="596" y="144" type="line"/>
      <point x="645" y="217" type="line"/>
      <point x="279" y="920" type="line"/>
      <point x="127" y="920" type="line"/>
    </contour>
  </outline>
</glyph>
<glyph name="en-cy" format="2">
  <advance width="1112"/>
  <unicode hex="043D"/>
  <anchor x="1017" y="0" name="bottomright"/>
  <outline>
    <contour>
      <point x="126" y="0" type="line"/>
      <point x="303" y="0" type="line"/>
      <point x="303" y="501" type="line"/>
      <point x="186" y="464" type="line"/>
      <point x="926" y="464" type="line"/>
      <point x="809" y="501" type="line"/>
      <point x="809" y="0" type="line"/>
      <point x="986" y="0" type="line"/>
      <point x="986" y="921" type="line"/>
      <point x="809" y="921" type="line"/>
      <point x="809" y="453" type="line"/>
      <point x="926" y="484" type="line"/>
      <point x="186" y="484" type="line"/>
      <point x="303" y="453" type="line"/>
      <point x="303" y="921" type="line"/>
      <point x="126" y="921" type="line"/>
    </contour>
  </outline>
</glyph>
<glyph name="pe-cy" format="2">
  <advance width="1108"/>
  <unicode hex="043F"/>
  <anchor x="1088" y="0" name="bottomright"/>
  <outline>
    <contour>
      <point x="127" y="0" type="line"/>
      <point x="304" y="0" type="line"/>
      <point x="304" y="899" type="line"/>
      <point x="805" y="899" type="line"/>
      <point x="805" y="0" type="line"/>
      <point x="982" y="0" type="line"/>
      <point x="982" y="920" type="line"/>
      <point x="127" y="920" type="line"/>
    </contour>
  </outline>
</glyph>
<glyph name="te-cy" format="2">
  <advance width="863"/>
  <unicode hex="0442"/>
  <anchor x="843" y="0" name="bottomright"/>
  <outline>
    <contour>
      <point x="341" y="0" type="line"/>
      <point x="523" y="0" type="line"/>
      <point x="523" y="913" type="line"/>
      <point x="421" y="899" type="line"/>
      <point x="865" y="899" type="line"/>
      <point x="865" y="920" type="line"/>
      <point x="-2" y="920" type="line"/>
      <point x="-2" y="899" type="line"/>
      <point x="443" y="899" type="line"/>
      <point x="341" y="913" type="line"/>
    </contour>
  </outline>
</glyph>
<glyph name="ef-cy" format="2">
  <advance width="1418"/>
  <unicode hex="0444"/>
  <outline>
    <contour>
      <point x="904" y="-14" type="curve" smooth="yes"/>
      <point x="1208" y="-14"/>
      <point x="1362" y="146"/>
      <point x="1362" y="462" type="curve" smooth="yes"/>
      <point x="1362" y="783"/>
      <point x="1203" y="940"/>
      <point x="904" y="940" type="curve" smooth="yes"/>
      <point x="874" y="940"/>
      <point x="833" y="937"/>
      <point x="783" y="906" type="curve"/>
      <point x="783" y="882" type="line"/>
      <point x="827" y="908"/>
      <point x="861" y="918"/>
      <point x="902" y="918" type="curve" smooth="yes"/>
      <point x="1069" y="918"/>
      <point x="1178" y="736"/>
      <point x="1178" y="463" type="curve" smooth="yes"/>
      <point x="1178" y="188"/>
      <point x="1068" y="9"/>
      <point x="902" y="9" type="curve" smooth="yes"/>
      <point x="862" y="9"/>
      <point x="827" y="19"/>
      <point x="783" y="44" type="curve"/>
      <point x="783" y="21" type="line"/>
      <point x="833" y="-10"/>
      <point x="874" y="-14"/>
    </contour>
    <contour>
      <point x="514" y="-14" type="curve" smooth="yes"/>
      <point x="544" y="-14"/>
      <point x="585" y="-10"/>
      <point x="635" y="21" type="curve"/>
      <point x="635" y="44" type="line"/>
      <point x="591" y="19"/>
      <point x="557" y="9"/>
      <point x="516" y="9" type="curve" smooth="yes"/>
      <point x="349" y="9"/>
      <point x="240" y="190"/>
      <point x="240" y="463" type="curve" smooth="yes"/>
      <point x="240" y="739"/>
      <point x="350" y="918"/>
      <point x="516" y="918" type="curve" smooth="yes"/>
      <point x="556" y="918"/>
      <point x="592" y="908"/>
      <point x="635" y="882" type="curve"/>
      <point x="635" y="905" type="line"/>
      <point x="585" y="936"/>
      <point x="543" y="940"/>
      <point x="514" y="940" type="curve" smooth="yes"/>
      <point x="215" y="940"/>
      <point x="56" y="783"/>
      <point x="56" y="462" type="curve" smooth="yes"/>
      <point x="56" y="146"/>
      <point x="210" y="-14"/>
    </contour>
    <contour>
      <point x="620" y="-526" type="line"/>
      <point x="797" y="-526" type="line"/>
      <point x="797" y="1438" type="line"/>
      <point x="620" y="1438" type="line"/>
    </contour>
  </outline>
</glyph>
<glyph name="che-cy" format="2">
  <advance width="939"/>
  <unicode hex="0447"/>
  <anchor x="819" y="0" name="bottomright"/>
  <anchor x="470" y="921" name="top"/>
  <outline>
    <contour>
      <point x="635" y="0" type="line"/>
      <point x="814" y="0" type="line"/>
      <point x="814" y="916" type="line"/>
      <point x="637" y="916" type="line"/>
      <point x="637" y="561" type="line" smooth="yes"/>
      <point x="637" y="426"/>
      <point x="530" y="346"/>
      <point x="412" y="346" type="curve" smooth="yes"/>
      <point x="281" y="346"/>
      <point x="233" y="449"/>
      <point x="233" y="619" type="curve" smooth="yes"/>
      <point x="233" y="916" type="line"/>
      <point x="56" y="916" type="line"/>
      <point x="56" y="636" type="line" smooth="yes"/>
      <point x="56" y="398"/>
      <point x="190" y="318"/>
      <point x="370" y="318" type="curve" smooth="yes"/>
      <point x="545" y="318"/>
      <point x="643" y="393"/>
      <point x="645" y="533" type="curve"/>
      <point x="637" y="531" type="line"/>
    </contour>
  </outline>
</glyph>
<glyph name="sha-cy" format="2">
  <advance width="1304"/>
  <unicode hex="0448"/>
  <anchor x="1200" y="0" name="bottomright"/>
  <outline>
    <contour>
      <point x="126" y="0" type="line"/>
      <point x="1178" y="0" type="line"/>
      <point x="1178" y="914" type="line"/>
      <point x="1009" y="914" type="line"/>
      <point x="1009" y="20" type="line"/>
      <point x="295" y="20" type="line"/>
      <point x="295" y="914" type="line"/>
      <point x="126" y="914" type="line"/>
    </contour>
    <contour>
      <point x="571" y="0" type="line"/>
      <point x="740" y="0" type="line"/>
      <point x="740" y="914" type="line"/>
      <point x="571" y="914" type="line"/>
    </contour>
  </outline>
</glyph>
<glyph name="softsign-cy" format="2">
  <advance width="840"/>
  <unicode hex="044C"/>
  <outline>
    <contour>
      <point x="127" y="0" type="line"/>
      <point x="417" y="0" type="line" smooth="yes"/>
      <point x="676" y="0"/>
      <point x="814" y="83"/>
      <point x="814" y="271" type="curve" smooth="yes"/>
      <point x="814" y="476"/>
      <point x="651" y="545"/>
      <point x="423" y="544" type="curve" smooth="yes"/>
      <point x="181" y="544" type="line"/>
      <point x="304" y="530" type="line"/>
      <point x="304" y="921" type="line"/>
      <point x="127" y="921" type="line"/>
    </contour>
    <contour>
      <point x="304" y="11" type="line"/>
      <point x="304" y="536" type="line"/>
      <point x="179" y="524" type="line"/>
      <point x="411" y="524" type="line" smooth="yes"/>
      <point x="550" y="524"/>
      <point x="639" y="428"/>
      <point x="639" y="273" type="curve" smooth="yes"/>
      <point x="639" y="120"/>
      <point x="557" y="20"/>
      <point x="415" y="20" type="curve" smooth="yes"/>
      <point x="156" y="20" type="line"/>
    </contour>
  </outline>
</glyph>
<glyph name="ereversed-cy" format="2">
  <advance width="1034"/>
  <unicode hex="044D"/>
  <anchor x="521" y="929" name="top"/>
  <outline>
    <contour>
      <point x="467" y="-34" type="curve" smooth="yes"/>
      <point x="768" y="-34"/>
      <point x="984" y="154"/>
      <point x="984" y="460" type="curve" smooth="yes"/>
      <point x="984" y="772"/>
      <point x="751" y="953"/>
      <point x="471" y="953" type="curve" smooth="yes"/>
      <point x="271" y="953"/>
      <point x="115" y="863"/>
      <point x="37" y="711" type="curve"/>
      <point x="213" y="704" type="line"/>
      <point x="275" y="839"/>
      <point x="359" y="932"/>
      <point x="470" y="932" type="curve" smooth="yes"/>
      <point x="641" y="932"/>
      <point x="782" y="731"/>
      <point x="782" y="458" type="curve" smooth="yes"/>
      <point x="782" y="197"/>
      <point x="643" y="-13"/>
      <point x="470" y="-13" type="curve" smooth="yes"/>
      <point x="359" y="-13"/>
      <point x="277" y="79"/>
      <point x="210" y="216" type="curve"/>
      <point x="31" y="210" type="line"/>
      <point x="105" y="51"/>
      <point x="264" y="-34"/>
    </contour>
    <contour>
      <point x="795" y="452" type="line"/>
      <point x="785" y="470" type="line"/>
      <point x="319" y="468" type="line"/>
      <point x="329" y="450" type="line"/>
    </contour>
  </outline>
</glyph>
<glyph name="ia-cy" format="2">
  <advance width="907"/>
  <unicode hex="044F"/>
  <anchor x="454" y="920" name="top"/>
  <outline>
    <contour>
      <point x="602" y="0" type="line"/>
      <point x="780" y="0" type="line"/>
      <point x="781" y="920" type="line"/>
      <point x="433" y="919" type="line" smooth="yes"/>
      <point x="261" y="919"/>
      <point x="97" y="841"/>
      <point x="96" y="662" type="curve" smooth="yes"/>
      <point x="95" y="513"/>
      <point x="203" y="400"/>
      <point x="407" y="396" type="curve" smooth="yes"/>
      <point x="492" y="396" type="line"/>
      <point x="675" y="396" type="line"/>
      <point x="604" y="403" type="line"/>
    </contour>
    <contour>
      <point x="604" y="407" type="line"/>
      <point x="674" y="416" type="line"/>
      <point x="509" y="416" type="line" smooth="yes"/>
      <point x="355" y="416"/>
      <point x="265" y="484"/>
      <point x="265" y="655" type="curve" smooth="yes"/>
      <point x="265" y="815"/>
      <point x="341" y="898"/>
      <point x="523" y="898" type="curve" smooth="yes"/>
      <point x="706" y="898" type="line"/>
      <point x="603" y="906" type="line"/>
    </contour>
    <contour>
      <point x="56" y="0" type="curve"/>
      <point x="223" y="0" type="line"/>
      <point x="238" y="55"/>
      <point x="248" y="104"/>
      <point x="263" y="170" type="curve" smooth="yes"/>
      <point x="287" y="253"/>
      <point x="314" y="301"/>
      <point x="345" y="338" type="curve" smooth="yes"/>
      <point x="397" y="397"/>
      <point x="433" y="397"/>
      <point x="502" y="407" type="curve"/>
      <point x="397" y="425" type="line" smooth="yes"/>
      <point x="314" y="435"/>
      <point x="248" y="397"/>
      <point x="206" y="360" type="curve" smooth="yes"/>
      <point x="159" y="318"/>
      <point x="132" y="275"/>
      <point x="114" y="200" type="curve" smooth="yes"/>
      <point x="102" y="147"/>
      <point x="73" y="50"/>
    </contour>
  </outline>
</glyph>
<glyph name="dje-cy" format="2">
  <advance width="1153"/>
  <unicode hex="0452"/>
  <outline>
    <contour>
      <point x="140" y="0" type="line"/>
      <point x="317" y="0" type="line"/>
      <point x="317" y="632" type="line" smooth="yes"/>
      <point x="317" y="812"/>
      <point x="498" y="923"/>
      <point x="646" y="923" type="curve" smooth="yes"/>
      <point x="807" y="923"/>
      <point x="865" y="780"/>
      <point x="865" y="543" type="curve" smooth="yes"/>
      <point x="865" y="50" type="line"/>
      <point x="1042" y="0" type="line"/>
      <point x="1042" y="572" type="line" smooth="yes"/>
      <point x="1042" y="809"/>
      <point x="889" y="947"/>
      <point x="666" y="947" type="curve" smooth="yes"/>
      <point x="467" y="947"/>
      <point x="306" y="836"/>
      <point x="302" y="608" type="curve"/>
      <point x="316" y="576" type="line"/>
      <point x="317" y="1514" type="line"/>
      <point x="140" y="1514" type="line"/>
    </contour>
    <contour>
      <point x="-6" y="1247" type="line"/>
      <point x="454" y="1247" type="line"/>
      <point x="454" y="1265" type="line"/>
      <point x="-6" y="1265" type="line"/>
    </contour>
    <contour>
      <point x="778" y="-566" type="curve" smooth="yes"/>
      <point x="980" y="-566"/>
      <point x="1042" y="-452"/>
      <point x="1042" y="-39" type="curve" smooth="yes"/>
      <point x="1042" y="421" type="line"/>
      <point x="865" y="421" type="line"/>
      <point x="865" y="12" type="line" smooth="yes"/>
      <point x="865" y="-338"/>
      <point x="883" y="-533"/>
      <point x="776" y="-545" type="curve" smooth="yes"/>
      <point x="712" y="-552"/>
      <point x="643" y="-484"/>
      <point x="643" y="-400" type="curve" smooth="yes"/>
      <point x="643" y="-378"/>
      <point x="647" y="-333"/>
      <point x="656" y="-308" type="curve"/>
      <point x="558" y="-325" type="line"/>
      <point x="547" y="-361"/>
      <point x="545" y="-393"/>
      <point x="545" y="-407" type="curve" smooth="yes"/>
      <point x="545" y="-509"/>
      <point x="620" y="-566"/>
    </contour>
  </outline>
</glyph>
<glyph name="Yat-cy" format="2">
  <advance width="1063"/>
  <unicode hex="0462"/>
  <outline>
    <contour>
      <point x="206" y="0" type="line"/>
      <point x="544" y="0" type="line" smooth="yes"/>
      <point x="677" y="0"/>
      <point x="787" y="29"/>
      <point x="862" y="98" type="curve" smooth="yes"/>
      <point x="924" y="155"/>
      <point x="972" y="251"/>
      <point x="973" y="370" type="curve" smooth="yes"/>
      <point x="975" y="489"/>
      <point x="924" y="583"/>
      <point x="861" y="641" type="curve" smooth="yes"/>
      <point x="783" y="714"/>
      <point x="676" y="740"/>
      <point x="556" y="740" type="curve" smooth="yes"/>
      <point x="268" y="741" type="line"/>
      <point x="389" y="733" type="line"/>
      <point x="389" y="1438" type="line"/>
      <point x="206" y="1438" type="line"/>
    </contour>
    <contour>
      <point x="389" y="10" type="line"/>
      <point x="389" y="734" type="line"/>
      <point x="267" y="723" type="line"/>
      <point x="529" y="724" type="line" smooth="yes"/>
      <point x="693" y="724"/>
      <point x="819" y="584"/>
      <point x="817" y="370" type="curve" smooth="yes"/>
      <point x="815" y="157"/>
      <point x="688" y="16"/>
      <point x="524" y="16" type="curve" smooth="yes"/>
      <point x="249" y="15" type="line"/>
    </contour>
    <contour>
      <point x="37" y="1286" type="line"/>
      <point x="558" y="1286" type="line"/>
      <point x="558" y="1304" type="line"/>
      <point x="37" y="1304" type="line"/>
    </contour>
  </outline>
</glyph>
<glyph name="yat-cy" format="2">
  <advance width="853"/>
  <unicode hex="0463"/>
  <anchor x="226" y="1201" name="center"/>
  <outline>
    <contour>
      <point x="140" y="0" type="line"/>
      <point x="430" y="0" type="line" smooth="yes"/>
      <point x="689" y="0"/>
      <point x="827" y="83"/>
      <point x="827" y="271" type="curve" smooth="yes"/>
      <point x="827" y="476"/>
      <point x="664" y="545"/>
      <point x="436" y="544" type="curve" smooth="yes"/>
      <point x="194" y="544" type="line"/>
      <point x="317" y="530" type="line"/>
      <point x="317" y="1514" type="line"/>
      <point x="140" y="1514" type="line"/>
    </contour>
    <contour>
      <point x="317" y="11" type="line"/>
      <point x="317" y="536" type="line"/>
      <point x="192" y="524" type="line"/>
      <point x="424" y="524" type="line" smooth="yes"/>
      <point x="563" y="524"/>
      <point x="652" y="428"/>
      <point x="652" y="273" type="curve" smooth="yes"/>
      <point x="652" y="120"/>
      <point x="570" y="20"/>
      <point x="428" y="20" type="curve" smooth="yes"/>
      <point x="169" y="20" type="line"/>
    </contour>
    <component base="_cyrillic_bar" xOffset="-2" yOffset="715"/>
  </outline>
</glyph>
<glyph name="Fita-cy" format="2">
  <advance width="1611"/>
  <unicode hex="0472"/>
  <anchor x="806" y="0" name="bottom"/>
  <anchor x="806" y="715" name="center"/>
  <anchor x="976" y="0" name="ogonek"/>
  <anchor x="806" y="1430" name="top"/>
  <anchor x="28" y="1430" name="topleft"/>
  <anchor x="1423" y="1430" name="topright"/>
  <outline>
    <contour>
      <point x="1030" y="651" type="curve" smooth="yes"/>
      <point x="1215" y="651"/>
      <point x="1350" y="702"/>
      <point x="1383" y="782" type="curve"/>
      <point x="1383" y="808" type="line"/>
      <point x="1332" y="743"/>
      <point x="1261" y="692"/>
      <point x="1098" y="692" type="curve" smooth="yes"/>
      <point x="832" y="692"/>
      <point x="825" y="784"/>
      <point x="583" y="784" type="curve" smooth="yes"/>
      <point x="397" y="784"/>
      <point x="257" y="731"/>
      <point x="226" y="649" type="curve"/>
      <point x="226" y="622" type="line"/>
      <point x="281" y="697"/>
      <point x="357" y="740"/>
      <point x="519" y="740" type="curve" smooth="yes"/>
      <point x="785" y="740"/>
      <point x="801" y="651"/>
    </contour>
    <component base="O"/>
  </outline>
</glyph>
<glyph name="Izhitsa-cy" format="2">
  <advance width="1688"/>
  <unicode hex="0474"/>
  <anchor x="844" y="1438" name="top"/>
  <outline>
    <contour>
      <point x="707" y="-49" type="line"/>
      <point x="1135" y="964" type="line" smooth="yes"/>
      <point x="1249" y="1233"/>
      <point x="1329" y="1449"/>
      <point x="1454" y="1449" type="curve" smooth="yes"/>
      <point x="1526" y="1449"/>
      <point x="1561" y="1382"/>
      <point x="1561" y="1299" type="curve" smooth="yes"/>
      <point x="1561" y="1268"/>
      <point x="1556" y="1239"/>
      <point x="1549" y="1209" type="curve"/>
      <point x="1640" y="1229" type="line"/>
      <point x="1646" y="1264"/>
      <point x="1648" y="1298"/>
      <point x="1648" y="1314" type="curve" smooth="yes"/>
      <point x="1648" y="1422"/>
      <point x="1548" y="1470"/>
      <point x="1454" y="1470" type="curve" smooth="yes"/>
      <point x="1281" y="1470"/>
      <point x="1238" y="1309"/>
      <point x="1114" y="1026" type="curve" smooth="yes"/>
      <point x="737" y="136" type="line"/>
      <point x="795" y="184" type="line"/>
      <point x="229" y="1438" type="line"/>
      <point x="38" y="1437" type="line"/>
    </contour>
  </outline>
</glyph>
<glyph name="izhitsa-cy" format="2">
  <advance width="1217"/>
  <unicode hex="0475"/>
  <anchor x="608" y="920" name="top"/>
  <outline>
    <contour>
      <point x="459" y="-26" type="line"/>
      <point x="463" y="-26" type="line"/>
      <point x="702" y="480" type="line" smooth="yes"/>
      <point x="821" y="731"/>
      <point x="886" y="930"/>
      <point x="1032" y="932" type="curve"/>
      <point x="1081" y="922"/>
      <point x="1118" y="890"/>
      <point x="1138" y="843" type="curve"/>
      <point x="1221" y="887" type="line"/>
      <point x="1185" y="933"/>
      <point x="1100" y="955"/>
      <point x="1030" y="955" type="curve" smooth="yes"/>
      <point x="838" y="955"/>
      <point x="810" y="791"/>
      <point x="675" y="506" type="curve" smooth="yes"/>
      <point x="490" y="114" type="line"/>
      <point x="537" y="163" type="line"/>
      <point x="176" y="920" type="line"/>
      <point x="9" y="920" type="line"/>
    </contour>
  </outline>
</glyph>
<glyph name="Shha-cy" format="2">
  <advance width="1188"/>
  <unicode hex="04BA"/>
  <anchor x="1168" y="0" name="bottomright"/>
  <outline>
    <contour>
      <point x="173" y="0" type="line"/>
      <point x="355" y="0" type="line"/>
      <point x="357" y="562" type="line" smooth="yes"/>
      <point x="358" y="649"/>
      <point x="502" y="814"/>
      <point x="683" y="814" type="curve" smooth="yes"/>
      <point x="867" y="814"/>
      <point x="920" y="637"/>
      <point x="920" y="278" type="curve" smooth="yes"/>
      <point x="920" y="0" type="line"/>
      <point x="1103" y="0" type="line"/>
      <point x="1103" y="297" type="line" smooth="yes"/>
      <point x="1103" y="716"/>
      <point x="945" y="836"/>
      <point x="704" y="836" type="curve" smooth="yes"/>
      <point x="487" y="836"/>
      <point x="347" y="732"/>
      <point x="304" y="438" type="curve"/>
      <point x="356" y="537" type="line"/>
      <point x="356" y="1438" type="line"/>
      <point x="173" y="1438" type="line"/>
    </contour>
  </outline>
</glyph>
<glyph name="Germandbls" format="2">
  <advance width="1488"/>
  <unicode hex="1E9E"/>
  <anchor x="523" y="0" name="bottom"/>
  <anchor x="523" y="1477" name="top"/>
  <outline>
    <contour>
      <point x="938" y="-33" type="curve" smooth="yes"/>
      <point x="1276" y="-33"/>
      <point x="1432" y="136"/>
      <point x="1432" y="395" type="curve" smooth="yes"/>
      <point x="1432" y="659"/>
      <point x="1163" y="785"/>
      <point x="963" y="847" type="curve" smooth="yes"/>
      <point x="902" y="866"/>
      <point x="871" y="876"/>
      <point x="836" y="887" type="curve"/>
      <point x="923" y="755" type="line"/>
      <point x="1187" y="1406" type="line"/>
      <point x="1137" y="1435"/>
      <point x="995" y="1495"/>
      <point x="744" y="1495" type="curve" smooth="yes"/>
      <point x="419" y="1495"/>
      <point x="152" y="1358"/>
      <point x="152" y="1165" type="curve" smooth="yes"/>
      <point x="152" y="0" type="line"/>
      <point x="363" y="0" type="line"/>
      <point x="363" y="1221" type="line" smooth="yes"/>
      <point x="363" y="1356"/>
      <point x="565" y="1457"/>
      <point x="744" y="1457" type="curve" smooth="yes"/>
      <point x="885" y="1457"/>
      <point x="995" y="1402"/>
      <point x="1115" y="1382" type="curve"/>
      <point x="994" y="1419" type="line"/>
      <point x="729" y="773" type="line"/>
      <point x="783" y="757"/>
      <point x="843" y="736"/>
      <point x="902" y="718" type="curve" smooth="yes"/>
      <point x="1120" y="648"/>
      <point x="1248" y="528"/>
      <point x="1248" y="341" type="curve" smooth="yes"/>
      <point x="1248" y="169"/>
      <point x="1143" y="5"/>
      <point x="947" y="5" type="curve" smooth="yes"/>
      <point x="796" y="5"/>
      <point x="707" y="98"/>
      <point x="619" y="262" type="curve"/>
      <point x="573" y="117" type="line"/>
      <point x="641" y="30"/>
      <point x="767" y="-33"/>
    </contour>
  </outline>
</glyph>
<glyph name="emdash" format="2">
  <advance width="1762"/>
  <unicode hex="2014"/>
  <note>
emdash
</note>
  <outline>
    <contour>
      <point x="66" y="431" type="line"/>
      <point x="1658" y="431" type="line"/>
      <point x="1696" y="546" type="line"/>
      <point x="104" y="546" type="line"/>
    </contour>
  </outline>
</glyph>
<glyph name="daggerdbl" format="2">
  <advance width="1020"/>
  <unicode hex="2021"/>
  <note>
daggerdbl
</note>
  <outline>
    <contour>
      <point x="510" y="-300" type="curve" smooth="yes"/>
      <point x="550" y="-300"/>
      <point x="577" y="-226"/>
      <point x="577" y="-156" type="curve" smooth="yes"/>
      <point x="577" y="-49"/>
      <point x="568" y="56"/>
      <point x="555" y="95" type="curve"/>
      <point x="596" y="82"/>
      <point x="702" y="73"/>
      <point x="833" y="73" type="curve" smooth="yes"/>
      <point x="894" y="73"/>
      <point x="940" y="88"/>
      <point x="940" y="108" type="curve" smooth="yes"/>
      <point x="940" y="128"/>
      <point x="894" y="143"/>
      <point x="833" y="143" type="curve" smooth="yes"/>
      <point x="703" y="143"/>
      <point x="587" y="129"/>
      <point x="549" y="114" type="curve"/>
      <point x="562" y="165"/>
      <point x="577" y="312"/>
      <point x="577" y="414" type="curve" smooth="yes"/>
      <point x="577" y="676" type="line" smooth="yes"/>
      <point x="577" y="777"/>
      <point x="563" y="923"/>
      <point x="549" y="975" type="curve"/>
      <point x="587" y="960"/>
      <point x="703" y="946"/>
      <point x="833" y="946" type="curve" smooth="yes"/>
      <point x="894" y="946"/>
      <point x="940" y="961"/>
      <point x="940" y="981" type="curve" smooth="yes"/>
      <point x="940" y="1001"/>
      <point x="894" y="1016"/>
      <point x="833" y="1016" type="curve" smooth="yes"/>
      <point x="702" y="1016"/>
      <point x="596" y="1007"/>
      <point x="555" y="994" type="curve"/>
      <point x="568" y="1034"/>
      <point x="577" y="1138"/>
      <point x="577" y="1245" type="curve" smooth="yes"/>
      <point x="577" y="1315"/>
      <point x="550" y="1389"/>
      <point x="510" y="1389" type="curve" smooth="yes"/>
      <point x="470" y="1389"/>
      <point x="442" y="1315"/>
      <point x="442" y="1245" type="curve" smooth="yes"/>
      <point x="442" y="1138"/>
      <point x="452" y="1034"/>
      <point x="464" y="994" type="curve"/>
      <point x="424" y="1007"/>
      <point x="318" y="1016"/>
      <point x="187" y="1016" type="curve" smooth="yes"/>
      <point x="125" y="1016"/>
      <point x="80" y="1001"/>
      <point x="80" y="981" type="curve" smooth="yes"/>
      <point x="80" y="961"/>
      <point x="125" y="946"/>
      <point x="187" y="946" type="curve" smooth="yes"/>
      <point x="317" y="946"/>
      <point x="433" y="960"/>
      <point x="471" y="975" type="curve"/>
      <point x="457" y="925"/>
      <point x="442" y="778"/>
      <point x="442" y="676" type="curve" smooth="yes"/>
      <point x="442" y="414" type="line" smooth="yes"/>
      <point x="442" y="313"/>
      <point x="457" y="166"/>
      <point x="471" y="114" type="curve"/>
      <point x="433" y="129"/>
      <point x="317" y="143"/>
      <point x="187" y="143" type="curve" smooth="yes"/>
      <point x="125" y="143"/>
      <point x="80" y="128"/>
      <point x="80" y="108" type="curve" smooth="yes"/>
      <point x="80" y="88"/>
      <point x="125" y="73"/>
      <point x="187" y="73" type="curve" smooth="yes"/>
      <point x="318" y="73"/>
      <point x="424" y="82"/>
      <point x="464" y="95" type="curve"/>
      <point x="452" y="56"/>
      <point x="442" y="-49"/>
      <point x="442" y="-156" type="curve" smooth="yes"/>
      <point x="442" y="-226"/>
      <point x="470" y="-300"/>
    </contour>
  </outline>
</glyph>
<glyph name="bullet" format="2">
  <advance width="716"/>
  <unicode hex="2022"/>
  <note>
bullet
</note>
  <outline>
    <contour>
      <point x="356" y="503" type="curve" smooth="yes"/>
      <point x="493" y="503"/>
      <point x="606" y="615"/>
      <point x="606" y="752" type="curve" smooth="yes"/>
      <point x="606" y="890"/>
      <point x="495" y="1000"/>
      <point x="358" y="1000" type="curve" smooth="yes"/>
      <point x="220" y="1000"/>
      <point x="109" y="889"/>
      <point x="109" y="752" type="curve" smooth="yes"/>
      <point x="109" y="614"/>
      <point x="220" y="503"/>
    </contour>
  </outline>
</glyph>
<glyph name="perthousand" format="2">
  <advance width="2624"/>
  <unicode hex="2030"/>
  <note>
perthousand
</note>
  <outline>
    <contour>
      <point x="341" y="-28" type="line"/>
      <point x="446" y="-28" type="line"/>
      <point x="1388" y="1448" type="line"/>
      <point x="1283" y="1448" type="line"/>
    </contour>
    <contour>
      <point x="1303" y="-27" type="curve" smooth="yes"/>
      <point x="1531" y="-27"/>
      <point x="1665" y="137"/>
      <point x="1665" y="354" type="curve" smooth="yes"/>
      <point x="1665" y="566"/>
      <point x="1524" y="734"/>
      <point x="1303" y="734" type="curve" smooth="yes"/>
      <point x="1082" y="734"/>
      <point x="939" y="566"/>
      <point x="939" y="354" type="curve" smooth="yes"/>
      <point x="939" y="143"/>
      <point x="1068" y="-27"/>
    </contour>
    <contour>
      <point x="1303" y="-8" type="curve" smooth="yes"/>
      <point x="1169" y="-8"/>
      <point x="1088" y="136"/>
      <point x="1088" y="354" type="curve" smooth="yes"/>
      <point x="1088" y="571"/>
      <point x="1169" y="716"/>
      <point x="1303" y="716" type="curve" smooth="yes"/>
      <point x="1436" y="716"/>
      <point x="1518" y="572"/>
      <point x="1518" y="354" type="curve" smooth="yes"/>
      <point x="1518" y="136"/>
      <point x="1436" y="-8"/>
    </contour>
    <contour>
      <point x="458" y="706" type="curve" smooth="yes"/>
      <point x="686" y="706"/>
      <point x="820" y="870"/>
      <point x="820" y="1087" type="curve" smooth="yes"/>
      <point x="820" y="1299"/>
      <point x="679" y="1467"/>
      <point x="458" y="1467" type="curve" smooth="yes"/>
      <point x="237" y="1467"/>
      <point x="94" y="1299"/>
      <point x="94" y="1087" type="curve" smooth="yes"/>
      <point x="94" y="876"/>
      <point x="223" y="706"/>
    </contour>
    <contour>
      <point x="458" y="725" type="curve" smooth="yes"/>
      <point x="324" y="725"/>
      <point x="243" y="870"/>
      <point x="243" y="1087" type="curve" smooth="yes"/>
      <point x="243" y="1304"/>
      <point x="324" y="1448"/>
      <point x="458" y="1448" type="curve" smooth="yes"/>
      <point x="591" y="1448"/>
      <point x="673" y="1305"/>
      <point x="673" y="1087" type="curve" smooth="yes"/>
      <point x="673" y="870"/>
      <point x="591" y="725"/>
    </contour>
    <contour>
      <point x="2168" y="-27" type="curve" smooth="yes"/>
      <point x="2396" y="-27"/>
      <point x="2530" y="137"/>
      <point x="2530" y="354" type="curve" smooth="yes"/>
      <point x="2530" y="566"/>
      <point x="2389" y="734"/>
      <point x="2168" y="734" type="curve" smooth="yes"/>
      <point x="1947" y="734"/>
      <point x="1804" y="566"/>
      <point x="1804" y="354" type="curve" smooth="yes"/>
      <point x="1804" y="143"/>
      <point x="1933" y="-27"/>
    </contour>
    <contour>
      <point x="2168" y="-8" type="curve" smooth="yes"/>
      <point x="2034" y="-8"/>
      <point x="1953" y="136"/>
      <point x="1953" y="354" type="curve" smooth="yes"/>
      <point x="1953" y="571"/>
      <point x="2034" y="716"/>
      <point x="2168" y="716" type="curve" smooth="yes"/>
      <point x="2301" y="716"/>
      <point x="2383" y="572"/>
      <point x="2383" y="354" type="curve" smooth="yes"/>
      <point x="2383" y="136"/>
      <point x="2301" y="-8"/>
    </contour>
  </outline>
</glyph>
<glyph name="guilsinglleft" format="2">
  <advance width="475"/>
  <unicode hex="2039"/>
  <note>
guilsinglleft
</note>
  <outline>
    <contour>
      <point x="349" y="-4" type="line"/>
      <point x="406" y="51" type="line"/>
      <point x="163" y="432" type="line"/>
      <point x="405" y="817" type="line"/>
      <point x="341" y="865" type="line"/>
      <point x="39" y="432" type="line"/>
    </contour>
  </outline>
</glyph>
<glyph name="guilsinglright" format="2">
  <advance width="475"/>
  <unicode hex="203A"/>
  <note>
guilsinglright
</note>
  <outline>
    <contour>
      <point x="126" y="-4" type="line"/>
      <point x="437" y="432" type="line"/>
      <point x="135" y="865" type="line"/>
      <point x="70" y="817" type="line"/>
      <point x="312" y="432" type="line"/>
      <point x="69" y="51" type="line"/>
    </contour>
  </outline>
</glyph>
<glyph name="franc" format="2">
  <advance width="1520"/>
  <unicode hex="20A3"/>
  <note>
franc
</note>
  <outline>
    <contour>
      <point x="225" y="-1" type="line"/>
      <point x="423" y="-1" type="line"/>
      <point x="423" y="793" type="line"/>
      <point x="332" y="706" type="line"/>
      <point x="957" y="706" type="line"/>
      <point x="957" y="751" type="line"/>
      <point x="335" y="751" type="line"/>
      <point x="423" y="669" type="line"/>
      <point x="423" y="1425" type="line"/>
      <point x="326" y="1392" type="line"/>
      <point x="957" y="1392" type="line"/>
      <point x="957" y="1438" type="line"/>
      <point x="225" y="1438" type="line"/>
    </contour>
    <contour>
      <point x="765" y="0" type="line"/>
      <point x="957" y="0" type="line"/>
      <point x="957" y="403" type="line" smooth="yes"/>
      <point x="957" y="583"/>
      <point x="1065" y="726"/>
      <point x="1185" y="726" type="curve" smooth="yes"/>
      <point x="1248" y="726"/>
      <point x="1298" y="682"/>
      <point x="1298" y="608" type="curve" smooth="yes"/>
      <point x="1298" y="556"/>
      <point x="1283" y="522"/>
      <point x="1261" y="503" type="curve"/>
      <point x="1395" y="469" type="line"/>
      <point x="1414" y="514"/>
      <point x="1426" y="555"/>
      <point x="1426" y="593" type="curve" smooth="yes"/>
      <point x="1426" y="712"/>
      <point x="1313" y="777"/>
      <point x="1195" y="777" type="curve" smooth="yes"/>
      <point x="1035" y="777"/>
      <point x="954" y="655"/>
      <point x="910" y="441" type="curve"/>
      <point x="957" y="477" type="line"/>
      <point x="957" y="751" type="line"/>
      <point x="765" y="751" type="line"/>
    </contour>
  </outline>
</glyph>
<glyph name="lira" format="2">
  <advance width="1220"/>
  <unicode hex="20A4"/>
  <outline>
    <contour>
      <point x="154" y="-5" type="line"/>
      <point x="1078" y="-5" type="line"/>
      <point x="1078" y="62" type="line"/>
      <point x="154" y="62" type="line"/>
    </contour>
    <contour>
      <point x="154" y="772" type="line"/>
      <point x="998" y="772" type="line"/>
      <point x="998" y="808" type="line"/>
      <point x="154" y="808" type="line"/>
    </contour>
    <contour>
      <point x="154" y="61" type="curve"/>
      <point x="272" y="52" type="line"/>
      <point x="450" y="188"/>
      <point x="534" y="319"/>
      <point x="572" y="625" type="curve" smooth="yes"/>
      <point x="606" y="898"/>
      <point x="353" y="884"/>
      <point x="353" y="1170" type="curve" smooth="yes"/>
      <point x="353" y="1346"/>
      <point x="480" y="1433"/>
      <point x="629" y="1433" type="curve" smooth="yes"/>
      <point x="790" y="1433"/>
      <point x="897" y="1325"/>
      <point x="896" y="1123" type="curve"/>
      <point x="1102" y="1123" type="line"/>
      <point x="1090" y="1331"/>
      <point x="902" y="1469"/>
      <point x="636" y="1469" type="curve" smooth="yes"/>
      <point x="369" y="1469"/>
      <point x="191" y="1341"/>
      <point x="191" y="1152" type="curve" smooth="yes"/>
      <point x="191" y="906"/>
      <point x="424" y="877"/>
      <point x="385" y="611" type="curve" smooth="yes"/>
      <point x="339" y="298"/>
      <point x="246" y="136"/>
    </contour>
    <contour>
      <point x="154" y="562" type="line"/>
      <point x="998" y="562" type="line"/>
      <point x="998" y="598" type="line"/>
      <point x="154" y="598" type="line"/>
    </contour>
  </outline>
</glyph>
<glyph name="peseta" format="2">
  <advance width="1278"/>
  <unicode hex="20A7"/>
  <anchor x="675" y="0" name="_bottom"/>
  <anchor x="675" y="440" name="bar"/>
  <anchor x="675" y="-231" name="bottom"/>
  <anchor x="676" y="1435" name="top"/>
  <outline>
    <contour>
      <point x="80" y="600" type="line"/>
      <point x="470" y="600" type="line"/>
      <point x="470" y="618" type="line"/>
      <point x="80" y="618" type="line"/>
    </contour>
    <component base="P" xOffset="100"/>
  </outline>
</glyph>
<glyph name="kip" format="2">
  <advance width="1493"/>
  <unicode hex="20AD"/>
  <outline>
    <contour>
      <point x="1184" y="0" type="line"/>
      <point x="1399" y="0" type="line"/>
      <point x="799" y="752" type="line"/>
      <point x="625" y="702" type="line"/>
    </contour>
    <contour>
      <point x="225" y="0" type="line"/>
      <point x="408" y="0" type="line"/>
      <point x="408" y="1438" type="line"/>
      <point x="225" y="1438" type="line"/>
    </contour>
    <contour>
      <point x="361" y="686" type="line"/>
      <point x="773" y="686" type="line"/>
      <point x="773" y="752" type="line"/>
      <point x="361" y="752" type="line"/>
    </contour>
    <contour>
      <point x="753" y="676" type="line"/>
      <point x="1364" y="1438" type="line"/>
      <point x="1245" y="1438" type="line"/>
      <point x="661" y="708" type="line"/>
    </contour>
  </outline>
</glyph>
<glyph name="peso" format="2">
  <advance width="1383"/>
  <unicode hex="20B1"/>
  <anchor x="675" y="0" name="_bottom"/>
  <anchor x="675" y="440" name="bar"/>
  <anchor x="675" y="-231" name="bottom"/>
  <anchor x="676" y="1435" name="top"/>
  <outline>
    <contour>
      <point x="111" y="1140" type="line"/>
      <point x="1285" y="1140" type="line"/>
      <point x="1285" y="1158" type="line"/>
      <point x="111" y="1158" type="line"/>
    </contour>
    <contour>
      <point x="111" y="890" type="line"/>
      <point x="1285" y="890" type="line"/>
      <point x="1285" y="908" type="line"/>
      <point x="111" y="908" type="line"/>
    </contour>
    <component base="P" xOffset="100"/>
  </outline>
</glyph>
<glyph name="guarani" format="2">
  <advance width="1666"/>
  <unicode hex="20B2"/>
  <anchor x="830" y="0" name="bottom"/>
  <anchor x="830" y="1430" name="top"/>
  <outline>
    <contour>
      <point x="855" y="-34" type="curve" smooth="yes"/>
      <point x="1244" y="-27"/>
      <point x="1538" y="267"/>
      <point x="1572" y="645" type="curve"/>
      <point x="1376" y="645" type="line"/>
      <point x="1350" y="276"/>
      <point x="1121" y="-8"/>
      <point x="854" y="-12" type="curve" smooth="yes"/>
      <point x="569" y="-16"/>
      <point x="320" y="300"/>
      <point x="316" y="707" type="curve" smooth="yes"/>
      <point x="313" y="1110"/>
      <point x="558" y="1440"/>
      <point x="847" y="1445" type="curve" smooth="yes"/>
      <point x="1022" y="1448"/>
      <point x="1227" y="1331"/>
      <point x="1311" y="1114" type="curve"/>
      <point x="1450" y="1169" type="line"/>
      <point x="1336" y="1368"/>
      <point x="1084" y="1471"/>
      <point x="847" y="1467" type="curve" smooth="yes"/>
      <point x="425" y="1460"/>
      <point x="116" y="1119"/>
      <point x="120" y="700" type="curve" smooth="yes"/>
      <point x="124" y="287"/>
      <point x="435" y="-41"/>
    </contour>
    <contour>
      <point x="1102" y="630" type="line"/>
      <point x="1446" y="630" type="line"/>
      <point x="1446" y="645" type="line"/>
      <point x="1102" y="645" type="line"/>
    </contour>
    <contour>
      <point x="798" y="-184" type="line"/>
      <point x="873" y="-184" type="line"/>
      <point x="873" y="1588" type="line"/>
      <point x="798" y="1588" type="line"/>
    </contour>
  </outline>
</glyph>
<glyph name="rupeeIndian" format="2">
  <advance width="1293"/>
  <unicode hex="20B9"/>
  <outline>
    <contour>
      <point x="403" y="627" type="line"/>
      <point x="483" y="615"/>
      <point x="547" y="628"/>
      <point x="636" y="525" type="curve" smooth="yes"/>
      <point x="689" y="461"/>
      <point x="721" y="401"/>
      <point x="769" y="248" type="curve" smooth="yes"/>
      <point x="788" y="160"/>
      <point x="817" y="73"/>
      <point x="842" y="0" type="curve"/>
      <point x="997" y="0" type="line"/>
      <point x="974" y="72"/>
      <point x="934" y="187"/>
      <point x="908" y="284" type="curve" smooth="yes"/>
      <point x="877" y="404"/>
      <point x="821" y="484"/>
      <point x="768" y="537" type="curve" smooth="yes"/>
      <point x="691" y="609"/>
      <point x="615" y="642"/>
      <point x="507" y="642" type="curve"/>
    </contour>
    <contour>
      <point x="122" y="643" type="line"/>
      <point x="122" y="625" type="line"/>
      <point x="415" y="625" type="line"/>
      <point x="486" y="627" type="line" smooth="yes"/>
      <point x="761" y="640"/>
      <point x="936" y="769"/>
      <point x="933" y="1032" type="curve" smooth="yes"/>
      <point x="929" y="1333"/>
      <point x="693" y="1438"/>
      <point x="435" y="1438" type="curve" smooth="yes"/>
      <point x="122" y="1438" type="line"/>
      <point x="122" y="1420" type="line"/>
      <point x="412" y="1420" type="line" smooth="yes"/>
      <point x="609" y="1420"/>
      <point x="763" y="1259"/>
      <point x="765" y="1021" type="curve" smooth="yes"/>
      <point x="767" y="779"/>
      <point x="614" y="643"/>
      <point x="418" y="643" type="curve" smooth="yes"/>
    </contour>
    <contour>
      <point x="122" y="1420" type="line"/>
      <point x="1192" y="1420" type="line"/>
      <point x="1192" y="1438" type="line"/>
      <point x="122" y="1438" type="line"/>
    </contour>
    <contour>
      <point x="122" y="1017" type="line"/>
      <point x="1192" y="1017" type="line"/>
      <point x="1192" y="1035" type="line"/>
      <point x="122" y="1035" type="line"/>
    </contour>
  </outline>
</glyph>
<glyph name="ruble" format="2">
  <advance width="1297"/>
  <unicode hex="20BD"/>
  <anchor x="694" y="0" name="_bottom"/>
  <anchor x="694" y="440" name="bar"/>
  <anchor x="694" y="-231" name="bottom"/>
  <anchor x="695" y="1435" name="top"/>
  <outline>
    <contour>
      <point x="99" y="600" type="line"/>
      <point x="389" y="600" type="line"/>
      <point x="389" y="618" type="line"/>
      <point x="99" y="618" type="line"/>
    </contour>
    <contour>
      <point x="99" y="320" type="line"/>
      <point x="669" y="320" type="line"/>
      <point x="669" y="338" type="line"/>
      <point x="99" y="338" type="line"/>
    </contour>
    <component base="P" xOffset="119"/>
  </outline>
</glyph>
<glyph name="partialdiff" format="2">
  <advance width="1036"/>
  <unicode hex="2202"/>
  <note>
partialdiff
</note>
  <outline>
    <contour>
      <point x="459" y="-27" type="curve" smooth="yes"/>
      <point x="730" y="-27"/>
      <point x="903" y="287"/>
      <point x="903" y="707" type="curve" smooth="yes"/>
      <point x="903" y="1025"/>
      <point x="772" y="1275"/>
      <point x="533" y="1275" type="curve" smooth="yes"/>
      <point x="395" y="1275"/>
      <point x="271" y="1194"/>
      <point x="271" y="1131" type="curve" smooth="yes"/>
      <point x="271" y="1107"/>
      <point x="295" y="1092"/>
      <point x="313" y="1092" type="curve" smooth="yes"/>
      <point x="353" y="1092"/>
      <point x="380" y="1163"/>
      <point x="419" y="1200" type="curve" smooth="yes"/>
      <point x="444" y="1224"/>
      <point x="472" y="1249"/>
      <point x="536" y="1249" type="curve" smooth="yes"/>
      <point x="711" y="1249"/>
      <point x="747" y="990"/>
      <point x="747" y="831" type="curve" smooth="yes"/>
      <point x="747" y="765"/>
      <point x="746" y="696"/>
      <point x="724" y="589" type="curve"/>
      <point x="676" y="745"/>
      <point x="575" y="769"/>
      <point x="489" y="769" type="curve" smooth="yes"/>
      <point x="246" y="769"/>
      <point x="100" y="564"/>
      <point x="100" y="344" type="curve" smooth="yes"/>
      <point x="100" y="106"/>
      <point x="282" y="-27"/>
    </contour>
    <contour>
      <point x="448" y="-5" type="curve" smooth="yes"/>
      <point x="378" y="-5"/>
      <point x="292" y="79"/>
      <point x="292" y="286" type="curve" smooth="yes"/>
      <point x="292" y="508"/>
      <point x="394" y="743"/>
      <point x="529" y="743" type="curve" smooth="yes"/>
      <point x="625" y="743"/>
      <point x="673" y="623"/>
      <point x="673" y="459" type="curve" smooth="yes"/>
      <point x="673" y="229"/>
      <point x="570" y="-5"/>
    </contour>
  </outline>
</glyph>
<glyph name="emptyset" format="2">
  <advance width="1200"/>
  <unicode hex="2205"/>
  <outline>
    <contour>
      <point x="540" y="-32" type="curve" smooth="yes"/>
      <point x="811" y="-32"/>
      <point x="1032" y="190"/>
      <point x="1032" y="462" type="curve" smooth="yes"/>
      <point x="1032" y="733"/>
      <point x="811" y="954"/>
      <point x="540" y="954" type="curve" smooth="yes"/>
      <point x="268" y="954"/>
      <point x="48" y="733"/>
      <point x="48" y="462" type="curve" smooth="yes"/>
      <point x="48" y="190"/>
      <point x="268" y="-32"/>
    </contour>
    <contour>
      <point x="540" y="75" type="curve" smooth="yes"/>
      <point x="326" y="75"/>
      <point x="153" y="248"/>
      <point x="153" y="462" type="curve" smooth="yes"/>
      <point x="153" y="675"/>
      <point x="326" y="848"/>
      <point x="540" y="848" type="curve" smooth="yes"/>
      <point x="753" y="848"/>
      <point x="926" y="675"/>
      <point x="926" y="462" type="curve" smooth="yes"/>
      <point x="926" y="248"/>
      <point x="753" y="75"/>
    </contour>
    <component base="slashlongcomb" xOffset="161" yOffset="-8"/>
  </outline>
</glyph>
<glyph name="product" format="2">
  <advance width="1609"/>
  <unicode hex="220F"/>
  <note>
product
</note>
  <outline>
    <contour>
      <point x="213" y="-392" type="line"/>
      <point x="406" y="-392" type="line"/>
      <point x="406" y="1255" type="line"/>
      <point x="1203" y="1255" type="line"/>
      <point x="1203" y="-392" type="line"/>
      <point x="1396" y="-392" type="line"/>
      <point x="1396" y="1367" type="line"/>
      <point x="213" y="1367" type="line"/>
    </contour>
  </outline>
</glyph>
<glyph name="summation" format="2">
  <advance width="1389"/>
  <unicode hex="2211"/>
  <note>
summation
</note>
  <outline>
    <contour>
      <point x="89" y="-347" type="line"/>
      <point x="1294" y="-347" type="line"/>
      <point x="1294" y="-222" type="line"/>
      <point x="345" y="-222" type="line"/>
      <point x="1043" y="551" type="line"/>
      <point x="374" y="1274" type="line"/>
      <point x="1278" y="1274" type="line"/>
      <point x="1278" y="1405" type="line"/>
      <point x="121" y="1405" type="line"/>
      <point x="121" y="1292" type="line"/>
      <point x="812" y="546" type="line"/>
      <point x="89" y="-255" type="line"/>
    </contour>
  </outline>
</glyph>
<glyph name="minus" format="2">
  <advance width="993"/>
  <unicode hex="2212"/>
  <note>
minus
</note>
  <outline>
    <contour>
      <point x="112" y="610" type="line"/>
      <point x="968" y="610" type="line"/>
      <point x="968" y="726" type="line"/>
      <point x="112" y="726" type="line"/>
    </contour>
  </outline>
</glyph>
<glyph name="radical" format="2">
  <advance width="1378"/>
  <unicode hex="221A"/>
  <note>
radical
</note>
  <outline>
    <contour>
      <point x="512" y="-51" type="line"/>
      <point x="605" y="-51" type="line"/>
      <point x="1182" y="1510" type="line"/>
      <point x="1309" y="1510" type="line"/>
      <point x="1309" y="1600" type="line"/>
      <point x="1082" y="1600" type="line"/>
      <point x="583" y="249" type="line"/>
      <point x="328" y="955" type="line"/>
      <point x="66" y="863" type="line"/>
      <point x="94" y="781" type="line"/>
      <point x="198" y="819" type="line"/>
    </contour>
  </outline>
</glyph>
<glyph name="infinity" format="2">
  <advance width="1493"/>
  <unicode hex="221E"/>
  <note>
infinity
</note>
  <outline>
    <contour>
      <point x="446" y="259" type="curve" smooth="yes"/>
      <point x="570" y="259"/>
      <point x="661" y="321"/>
      <point x="755" y="473" type="curve"/>
      <point x="846" y="326"/>
      <point x="940" y="262"/>
      <point x="1057" y="262" type="curve" smooth="yes"/>
      <point x="1236" y="262"/>
      <point x="1367" y="406"/>
      <point x="1367" y="602" type="curve" smooth="yes"/>
      <point x="1367" y="799"/>
      <point x="1233" y="940"/>
      <point x="1046" y="940" type="curve" smooth="yes"/>
      <point x="922" y="940"/>
      <point x="826" y="873"/>
      <point x="738" y="724" type="curve"/>
      <point x="653" y="868"/>
      <point x="555" y="937"/>
      <point x="437" y="937" type="curve" smooth="yes"/>
      <point x="258" y="937"/>
      <point x="125" y="792"/>
      <point x="125" y="596" type="curve" smooth="yes"/>
      <point x="125" y="400"/>
      <point x="260" y="259"/>
    </contour>
    <contour>
      <point x="417" y="358" type="curve" smooth="yes"/>
      <point x="326" y="358"/>
      <point x="242" y="462"/>
      <point x="242" y="579" type="curve" smooth="yes"/>
      <point x="242" y="724"/>
      <point x="328" y="833"/>
      <point x="441" y="833" type="curve" smooth="yes"/>
      <point x="528" y="833"/>
      <point x="606" y="767"/>
      <point x="681" y="631" type="curve"/>
      <point x="589" y="429"/>
      <point x="518" y="358"/>
    </contour>
    <contour>
      <point x="1055" y="366" type="curve" smooth="yes"/>
      <point x="966" y="366"/>
      <point x="889" y="430"/>
      <point x="814" y="567" type="curve"/>
      <point x="904" y="764"/>
      <point x="979" y="840"/>
      <point x="1077" y="840" type="curve" smooth="yes"/>
      <point x="1168" y="840"/>
      <point x="1253" y="736"/>
      <point x="1253" y="618" type="curve" smooth="yes"/>
      <point x="1253" y="476"/>
      <point x="1166" y="366"/>
    </contour>
  </outline>
</glyph>
<glyph name="integral" format="2">
  <advance width="1168"/>
  <unicode hex="222B"/>
  <note>
integral
</note>
  <outline>
    <contour>
      <point x="267" y="-539" type="curve" smooth="yes"/>
      <point x="463" y="-539"/>
      <point x="524" y="-377"/>
      <point x="566" y="-137" type="curve" smooth="yes"/>
      <point x="784" y="1104" type="line" smooth="yes"/>
      <point x="820" y="1309"/>
      <point x="827" y="1469"/>
      <point x="918" y="1495" type="curve"/>
      <point x="963" y="1488"/>
      <point x="975" y="1460"/>
      <point x="975" y="1437" type="curve" smooth="yes"/>
      <point x="975" y="1406"/>
      <point x="951" y="1321"/>
      <point x="932" y="1286" type="curve"/>
      <point x="1063" y="1286" type="line"/>
      <point x="1081" y="1330"/>
      <point x="1099" y="1380"/>
      <point x="1099" y="1421" type="curve" smooth="yes"/>
      <point x="1099" y="1501"/>
      <point x="1024" y="1555"/>
      <point x="900" y="1555" type="curve" smooth="yes"/>
      <point x="703" y="1555"/>
      <point x="643" y="1394"/>
      <point x="601" y="1154" type="curve" smooth="yes"/>
      <point x="383" y="-87" type="line" smooth="yes"/>
      <point x="347" y="-291"/>
      <point x="340" y="-452"/>
      <point x="249" y="-479" type="curve"/>
      <point x="204" y="-471"/>
      <point x="192" y="-444"/>
      <point x="192" y="-420" type="curve" smooth="yes"/>
      <point x="192" y="-390"/>
      <point x="216" y="-305"/>
      <point x="235" y="-270" type="curve"/>
      <point x="104" y="-270" type="line"/>
      <point x="85" y="-315"/>
      <point x="68" y="-364"/>
      <point x="68" y="-405" type="curve" smooth="yes"/>
      <point x="68" y="-483"/>
      <point x="143" y="-539"/>
    </contour>
  </outline>
</glyph>
<glyph name="approxequal" format="2">
  <advance width="993"/>
  <unicode hex="2248"/>
  <note>
approxequal
</note>
  <outline>
    <contour>
      <point x="801" y="710" type="curve" smooth="yes"/>
      <point x="922" y="710"/>
      <point x="1034" y="775"/>
      <point x="1103" y="848" type="curve"/>
      <point x="1049" y="925" type="line"/>
      <point x="948" y="847"/>
      <point x="861" y="813"/>
      <point x="798" y="813" type="curve" smooth="yes"/>
      <point x="734" y="813"/>
      <point x="690" y="846"/>
      <point x="641" y="876" type="curve" smooth="yes"/>
      <point x="565" y="922"/>
      <point x="496" y="950"/>
      <point x="424" y="950" type="curve" smooth="yes"/>
      <point x="319" y="950"/>
      <point x="201" y="889"/>
      <point x="125" y="800" type="curve"/>
      <point x="180" y="724" type="line"/>
      <point x="281" y="807"/>
      <point x="360" y="845"/>
      <point x="425" y="845" type="curve" smooth="yes"/>
      <point x="491" y="845"/>
      <point x="557" y="801"/>
      <point x="602" y="774" type="curve" smooth="yes"/>
      <point x="687" y="723"/>
      <point x="750" y="710"/>
    </contour>
    <contour>
      <point x="801" y="398" type="curve" smooth="yes"/>
      <point x="922" y="398"/>
      <point x="1034" y="463"/>
      <point x="1103" y="536" type="curve"/>
      <point x="1049" y="613" type="line"/>
      <point x="948" y="535"/>
      <point x="861" y="501"/>
      <point x="798" y="501" type="curve" smooth="yes"/>
      <point x="733" y="501"/>
      <point x="690" y="534"/>
      <point x="639" y="566" type="curve" smooth="yes"/>
      <point x="566" y="611"/>
      <point x="495" y="638"/>
      <point x="424" y="638" type="curve" smooth="yes"/>
      <point x="319" y="638"/>
      <point x="201" y="577"/>
      <point x="125" y="488" type="curve"/>
      <point x="180" y="412" type="line"/>
      <point x="281" y="495"/>
      <point x="360" y="533"/>
      <point x="425" y="533" type="curve" smooth="yes"/>
      <point x="490" y="533"/>
      <point x="556" y="490"/>
      <point x="601" y="463" type="curve" smooth="yes"/>
      <point x="685" y="413"/>
      <point x="749" y="398"/>
    </contour>
  </outline>
</glyph>
